<?xml version="1.0" encoding="UTF-8"?>
<svg width="16px" height="16px" viewBox="0 0 16 16" version="1.1" xmlns="http://www.w3.org/2000/svg" xmlns:xlink="http://www.w3.org/1999/xlink">
    <!-- Generator: Sketch 53.2 (72643) - https://sketchapp.com -->
    <title>SmallSearch</title>
    <desc>Created with Sketch.</desc>
    <g id="SmallSearch" stroke="none" stroke-width="1" fill="none" fill-rule="evenodd">
        <path d="M13.5296304,12.2813156 L12.2813156,13.5296304 L9.55139315,10.8140949 C8.82586628,11.2992264 7.97034623,11.5602846 7.09245335,11.5599067 C4.62514699,11.5599067 2.625,9.55975971 2.625,7.09245335 C2.625,4.62514699 4.62514699,2.625 7.09245335,2.625 C9.55974648,2.625 11.5599067,4.62513377 11.5599067,7.09222661 C11.5602846,7.9703108 11.2992305,8.82585685 10.8140948,9.55139304 L13.5296304,12.2813156 Z M9.88662461,7.09245335 C9.88662461,5.54927517 8.63563153,4.29828209 7.09245335,4.29828209 C5.54927517,4.29828209 4.29828209,5.54927517 4.29828209,7.09245335 C4.29828209,8.63563153 5.54927517,9.88662461 7.09245335,9.88662461 C8.63563153,9.88662461 9.88662461,8.63563153 9.88662461,7.09245335 Z" id="Fill" fill="#8492A6" fill-rule="nonzero"></path>
    </g>
</svg>