<svg xmlns="http://www.w3.org/2000/svg" width="24" height="24" viewBox="0 0 24 24">
  <g fill="none" fill-rule="evenodd">
    <path fill="#FFF" d="M2,0.25 C1.17191561,0.250826845 0.500826845,0.921915607 0.5,1.75 L0.5,8.75 C0.502479587,10.8200399 2.17996014,12.4975204 4.25,12.5 L12.25,12.5 C14.3200399,12.4975204 15.9975204,10.8200399 16,8.75 L16,7 L16.375,7 C18.238961,7 19.75,5.48896103 19.75,3.625 C19.75,1.76103897 18.238961,0.25 16.375,0.25 L2,0.25 Z M14.5,8.75 C14.4987597,9.99212659 13.4921266,10.9987597 12.25,11 L4.25,11 C3.00787341,10.9987597 2.00124027,9.99212659 2,8.75 L2,1.75 L14.5,1.75 L14.5,8.75 Z M16.375,5.5 L16,5.5 L16,1.75 L16.375,1.75 C17.4105339,1.75 18.25,2.58946609 18.25,3.625 C18.25,4.66053391 17.4105339,5.5 16.375,5.5 Z" transform="translate(3 9)"/>
    <path stroke="#FFF" stroke-width="1.5" d="M15,7.5 C15,4 10,6 10,2"/>
  </g>
</svg>
