<svg xmlns="http://www.w3.org/2000/svg" width="24" height="24" viewBox="0 0 24 24">
  <path fill="#EFF2F7" d="M9.75,22.5 C5.19365081,22.5 1.5,18.8063492 1.5,14.25 C1.5,9.69365081 5.19365081,6 9.75,6 C10.1642136,6 10.5,6.33578644 10.5,6.75 L10.5,13.5 L17.25,13.5 C17.6642136,13.5 18,13.8357864 18,14.25 C18,18.8063492 14.3063492,22.5 9.75,22.5 Z M9,7.545 C5.48701906,7.9358513 2.87047631,10.9706109 3.00099738,14.5028572 C3.13151844,18.0351036 5.96489645,20.8684816 9.49714276,20.9990026 C13.0293891,21.1295237 16.0641487,18.5129809 16.455,15 L10.5,15 C9.67157288,15 9,14.3284271 9,13.5 L9,7.545 Z M21,10.5 L14.25,10.5 C13.4215729,10.5 12.75,9.82842712 12.75,9 L12.75,2.25 C12.75,1.83578644 13.0857864,1.5 13.5,1.5 C18.0563492,1.5 21.75,5.19365081 21.75,9.75 C21.75,10.1642136 21.4142136,10.5 21,10.5 Z M14.25,9 L20.205,9 C19.8534988,5.8682599 17.3817401,3.39650118 14.25,3.045 L14.25,9 Z"/>
</svg>
