<svg xmlns="http://www.w3.org/2000/svg" width="24" height="24" viewBox="0 0 24 24">
  <path fill="#EFF2F7" d="M17.5991833,6.60081672 C19.3991833,6.60081672 20.7991306,8.30081672 20.7991306,9.90081672 C20.7991306,10.1518085 20.801729,14.9533956 20.7991306,15.2226197 C20.7847052,16.7172397 19.2909518,18.4008167 17.5991833,18.4008167 L10.3991833,18.4008167 L10.3991833,19.9008167 L17.5991833,19.9008167 C19.7912644,19.9008167 22.3805217,17.6173445 22.3991328,15.1278049 C22.4029216,14.6209941 22.3991328,10.1865528 22.3991328,9.80081672 C22.3991328,7.30081672 20.3991833,5.00081672 17.5991833,5.00081672 L6.19918328,5.00081672 L9.19918328,2.00081672 L8.19918328,1.10081672 L3.39918328,5.90081672 L8.19918328,10.7008167 L9.29918328,9.60081672 L6.29918328,6.60081672 C13.8325166,6.60081672 17.5991833,6.60081672 17.5991833,6.60081672 Z" transform="rotate(90 12.9 10.5)"/>
</svg>
