<svg xmlns="http://www.w3.org/2000/svg" width="24" height="24" viewBox="0 0 24 24">
  <path fill="#EFF2F7" d="M21.57,8.5125 C21.427498,8.34589669 21.2192339,8.24998558 21,8.25 L16.5,8.25 L16.5,5.25 C16.5,4.00735931 15.4926407,3 14.25,3 L9.75,3 C8.50735931,3 7.5,4.00735931 7.5,5.25 L7.5,8.25 L3,8.25 C2.77996811,8.24750826 2.56994256,8.34176995 2.42555306,8.50781788 C2.28116356,8.6738658 2.21697899,8.89494575 2.25,9.1125 L3.66,18.225 C3.77215413,18.9645571 4.41203494,19.5084558 5.16,19.5000972 L18.855,19.5000972 C19.6029651,19.5084558 20.2428459,18.9645571 20.355,18.225 L21.75,9.1125 C21.7803935,8.8958186 21.7146486,8.67666876 21.57,8.5125 Z M9,5.25 C9,4.83578644 9.33578644,4.5 9.75,4.5 L14.25,4.5 C14.6642136,4.5 15,4.83578644 15,5.25 L15,8.25 L9,8.25 L9,5.25 Z M18.855,18 L5.145,18 L3.8775,9.75 L20.1225,9.75 L18.855,18 Z"/>
</svg>
