<svg xmlns="http://www.w3.org/2000/svg" width="24" height="24" viewBox="0 0 24 24">
  <path fill="#EFF2F7" d="M8.25,18 L15.75,18 L15.75,19.5 L8.25,19.5 L8.25,18 Z M9.75,21 L14.25,21 L14.25,22.5 L9.75,22.5 L9.75,21 Z M12,1.5 C7.85786438,1.5 4.5,4.85786438 4.5,9 C4.39711086,11.2111779 5.36248036,13.3372229 7.095,14.715 C7.845,15.4125 8.25,15.81 8.25,16.5 L9.75,16.5 C9.75,15.12 8.9175,14.3475 8.1075,13.605 C6.68413447,12.5150095 5.89452532,10.7896714 6,9 C6.00000005,5.68629154 8.68629154,3 12,3 C15.3137085,3 18,5.68629154 18,9 C18.103725,10.7910287 17.3111836,12.516633 15.885,13.605 C15.0825,14.355 14.25,15.105 14.25,16.5 L15.75,16.5 C15.75,15.81 16.1475,15.4125 16.905,14.7075 C18.6363155,13.332078 19.6016851,11.208823 19.5,9 C19.5,7.01087633 18.7098237,5.10322198 17.3033009,3.69669914 C15.896778,2.2901763 13.9891237,1.5 12,1.5 Z"/>
</svg>
