<svg xmlns="http://www.w3.org/2000/svg" width="24" height="24" viewBox="0 0 24 24">
  <path fill="#EFF2F7" d="M11,3.25 C15.2802068,3.25 18.75,6.71979319 18.75,11 C18.75,12.7793714 18.150337,14.418684 17.1420779,15.7268707 L20.9497475,19.5355339 L19.5355339,20.9497475 L15.7268707,17.1420779 C14.418684,18.150337 12.7793714,18.75 11,18.75 C6.71979319,18.75 3.25,15.2802068 3.25,11 C3.25,6.71979319 6.71979319,3.25 11,3.25 Z M11,4.75 C7.54822031,4.75 4.75,7.54822031 4.75,11 C4.75,14.4517797 7.54822031,17.25 11,17.25 C14.4517797,17.25 17.25,14.4517797 17.25,11 C17.25,7.54822031 14.4517797,4.75 11,4.75 Z"/>
</svg>
