<svg xmlns="http://www.w3.org/2000/svg" width="24" height="24" viewBox="0 0 24 24">
  <path fill="#EFF2F7" d="M7.5,22.5 L3,22.5 C2.17157288,22.5 1.5,21.8284271 1.5,21 L1.5,12 C1.5,11.1715729 2.17157288,10.5 3,10.5 L7.5,10.5 C8.32842712,10.5 9,11.1715729 9,12 L9,21 C9,21.8284271 8.32842712,22.5 7.5,22.5 Z M3,12 L3,21 L7.5,21 L7.5,12 L3,12 Z M21,3 L4.5,3 C3.67157288,3 3,3.67157288 3,4.5 L3,9 L4.5,9 L4.5,4.5 L21,4.5 L21,15 L10.5,15 L10.5,16.5 L12,16.5 L12,19.5 L10.5,19.5 L10.5,21 L17.25,21 L17.25,19.5 L13.5,19.5 L13.5,16.5 L21,16.5 C21.8284271,16.5 22.5,15.8284271 22.5,15 L22.5,4.5 C22.5,3.67157288 21.8284271,3 21,3 Z"/>
</svg>
