<svg xmlns="http://www.w3.org/2000/svg" width="24" height="24" viewBox="0 0 24 24">
  <path fill="#EFF2F7" d="M7.5,13.5 L13.5,13.5 L13.5,15 L7.5,15 L7.5,13.5 Z M7.5,9.75 L16.5,9.75 L16.5,11.25 L7.5,11.25 L7.5,9.75 Z M7.5,17.25 L11.25,17.25 L11.25,18.75 L7.5,18.75 L7.5,17.25 Z M18.75,3.75 L16.5,3.75 L16.5,3 C16.5,2.17157288 15.8284271,1.5 15,1.5 L9,1.5 C8.17157288,1.5 7.5,2.17157288 7.5,3 L7.5,3.75 L5.25,3.75 C4.42157288,3.75 3.75,4.42157288 3.75,5.25 L3.75,21 C3.75,21.8284271 4.42157288,22.5 5.25,22.5 L18.75,22.5 C19.5784271,22.5 20.25,21.8284271 20.25,21 L20.25,5.25 C20.25,4.42157288 19.5784271,3.75 18.75,3.75 Z M9,3 L15,3 L15,6 L9,6 L9,3 Z M18.75,21 L5.25,21 L5.25,5.25 L7.5,5.25 L7.5,7.5 L16.5,7.5 L16.5,5.25 L18.75,5.25 L18.75,21 Z"/>
</svg>
