<svg xmlns="http://www.w3.org/2000/svg" width="24" height="24" viewBox="0 0 24 24">
  <g fill="none" fill-rule="evenodd">
    <path fill="#979797" fill-rule="nonzero" d="M11,5 L11,7 L7,7 L7,17 L17,17 L17,13 L19,13 L19,17.5 C19,18.3761424 18.3761424,19 17.5,19 L17.5,19 L6.5,19 C5.62385763,19 5,18.3761424 5,17.5 L5,17.5 L5,6.5 C5,5.62385763 5.62385763,5 6.5,5 L6.5,5 L11,5 Z M20,4 L20,10 L18,10 L18,7.406 L13.7,11.7071068 L12.2928932,10.3 L16.592,6 L14,6 L14,4 L20,4 Z" opacity=".15"/>
    <path fill="#8492A6" fill-rule="nonzero" d="M11,7 L11,5.25 L6.625,5.25 C5.81789322,5.25 5.25,5.81789322 5.25,6.625 L5.25,17.375 C5.25,18.1821068 5.81789322,18.75 6.625,18.75 L17.375,18.75 C18.1821068,18.75 18.75,18.1821068 18.75,17.375 L18.75,13 L17,13 L17,17 L7,17 L7,7 L11,7 Z"/>
    <polygon fill="#8492A6" fill-rule="nonzero" points="20 4 14 4 14 5.75 17.02 5.75 12.47 10.3 13.7 11.53 18.25 6.98 18.25 10 20 10"/>
  </g>
</svg>
