<svg xmlns="http://www.w3.org/2000/svg" width="24" height="24" viewBox="0 0 24 24">
  <path fill="#EFF2F7" d="M23.25,22.5 L21.75,22.5 L21.75,20.25 C21.75,19.0073593 20.7426407,18 19.5,18 L16.5,18 C15.2573593,18 14.25,19.0073593 14.25,20.25 L14.25,22.5 L12.75,22.5 L12.75,20.25 C12.75,18.1789322 14.4289322,16.5 16.5,16.5 L19.5,16.5 C21.5710678,16.5 23.25,18.1789322 23.25,20.25 L23.25,22.5 Z M18,9 C19.2426407,9 20.25,10.0073593 20.25,11.25 C20.25,12.4926407 19.2426407,13.5 18,13.5 C16.7573593,13.5 15.75,12.4926407 15.75,11.25 C15.75,10.0073593 16.7573593,9 18,9 L18,9 Z M18,7.5 C15.9289322,7.5 14.25,9.17893219 14.25,11.25 C14.25,13.3210678 15.9289322,15 18,15 C20.0710678,15 21.75,13.3210678 21.75,11.25 C21.75,9.17893219 20.0710678,7.5 18,7.5 L18,7.5 Z M11.25,16.5 L9.75,16.5 L9.75,14.25 C9.75,13.0073593 8.74264069,12 7.5,12 L4.5,12 C3.25735931,12 2.25,13.0073593 2.25,14.25 L2.25,16.5 L0.75,16.5 L0.75,14.25 C0.75,12.1789322 2.42893219,10.5 4.5,10.5 L7.5,10.5 C9.57106781,10.5 11.25,12.1789322 11.25,14.25 L11.25,16.5 Z M6,3 C7.24264069,3 8.25,4.00735931 8.25,5.25 C8.25,6.49264069 7.24264069,7.5 6,7.5 C4.75735931,7.5 3.75,6.49264069 3.75,5.25 C3.75,4.00735931 4.75735931,3 6,3 L6,3 Z M6,1.5 C3.92893219,1.5 2.25,3.17893219 2.25,5.25 C2.25,7.32106781 3.92893219,9 6,9 C8.07106781,9 9.75,7.32106781 9.75,5.25 C9.75,4.25543816 9.35491185,3.30161099 8.65165043,2.59834957 C7.94838901,1.89508815 6.99456184,1.5 6,1.5 Z"/>
</svg>
