<svg xmlns="http://www.w3.org/2000/svg" width="16" height="16" viewBox="0 0 16 16">
  <path fill="#F9FAFC" d="M8,12.2500167 C8.62132034,12.2500167 9.125,12.7536964 9.125,13.3750167 C9.125,13.996337 8.62132034,14.5000167 8,14.5000167 C7.37867966,14.5000167 6.875,13.996337 6.875,13.3750167 C6.875,12.7536964 7.37867966,12.2500167 8,12.2500167 Z M8.74999162,1.75000831 C10.613961,1.75000831 12.125,3.26105566 12.125,5.1250167 C12.125,6.98897773 10.613961,8.5000167 8.74999162,8.5000167 L8.74999162,8.5000167 L8.74999162,10.3750167 L7.24999162,10.3750167 L7.24999162,7.0000167 L8.74999162,7.0000167 C9.78553391,7.0000167 10.625,6.1605506 10.625,5.1250167 C10.625,4.08948279 9.78553391,3.25000831 8.74999162,3.25000831 L8.74999162,3.25000831 L7.625,3.25000831 C6.58946609,3.25000831 5.74999162,4.08948279 5.74999162,5.1250167 L5.74999162,5.1250167 L5.74999162,5.5000167 L4.24999162,5.5000167 L4.24999162,5.1250167 C4.24800285,4.22930029 4.60294082,3.36969496 5.23630954,2.73632624 C5.86967827,2.10295752 6.72928359,1.74801955 7.625,1.75000831 L7.625,1.75000831 Z"/>
</svg>
