<svg xmlns="http://www.w3.org/2000/svg" width="24" height="24" viewBox="0 0 24 24">
  <path fill="#EFF2F7" d="M12,1.5 C6.20101013,1.5 1.5,6.20101013 1.5,12 C1.5,17.7989899 6.20101013,22.5 12,22.5 C17.7989899,22.5 22.5,17.7989899 22.5,12 C22.5,9.21522686 21.3937532,6.54451077 19.4246212,4.5753788 C17.4554892,2.60624682 14.7847731,1.5 12,1.5 Z M12,21 C7.02943725,21 3,16.9705627 3,12 C3,7.02943725 7.02943725,3 12,3 C16.9705627,3 21,7.02943725 21,12 C21,16.9705627 16.9705627,21 12,21 L12,21 Z M8.625,8.25 C7.58946609,8.25 6.75,9.08946609 6.75,10.125 C6.75,11.1605339 7.58946609,12 8.625,12 C9.66053391,12 10.5,11.1605339 10.5,10.125 C10.5040367,9.62649255 10.3077891,9.14722997 9.95527959,8.79472041 C9.60277003,8.44221085 9.12350745,8.2459633 8.625,8.25 L8.625,8.25 Z M15.375,8.25 C14.3394661,8.25 13.5,9.08946609 13.5,10.125 C13.5,11.1605339 14.3394661,12 15.375,12 C16.4105339,12 17.25,11.1605339 17.25,10.125 C17.2540367,9.62649255 17.0577891,9.14722997 16.7052796,8.79472041 C16.35277,8.44221085 15.8735075,8.2459633 15.375,8.25 L15.375,8.25 Z M12,18 C14.1058211,17.9964395 16.0556359,16.8891724 17.1375,15.0825 L15.855,14.3325 C15.0408996,15.6844146 13.5781104,16.5110834 12,16.5110834 C10.4218896,16.5110834 8.95910038,15.6844146 8.145,14.3325 L6.8625,15.0825 C7.94436412,16.8891724 9.8941789,17.9964395 12,18 Z"/>
</svg>
