<svg xmlns="http://www.w3.org/2000/svg" width="24" height="24" viewBox="0 0 24 24">
  <path fill="#EFF2F7" d="M15.5991833,6.60081672 C17.3991833,6.60081672 18.7991306,8.30081672 18.7991306,9.90081672 C18.7991306,10.1518085 18.801729,14.9533956 18.7991306,15.2226197 C18.7847052,16.7172397 17.2909518,18.4008167 15.5991833,18.4008167 L8.39918328,18.4008167 L8.39918328,19.9008167 L15.5991833,19.9008167 C17.7912644,19.9008167 20.3805217,17.6173445 20.3991328,15.1278049 C20.4029216,14.6209941 20.3991328,10.1865528 20.3991328,9.80081672 C20.3991328,7.30081672 18.3991833,5.00081672 15.5991833,5.00081672 L4.19918328,5.00081672 L7.19918328,2.00081672 L6.19918328,1.10081672 L1.39918328,5.90081672 L6.19918328,10.7008167 L7.29918328,9.60081672 L4.29918328,6.60081672 C11.8325166,6.60081672 15.5991833,6.60081672 15.5991833,6.60081672 Z" transform="matrix(0 1 1 0 .4 -.4)"/>
</svg>
