<svg xmlns="http://www.w3.org/2000/svg" width="24" height="24" viewBox="0 0 24 24">
  <path fill="#EEF2F6" d="M8.62411165,8.03036165 C10.1416595,6.5128139 12.6020905,6.51281391 14.1196383,8.03036169 C15.6371861,9.54790947 15.6371861,12.0083405 14.1196383,13.5258883 L14.1196383,13.5258883 L12.7946383,14.8508883 L11.7297429,13.7872348 L13.0553146,12.4429087 C13.5035231,11.9942224 13.7536614,11.3849112 13.7500241,10.7475475 C13.7624237,10.1156822 13.5184398,9.50572237 13.0739063,9.05693247 C12.6281939,8.60914129 12.0224291,8.35739934 11.390625,8.35739934 C10.7588209,8.35739934 10.1530561,8.60914129 9.70713835,9.05713835 L9.70713835,9.05713835 L4.70693247,14.0573438 C4.25914129,14.5030561 4.00739934,15.1088209 4.00739934,15.740625 C4.00739934,16.3724291 4.25914129,16.9781939 4.70734375,17.4243175 C5.15305612,17.8721087 5.75882087,18.1238507 6.390625,18.1238507 C7.02242913,18.1238507 7.62819388,17.8721087 8.07390625,17.4243175 L8.07390625,17.4243175 L9.13801904,18.4887561 C8.4031522,19.2175202 7.40983251,19.6259881 6.37656298,19.6249902 C5.35026742,19.6378238 4.36080206,19.2429668 3.62436989,18.5261458 C2.89277098,17.7988032 2.48140329,16.8097568 2.48140329,15.778125 C2.48140329,14.7464932 2.89277098,13.7574468 3.62411165,13.0303617 L3.62411165,13.0303617 Z M17.625,4.99704287 C18.6550453,4.99704287 19.6427052,5.40714981 20.3694845,6.13645808 C21.8840677,7.64578256 21.8898481,10.0966728 20.3821383,11.6133883 L20.3821383,11.6133883 L15.3821944,16.6133323 C14.6514633,17.3449908 13.6585897,17.7542487 12.6257169,17.7501874 C11.5988718,17.7559506 10.6116719,17.3540849 9.88051524,16.6322917 C9.15089981,15.9052052 8.74079287,14.9175453 8.74079287,13.8875 C8.74079287,12.8574547 9.15089981,11.8697948 9.88036165,11.1428617 L9.88036165,11.1428617 L10.7678617,10.2553617 L11.8262001,11.3193255 L10.9447163,12.2070603 C10.344353,12.8084843 10.1104504,13.684513 10.3311172,14.5051548 C10.551784,15.3257967 11.1934958,15.9663767 12.0145259,16.1855945 C12.835556,16.4048124 13.7111704,16.1693637 14.3116117,15.5678617 L14.3116117,15.5678617 L19.3116117,10.5678617 C19.9130635,9.9664098 20.1479572,9.08977462 19.9278106,8.2681761 C19.7076639,7.44657759 19.0659224,6.80483609 18.2443239,6.58468944 C17.4227254,6.36454278 16.5460902,6.59943648 15.9446383,7.20088835 L15.9446383,7.20088835 L14.8802083,6.13676524 C15.6072948,5.40714981 16.5949547,4.99704287 17.625,4.99704287 Z"/>
</svg>
