<svg xmlns="http://www.w3.org/2000/svg" width="24" height="24" viewBox="0 0 24 24">
  <path fill="#EFF2F7" d="M12,12.25 C14.3472102,12.25 16.25,14.1527898 16.25,16.5 C16.25,18.8472102 14.3472102,20.75 12,20.75 C9.65278981,20.75 7.75,18.8472102 7.75,16.5 C7.75,14.1527898 9.65278981,12.25 12,12.25 Z M12,13.75 C10.4812169,13.75 9.25,14.9812169 9.25,16.5 C9.25,18.0187831 10.4812169,19.25 12,19.25 C13.5187831,19.25 14.75,18.0187831 14.75,16.5 C14.75,14.9812169 13.5187831,13.75 12,13.75 Z M21.3951505,4.55653969 L22.6048495,5.44346031 C20.1811822,8.74917676 16.2666314,10.75 12,10.75 C7.86767415,10.75 4.05062623,8.87329799 1.61410225,5.75924008 L1.3964328,5.472753 L2.6035672,4.58234492 C4.74469724,7.48509451 8.22006199,9.25 12,9.25 C15.6684978,9.25 19.0359723,7.58739653 21.1904681,4.82707538 L21.3951505,4.55653969 Z"/>
</svg>
