<svg xmlns="http://www.w3.org/2000/svg" width="24" height="24" viewBox="0 0 24 24">
  <path fill="#FFF" fill-rule="evenodd" d="M5.6325,19.5 C5.26777186,19.500631 4.90458244,19.4527101 4.5525,19.3575 C2.3541967,18.7306045 1.06093335,16.4607274 1.6425,14.25 L3.39,7.62 C3.66493205,6.53603509 4.36519844,5.60865528 5.3325,5.0475 C6.27421328,4.50205464 7.39506083,4.35620942 8.445,4.6425 C9.5621703,4.95273037 10.4980543,5.71721705 11.025,6.75 L12.975,6.75 C13.4997281,5.71543032 14.4365215,4.95020087 15.555,4.6425 C16.6049392,4.35620942 17.7257867,4.50205464 18.6675,5.0475 C19.6299145,5.60710981 20.3291481,6.52772237 20.61,7.605 L22.3575,14.25 C22.947933,16.4678294 21.6487413,18.7489294 19.44,19.3725 C18.3900608,19.6587906 17.2692133,19.5129454 16.3275,18.9675 C15.3633897,18.4098105 14.663547,17.488396 14.385,16.41 L14.25,15.75 L9.75,15.75 L9.5775,16.395 C9.29895304,17.473396 8.59911033,18.3948105 7.635,18.9525 C7.02560892,19.3039767 6.33594698,19.492536 5.6325,19.5 Z M7.3725,6 C6.91990436,6.00153742 6.47544086,6.12040556 6.0825,6.345 C5.46664021,6.70633637 5.01898796,7.29691374 4.8375,7.9875 L3.09,14.6175 C2.70960444,16.0384329 3.53663001,17.5024016 4.95,17.91 C5.61277344,18.0907872 6.3203245,17.9989676 6.915,17.655 C7.53424543,17.2974878 7.98310881,16.7053126 8.16,16.0125 L8.625,14.25 L15.375,14.25 L15.8325,16.0125 C16.0124762,16.7038206 16.4605247,17.2949207 17.0775,17.655 C17.6750397,17.9985939 18.3847274,18.0903406 19.05,17.91 C20.4657547,17.5060059 21.292124,16.0372767 20.9025,14.6175 L19.155,7.9875 C18.9791243,7.29635984 18.5333293,6.70466824 17.9175,6.345 C17.3199603,6.00140615 16.6102726,5.90965945 15.945,6.09 C15.1185055,6.32559682 14.4565558,6.94565097 14.1675,7.755 L13.9875,8.25 L10.0125,8.25 L9.8325,7.755 C9.54087551,6.94458239 8.87622146,6.32461096 8.0475,6.09 C7.82739596,6.03065047 7.60046492,6.000393 7.3725,6 L7.3725,6 Z M7.5,12 C6.67157288,12 6,11.3284271 6,10.5 C6,9.67157288 6.67157288,9 7.5,9 C8.32842712,9 9,9.67157288 9,10.5 C9,11.3284271 8.32842712,12 7.5,12 Z M16.5,9.75 C16.9142136,9.75 17.25,9.41421356 17.25,9 C17.25,8.58578644 16.9142136,8.25 16.5,8.25 C16.0857864,8.25 15.75,8.58578644 15.75,9 C15.75,9.41421356 16.0857864,9.75 16.5,9.75 Z M16.5,12.75 C16.9142136,12.75 17.25,12.4142136 17.25,12 C17.25,11.5857864 16.9142136,11.25 16.5,11.25 C16.0857864,11.25 15.75,11.5857864 15.75,12 C15.75,12.4142136 16.0857864,12.75 16.5,12.75 Z M15,11.25 C15.4142136,11.25 15.75,10.9142136 15.75,10.5 C15.75,10.0857864 15.4142136,9.75 15,9.75 C14.5857864,9.75 14.25,10.0857864 14.25,10.5 C14.25,10.9142136 14.5857864,11.25 15,11.25 Z M18,11.25 C18.4142136,11.25 18.75,10.9142136 18.75,10.5 C18.75,10.0857864 18.4142136,9.75 18,9.75 C17.5857864,9.75 17.25,10.0857864 17.25,10.5 C17.25,10.9142136 17.5857864,11.25 18,11.25 Z"/>
</svg>
