<svg xmlns="http://www.w3.org/2000/svg" width="24" height="24" viewBox="0 0 24 24">
  <path fill="#EFF2F7" d="M7.125,6 L15.075,6 C15.4600235,7.88622241 17.210774,9.17450215 19.1261432,8.98101057 C21.0415124,8.78751899 22.4992346,7.17511769 22.4992346,5.25 C22.4992346,3.32488231 21.0415124,1.71248101 19.1261432,1.51898943 C17.210774,1.32549785 15.4600235,2.61377759 15.075,4.5 L7.125,4.5 C4.84682541,4.5 3,6.34682541 3,8.625 C3,10.9031746 4.84682541,12.75 7.125,12.75 L15.375,12.75 C16.8247475,12.75 18,13.9252525 18,15.375 C18,16.8247475 16.8247475,18 15.375,18 L8.925,18 C8.53997646,16.1137776 6.78922597,14.8254978 4.87385678,15.0189894 C2.95848759,15.212481 1.50076539,16.8248823 1.50076539,18.75 C1.50076539,20.6751177 2.95848759,22.287519 4.87385678,22.4810106 C6.78922597,22.6745022 8.53997646,21.3862224 8.925,19.5 L15.375,19.5 C17.6531746,19.5 19.5,17.6531746 19.5,15.375 C19.5,13.0968254 17.6531746,11.25 15.375,11.25 L7.125,11.25 C5.67525255,11.25 4.50000006,10.0747474 4.50000006,8.625 C4.50000006,7.17525255 5.67525255,6.00000003 7.125,6 Z M18.75,3 C19.9926407,3 21,4.00735931 21,5.25 C21,6.49264069 19.9926407,7.5 18.75,7.5 C17.5073593,7.5 16.5,6.49264069 16.5,5.25 C16.5,4.00735931 17.5073593,3 18.75,3 L18.75,3 Z M5.25,21 C4.00735931,21 3,19.9926407 3,18.75 C3,17.5073593 4.00735931,16.5 5.25,16.5 C6.49264069,16.5 7.5,17.5073593 7.5,18.75 C7.5,19.9926407 6.49264069,21 5.25,21 L5.25,21 Z"/>
</svg>
