<svg xmlns="http://www.w3.org/2000/svg" width="24" height="24" viewBox="0 0 24 24">
  <path fill="#EFF2F7" d="M19.5,4.5 L4.3725,4.5 L7.0575,1.8075 L6,0.75 L1.5,5.25 L6,9.75 L7.0575,8.6925 L4.3725,6 L19.5,6 L19.5,11.25 L21,11.25 L21,6 C21,5.17157288 20.3284271,4.5 19.5,4.5 Z M16.9425,15.3075 L19.6275,18 L4.5,18 L4.5,12.75 L3,12.75 L3,18 C3,18.8284271 3.67157288,19.5 4.5,19.5 L19.6275,19.5 L16.9425,22.1925 L18,23.25 L22.5,18.75 L18,14.25 L16.9425,15.3075 Z" transform="matrix(0 1 1 0 0 0)"/>
</svg>
