<svg xmlns="http://www.w3.org/2000/svg" width="24" height="24" viewBox="0 0 24 24">
  <path fill="#FFF" fill-rule="evenodd" d="M12,1.5 C6.20101013,1.5 1.5,6.20101013 1.5,12 C1.5,17.7989899 6.20101013,22.5 12,22.5 C17.7989899,22.5 22.5,17.7989899 22.5,12 C22.5,9.21522686 21.3937532,6.54451077 19.4246212,4.5753788 C17.4554892,2.60624682 14.7847731,1.5 12,1.5 Z M12,21 C7.02943725,21 3,16.9705627 3,12 C3,7.02943725 7.02943725,3 12,3 C16.9705627,3 21,7.02943725 21,12 C21,16.9705627 16.9705627,21 12,21 L12,21 Z M8.625,8.25 C7.58946609,8.25 6.75,9.08946609 6.75,10.125 C6.75,11.1605339 7.58946609,12 8.625,12 C9.66053391,12 10.5,11.1605339 10.5,10.125 C10.5,9.62771908 10.3024559,9.15080549 9.95082521,8.79917479 C9.59919451,8.44754408 9.12228092,8.25 8.625,8.25 L8.625,8.25 Z M15.375,8.25 C14.3394661,8.25 13.5,9.08946609 13.5,10.125 C13.5,11.1605339 14.3394661,12 15.375,12 C16.4105339,12 17.25,11.1605339 17.25,10.125 C17.25,9.08946609 16.4105339,8.25 15.375,8.25 L15.375,8.25 Z M12,14.25 C9.8941789,14.2535605 7.94436412,15.3608276 6.8625,17.1675 L8.145,17.9175 C8.95910038,16.5655854 10.4218896,15.7389166 12,15.7389166 C13.5781104,15.7389166 15.0408996,16.5655854 15.855,17.9175 L17.1375,17.1675 C16.0556359,15.3608276 14.1058211,14.2535605 12,14.25 Z"/>
</svg>
