<svg xmlns="http://www.w3.org/2000/svg" width="24" height="24" viewBox="0 0 24 24">
  <path fill="#FFF" d="M16,1 C16.8284271,1 17.5,1.67157288 17.5,2.5 L17.5,4 L19,4 C19.8284271,4 20.5,4.67157288 20.5,5.5 L20.5,20.5 C20.5,21.3284271 19.8284271,22 19,22 L8,22 C7.17157288,22 6.5,21.3284271 6.5,20.5 L6.5,19 L5,19 C4.17157288,19 3.5,18.3284271 3.5,17.5 L3.5,2.5 C3.5,1.67157288 4.17157288,1 5,1 L16,1 Z M19,5.5 L17.5,5.5 L17.5,17.5 C17.5,18.3284271 16.8284271,19 16,19 L8,19 L8,20.5 L19,20.5 L19,5.5 Z M16,2.5 L5,2.5 L5,17.5 L16,17.5 L16,2.5 Z M6.5,8.75 L11.5,8.75 L11.5,10.25 L6.5,10.25 L6.5,8.75 Z M6.5,5 L14.5,5 L14.5,6.5 L6.5,6.5 L6.5,5 Z M6.5,12.5 L9.25,12.5 L9.25,14 L6.5,14 L6.5,12.5 Z"/>
</svg>
