<svg xmlns="http://www.w3.org/2000/svg" width="24" height="24" viewBox="0 0 24 24">
  <path fill="#EFF2F7" d="M19.5,4.5 L19.5,6.1275 L4.23,8.9025 C3.50836121,9.034451 2.98803562,9.6689944 3,10.4025 L3,13.6575 C2.98803562,14.3910056 3.50836121,15.025549 4.23,15.1575 L6,15.42 L6,18 C6,18.8284271 6.67157288,19.5 7.5,19.5 L13.5,19.5 C14.3284271,19.5 15,18.8284271 15,18 L15,17.055 L19.5,17.8725 L19.5,19.5 L21,19.5 L21,4.5 L19.5,4.5 Z M13.5,18 L7.5,18 L7.5,15.6975 L13.5,16.785 L13.5,18 Z M4.5,13.6275 L4.5,10.3725 L19.5,7.65 L19.5,16.35 L4.5,13.6275 Z"/>
</svg>
