<svg xmlns="http://www.w3.org/2000/svg" width="24" height="24" viewBox="0 0 24 24">
  <path fill="#EFF2F7" d="M12.5,18 C13.3284271,18 14,18.6715729 14,19.5 C14,20.3284271 13.3284271,21 12.5,21 C11.6715729,21 11,20.3284271 11,19.5 C11,18.6715729 11.6715729,18 12.5,18 Z M12.5,3.25 C15.8652756,3.25 18.25,4.83981624 18.25,8 C18.25,10.7628854 16.0725549,12.4000771 13.4050165,12.6998866 L13.25,12.714 L13.25,15.75 L11.75,15.75 L11.75,11.25 L12.5,11.25 C14.8382038,11.25 16.75,10.0551274 16.75,8 C16.75,5.82685043 15.1347244,4.75 12.5,4.75 C9.94761077,4.75 8.35195028,5.76059889 8.25471407,7.79947845 L8.25,8 L8.25,8.75 L6.75,8.75 L6.75,8 C6.75,4.83981624 9.13472436,3.25 12.5,3.25 Z"/>
</svg>
