<svg xmlns="http://www.w3.org/2000/svg" width="24" height="24" viewBox="0 0 24 24">
  <path fill="#EFF2F7" d="M12.1904906,22 C13.2161601,22 14.0476295,21.1704111 14.0476295,20.1470612 C14.0476295,19.1237114 13.2161601,18.2941225 12.1904906,18.2941225 C11.1648211,18.2941225 10.3333517,19.1237114 10.3333517,20.1470612 C10.3333517,21.1704111 11.1648211,22 12.1904906,22 Z M13.4285832,1.00001369 L11.5714443,1.00001369 C10.0928045,0.996738086 8.67377649,1.58134103 7.62821764,2.62453521 C6.58265879,3.66772938 5.99673069,5.08354806 6.00001372,6.55884375 L6.00001372,7.17649 L8.47621279,7.17649 L8.47621279,6.55884375 C8.47621279,4.85326073 9.86199515,3.4706125 11.5714443,3.4706125 L13.4285832,3.4706125 C15.1380324,3.4706125 16.5238148,4.85326073 16.5238148,6.55884375 C16.5238148,8.26442677 15.1380324,9.647075 13.4285832,9.647075 L10.952398,9.647075 L10.952398,15.2058912 L13.4285832,15.2058912 L13.4285832,12.11766 C16.5055918,12.11766 19,9.62889319 19,6.55884375 C19,3.48879431 16.5055918,1.00001369 13.4285832,1.00001369 Z"/>
</svg>
