<svg xmlns="http://www.w3.org/2000/svg" width="24" height="24" viewBox="0 0 24 24">
  <path fill="#FFF" fill-rule="evenodd" d="M12,1.5 C6.20101013,1.5 1.5,6.20101013 1.5,12 C1.5,17.7989899 6.20101013,22.5 12,22.5 C17.7989899,22.5 22.5,17.7989899 22.5,12 C22.5,9.21522686 21.3937532,6.54451077 19.4246212,4.5753788 C17.4554892,2.60624682 14.7847731,1.5 12,1.5 Z M12,21 C7.02943725,21 3,16.9705627 3,12 C3,7.02943725 7.02943725,3 12,3 C16.9705627,3 21,7.02943725 21,12 C21,16.9705627 16.9705627,21 12,21 L12,21 Z M18.3075,8.25 L17.25,7.1925 L15.75,8.6925 L14.25,7.1925 L13.1925,8.25 L14.6925,9.75 L13.1925,11.25 L14.25,12.3075 L15.75,10.8075 L17.25,12.3075 L18.3075,11.25 L16.8075,9.75 L18.3075,8.25 Z M10.8075,8.25 L9.75,7.1925 L8.25,8.6925 L6.75,7.1925 L5.6925,8.25 L7.1925,9.75 L5.6925,11.25 L6.75,12.3075 L8.25,10.8075 L9.75,12.3075 L10.8075,11.25 L9.3075,9.75 L10.8075,8.25 Z M12,14.25 C10.7573593,14.25 9.75,15.2573593 9.75,16.5 C9.75,17.7426407 10.7573593,18.75 12,18.75 C13.2426407,18.75 14.25,17.7426407 14.25,16.5 C14.25,15.2573593 13.2426407,14.25 12,14.25 Z"/>
</svg>
