<svg xmlns="http://www.w3.org/2000/svg" width="24" height="24" viewBox="0 0 24 24">
  <path fill="#EFF2F7" d="M13.5,21 L10.5,21 C9.67157288,21 9,20.3284271 9,19.5 L9,13.8075 L3.4425,8.25 C3.16080916,7.96998728 3.00167459,7.58968264 3,7.1925 L3,4.5 C3,3.67157288 3.67157288,3 4.5,3 L19.5,3 C20.3284271,3 21,3.67157288 21,4.5 L21,7.1925 C20.9983254,7.58968264 20.8391908,7.96998728 20.5575,8.25 L15,13.8075 L15,19.5 C15,20.3284271 14.3284271,21 13.5,21 Z M4.5,4.5 L4.5,7.1925 L10.5,13.1925 L10.5,19.5 L13.5,19.5 L13.5,13.1925 L19.5,7.1925 L19.5,4.5 L4.5,4.5 Z"/>
</svg>
