<svg xmlns="http://www.w3.org/2000/svg" width="24" height="24" viewBox="0 0 24 24">
  <path fill="#EFF2F7" d="M17.3438051,4.1154679 C18.6776946,5.31650744 18.7853908,7.3714735 17.5843513,8.70536305 C17.4925389,8.80733108 17.3869444,8.90563025 17.2674215,9.00046086 L19.5,9 C20.3280844,9.00082684 20.9991732,9.67191561 21,10.5 L21,18.50375 C20.9987609,19.3316633 20.3279133,20.0025109 19.5,20.00375 L4.5,20.00375 C3.67191561,20.0029232 3.00082684,19.3318344 3,18.50375 L3,10.5 C3.00082684,9.67191561 3.67191561,9.00082684 4.5,9 L6.7325785,9.00046086 C6.61305562,8.90563025 6.50746113,8.80733108 6.41564871,8.70536305 C5.21460916,7.3714735 5.32230537,5.31650744 6.65619492,4.1154679 C7.99008447,2.91442835 10.0450505,3.02212456 11.2460901,4.35601411 C11.5516278,4.69534813 11.8008029,5.18222935 12.0003933,5.82279261 C12.1991971,5.18222935 12.4483722,4.69534813 12.7539099,4.35601411 C13.9549495,3.02212456 16.0099155,2.91442835 17.3438051,4.1154679 Z M9,10.4996609 L4.5,10.5 L4.5,18.50375 L9,18.5036609 L9,10.4996609 Z M15,10.4996609 L15,18.5036609 L19.5,18.50375 L19.5,10.5 L15,10.4996609 Z M13.5,10.5 L10.5,10.5 L10.5,18.5 L13.5,18.5 L13.5,10.5 Z M13.8686272,5.35971002 C13.5096102,5.75843879 13.2140549,6.78541368 13.0329639,8.39447135 L13.0003632,8.70297967 L12.9762781,8.96609798 L13.2354375,8.91464155 C14.7972197,8.59242598 15.8350953,8.21992809 16.314964,7.84382768 L16.4034875,7.7685734 L16.4696341,7.70166714 C17.1163477,6.98341892 17.0583574,5.87689874 16.3401092,5.23018513 C15.6218609,4.58347153 14.5153408,4.6414618 13.8686272,5.35971002 Z M7.65989083,5.23018513 C6.94164261,5.87689874 6.88365235,6.98341892 7.53036595,7.70166714 C7.88938295,8.10039592 8.87983803,8.50168017 10.4611519,8.8499715 L10.7645625,8.91464155 L11.0237219,8.96609798 L10.9996368,8.70297967 C10.8424371,7.1160724 10.5804673,6.04494568 10.2565872,5.52839263 L10.1909984,5.43248783 L10.1313728,5.35971002 C9.48465924,4.6414618 8.37813905,4.58347153 7.65989083,5.23018513 Z"/>
</svg>
