<svg xmlns="http://www.w3.org/2000/svg" width="24" height="24" viewBox="0 0 24 24">
  <path fill="#EFF2F7" d="M15,4.49999905 C13.9671102,4.49947936 12.9454274,4.71403274 12,5.13 C11.0545726,4.71403274 10.0328898,4.49947936 9,4.49999905 C4.85786438,4.49999905 1.5,7.85786438 1.5,11.9999991 C1.5,16.1421356 4.85786438,19.4999991 9,19.4999991 C10.0328898,19.5005206 11.0545726,19.2859673 12,18.87 C12.9454274,19.2859673 13.9671102,19.5005206 15,19.4999991 C19.1421356,19.4999991 22.5,16.1421356 22.5,11.9999991 C22.5,7.85786438 19.1421356,4.49999905 15,4.49999905 Z M9,18 C5.6862915,18 3,15.3137085 3,12 C3,8.6862915 5.6862915,6 9,6 C9.44422828,6.00042118 9.88700379,6.05073658 10.32,6.15 C8.54571531,7.57347565 7.51334635,9.72527604 7.51334635,12 C7.51334635,14.274724 8.54571531,16.4265243 10.32,17.85 C9.88700379,17.9492634 9.44422828,17.9995788 9,18 Z M15,12 C14.9978036,14.1413952 13.8545042,16.119303 12,17.19 C10.149587,16.1166067 9.01063116,14.1392058 9.01063116,12 C9.01063116,9.86079418 10.149587,7.88339328 12,6.81 C13.8545042,7.88069702 14.9978036,9.85860483 15,12 Z M15,18 C14.5557717,17.9995788 14.1129962,17.9492634 13.68,17.85 C15.4542847,16.4265243 16.4866536,14.274724 16.4866536,12 C16.4866536,9.72527604 15.4542847,7.57347565 13.68,6.15 C14.1129962,6.05073658 14.5557717,6.00042118 15,6 C18.3137085,6 21,8.6862915 21,12 C21,15.3137085 18.3137085,18 15,18 L15,18 Z"/>
</svg>
