<svg xmlns="http://www.w3.org/2000/svg" width="24" height="24" viewBox="0 0 24 24">
  <path fill="#EFF2F7" d="M5,9.25 C4.17191561,9.25082684 3.50082684,9.92191561 3.5,10.75 L3.5,17.75 C3.50247959,19.8200399 5.17996014,21.4975204 7.25,21.5 L15.25,21.5 C17.3200399,21.4975204 18.9975204,19.8200399 19,17.75 L19,16 L19.375,16 C21.238961,16 22.75,14.488961 22.75,12.625 C22.75,10.761039 21.238961,9.25 19.375,9.25 L5,9.25 Z M17.5,17.75 C17.4987597,18.9921266 16.4921266,19.9987597 15.25,20 L7.25,20 C6.00787341,19.9987597 5.00124027,18.9921266 5,17.75 L5,10.75 L17.5,10.75 L17.5,17.75 Z M19.375,10.75 C20.4105339,10.75 21.25,11.5894661 21.25,12.625 C21.25,13.6605339 20.4105339,14.5 19.375,14.5 L19,14.5 L19,10.75 L19.375,10.75 Z M10.75,2 C10.75,3.22284918 11.1568054,3.64892152 12.5514119,4.1593909 L12.9097474,4.28610121 C14.8529246,4.96326904 15.6874461,5.62839778 15.7465969,7.30232014 L15.75,7.5 L14.25,7.5 C14.25,6.56138501 13.9250532,6.24597637 12.6107011,5.77150481 L12.2522372,5.64539377 C10.2401863,4.94117594 9.31689821,4.13554864 9.25351545,2.21772035 L9.25,2 L10.75,2 Z"/>
</svg>
