<svg xmlns="http://www.w3.org/2000/svg" width="24" height="24" viewBox="0 0 24 24">
  <path fill="#FFF" fill-rule="evenodd" d="M6,7.5 L12,7.5 L12,9 L6,9 L6,7.5 Z M6,4.5 L15,4.5 L15,6 L6,6 L6,4.5 Z M6,1.5 L15,1.5 L15,3 L6,3 L6,1.5 Z M3.53325,21 L7.7565,13.503 L13.332,18.3705 C13.6734254,18.6743149 14.134735,18.8058991 14.5850622,18.7279241 C15.0353895,18.6499491 15.4256012,18.3709226 15.645,17.97 L20.8725,10.16775 L19.62675,9.33225 L14.37675,17.16825 L14.32425,17.2455 L8.748,12.378 C8.40671715,12.0759491 7.94676649,11.9451605 7.49761706,12.0224492 C7.04846763,12.0997379 6.65868979,12.376746 6.438,12.7755 L3,18.88725 L3,1.5 L1.5,1.5 L1.5,21 C1.50082684,21.8280844 2.17191561,22.4991732 3,22.5 L22.5,22.5 L22.5,21 L3.53325,21 Z"/>
</svg>
