<svg xmlns="http://www.w3.org/2000/svg" width="24" height="24" viewBox="0 0 24 24">
  <path fill="#FFF" fill-rule="evenodd" d="M4.5,12.5 L10.5,12.5 L10.5,14 L4.5,14 L4.5,12.5 Z M4.5,8.75 L13.5,8.75 L13.5,10.25 L4.5,10.25 L4.5,8.75 Z M4.5,16.25 L8.25,16.25 L8.25,17.75 L4.5,17.75 L4.5,16.25 Z M15.75,2.75 L13.5,2.75 L13.5,2 C13.5,1.17157288 12.8284271,0.5 12,0.5 L6,0.5 C5.17157288,0.5 4.5,1.17157288 4.5,2 L4.5,2.75 L2.25,2.75 C1.42157288,2.75 0.75,3.42157288 0.75,4.25 L0.75,20 C0.75,20.8284271 1.42157288,21.5 2.25,21.5 L15.75,21.5 C16.5784271,21.5 17.25,20.8284271 17.25,20 L17.25,4.25 C17.25,3.42157288 16.5784271,2.75 15.75,2.75 Z M6,2 L12,2 L12,5 L6,5 L6,2 Z M15.75,20 L2.25,20 L2.25,4.25 L4.5,4.25 L4.5,6.5 L13.5,6.5 L13.5,4.25 L15.75,4.25 L15.75,20 Z" transform="translate(3 1)"/>
</svg>
