<svg height="32" viewBox="0 0 32 32" width="32" xmlns="http://www.w3.org/2000/svg" xmlns:xlink="http://www.w3.org/1999/xlink"><linearGradient id="a" x1="63.959268%" x2="39.180104%" y1="65.838954%" y2="42.620513%"><stop offset="0" stop-color="#fff" stop-opacity=".76"/><stop offset=".4631" stop-color="#fff" stop-opacity=".76"/><stop offset="1" stop-color="#fff" stop-opacity=".56"/></linearGradient><linearGradient id="b" x1="70.592383%" x2="33.049425%" y1="73.383973%" y2="38.2966%"><stop offset="0" stop-color="#fff" stop-opacity=".64"/><stop offset=".9064" stop-color="#fff" stop-opacity=".32"/><stop offset="1" stop-color="#fff" stop-opacity="0"/></linearGradient><linearGradient id="c" x1="67.498965%" x2="26.122118%" y1="34.165051%" y2="72.935636%"><stop offset="0" stop-color="#fff" stop-opacity="0"/><stop offset="1" stop-color="#fff" stop-opacity=".5"/></linearGradient><linearGradient id="d" x1="62.257533%" x2="28.070207%" y1="39.334262%" y2="71.285434%"><stop offset="0" stop-color="#fff" stop-opacity=".08"/><stop offset="1" stop-color="#fff" stop-opacity=".5"/></linearGradient><g fill="none" fill-rule="nonzero"><path d="m20.5217815 4.53087174c1.0810241 1.74588269 1.0810241 3.96128476 0 5.70716746-3.2332891 5.2224533-6.466202 10.4452864-9.6991149 15.6677397 1.1306917 4.6169405 7.2025627 5.5943461 9.6991149 1.560886 1.7778764-2.8714376 3.5553764-5.7424954 5.3332528-8.6143128 1.0806477-1.7462626 1.0806477-3.9612848 0-5.7071675-1.7778764-2.8710578-3.5553764-5.74287524-5.3332528-8.61431286z" fill="url(#a)"/><path d="m21.4884195 25.9057789c.7871571 3.2148402 4.2352965 4.9569242 7.255993 3.665366 3.0206966-1.2915581 4.1818662-5.0032683 2.4431219-7.8112676-1.7778763-2.8714376-3.5553764-5.7428752-5.3328764-8.6143128 1.0806478 1.7458827 1.0806478 3.9609049 0 5.7071674-1.4550366 2.3506358-2.9108257 4.7016515-4.3662385 7.053047z" fill="url(#b)"/><path d="m20.5217815 4.53087174c1.0810241 1.74588269 1.0810241 3.96128476 0 5.70716746-3.2332891 5.2224533-6.466202 10.4452864-9.6991149 15.6677397 1.1306917 4.6169405 7.2025627 5.5943461 9.6991149 1.560886 1.7778764-2.8714376 3.5553764-5.7424954 5.3332528-8.6143128 1.0806477-1.7462626 1.0806477-3.9612848 0-5.7071675-1.7778764-2.8710578-3.5553764-5.74287524-5.3332528-8.61431286z" fill="url(#c)"/><path d="m21.4884195 25.9057789c.7871571 3.2148402 4.2352965 4.9569242 7.255993 3.665366 3.0206966-1.2915581 4.1818662-5.0032683 2.4431219-7.8112676-1.7778763-2.8714376-3.5553764-5.7428752-5.3328764-8.6143128 1.0806478 1.7458827 1.0806478 3.9609049 0 5.7071674-1.4550366 2.3506358-2.9108257 4.7016515-4.3662385 7.053047z" fill="url(#d)" opacity=".8"/><path d="m9.85565235 27.4666649c-1.56076847 2.5219572-4.8512507 3.2881551-7.34855551 1.7124541-2.49768107-1.5760807-3.25661791-4.8980442-1.69584944-7.4192417 3.55537639-5.7428752 7.11037652-11.4857505 10.6661292-17.22862569 1.5607685-2.52157731 4.8512507-3.28815505 7.3485555-1.71207426s3.2569942 4.8976644 1.6958494 7.41924175c-3.5550001 5.7424953-7.1103765 11.4857504-10.66612915 17.2282458z" fill="#fff"/></g></svg>