<svg xmlns="http://www.w3.org/2000/svg" width="24" height="24" viewBox="0 0 24 24">
  <path fill="#EFF2F7" d="M10.9819693,5 C14.2857198,5 16.9639387,7.67821889 16.9639387,10.9819693 C16.9639387,12.2579843 16.5644144,13.4406855 15.8836342,14.4118044 L19,17.5287335 L17.5287335,19 L14.4118044,15.8836342 C13.4406855,16.5644144 12.2579843,16.9639387 10.9819693,16.9639387 C7.67821889,16.9639387 5,14.2857198 5,10.9819693 C5,7.67821889 7.67821889,5 10.9819693,5 Z M10.9819693,6.56051374 C8.54006683,6.56051374 6.56051374,8.54006683 6.56051374,10.9819693 C6.56051374,13.4238718 8.54006683,15.4034249 10.9819693,15.4034249 C13.4238718,15.4034249 15.4034249,13.4238718 15.4034249,10.9819693 C15.4034249,8.54006683 13.4238718,6.56051374 10.9819693,6.56051374 Z M11.5,8.5 L11.5,10.5 L13.5,10.5 L13.5,11.5 L11.5,11.5 L11.5,13.5 L10.5,13.5 L10.5,11.5 L8.5,11.5 L8.5,10.5 L10.5,10.5 L10.5,8.5 L11.5,8.5 Z"/>
</svg>
