<svg height="840" viewBox="0 0 2000 840" width="2000" xmlns="http://www.w3.org/2000/svg"><svg height="89" viewBox="0 0 221 89" width="221" x="457.4" xmlns="http://www.w3.org/2000/svg" y="427.8"><path d="m59.5 50c-14.5-9.5-37.5-33.7-20-44s23.3 21 20 44" fill="#ccc" opacity=".5"/><path d="m25 37.3c4.5-5.7 14-18 7.8-25.8-4-4.8-10-1.4-11.3 3.6a1.7 1.7 0 0 0 3.3 1c1-3 4.3-5 6-1.3 2.7 6.6-4.7 15.7-8.4 20.2-1.4 1.6 1 4 2.5 2.3z" fill="#1d1d1b"/><path d="m20 37.3c1.7-7.3 4-22.3-5-26.3-6-2.6-9.6 3.3-8.4 8.4.5 2 3.8 1.2 3.3-1-.8-3 1.2-6 4.3-3.8 5.8 4.2 3.6 16.2 2.5 21.8-.4 2.2 3 3 3.3 1z" fill="#1d1d1b"/><path d="m22.4 31c16.5.8 12 16.6 4.3 22-5.4 3.5-17.4 5.5-22.2-3.3s8.8-19.3 18-18.8z" fill="#ffe448"/><path d="m26.4 50.6c6.3 13.8 33.4 37.6 57.3 25-3-20.8-19-48-54.8-30.3z" fill="#ffe448"/><path d="m40.8 41.5a24.5 24.5 0 0 1 -8.6 18c1.5 2.4 6.8 7 6.8 7 5.7-4.4 11-14.6 10-27a70 70 0 0 0 -8 1m37.4 17.8a65 65 0 0 1 3.8 8.3c4 13-9 13.3-14.8 12.6 13.6-5.7 11-21 11-21zm-9-12c1.2 13.8-3.2 23-13.7 30.2 0 0-6-2-9-4.6 10.4-6.5 13-31.2 13-31.2s6.4 2.7 9.6 5.5z" fill="#475251"/><path d="m78.8 77.8 11.7 2-8.7-9.6-3 7.5z" fill="#475251"/><path d="m63 50.2c-2.6-17.2 0-50.6 19-44.4s0 31.4-19 44.4" fill="#ccc" opacity=".5"/><circle cx="23.6" cy="39.4" fill="#1d1d1b" r="3.1" transform="matrix(.0078539 -.99996916 .99996916 .0078539 -15.949958 62.610277)"/><path d="m113 84.5c-1.5 0-3.2 0-5-.2a1 1 0 0 1 -.8-1 1 1 0 0 1 1-1c1.6.2 3.3.3 5 .3h.8a1 1 0 0 1 0 2zm8.8-.6a1 1 0 0 1 0-2 35 35 0 0 0 5.5-1.4 1 1 0 0 1 .6 2 37 37 0 0 1 -6 1.3zm-21.5-.5-6-1a1 1 0 0 1 .4-2c1.8.4 3.7.8 5.8 1a1 1 0 0 1 -.2 2zm34-4.6a1 1 0 0 1 -.5-1.8 35.6 35.6 0 0 0 4-4 1 1 0 1 1 1.6 1.3 38 38 0 0 1 -4.4 4.2 1 1 0 0 1 -.6.2zm9-10.5a1 1 0 0 1 -1-1.5 38 38 0 0 0 2.6-5.2 1 1 0 1 1 1.7.8 40 40 0 0 1 -2.6 5.6 1 1 0 0 1 -.8.5zm10.4-9.8a1 1 0 0 1 0-2 55 55 0 0 0 5.6-.7 1 1 0 1 1 .4 2 56.7 56.7 0 0 1 -6 .7zm-8-.2a29.6 29.6 0 0 1 -5.4-1.2l-.5-.2a1 1 0 1 1 .7-1.7h.4a27.6 27.6 0 0 0 5 1.3 1 1 0 0 1 0 2zm21.5-2.3a1 1 0 0 1 -.3-2c2-.5 3.7-1 5.4-1.7a1 1 0 1 1 .7 2l-5.6 1.6a1 1 0 0 1 -.2.2zm-19.4-.6a1 1 0 0 1 -1-1c.3-1.3.4-2.5.5-3.7v-2.2a1 1 0 0 1 1-1 1 1 0 0 1 1 1v2.5a37 37 0 0 1 -.5 3.8 1 1 0 0 1 -1 .8zm-14.4-2.4a1 1 0 0 1 -.7-.2 22 22 0 0 1 -4-4.5 1 1 0 1 1 1.5-1 20 20 0 0 0 3.8 4 1 1 0 0 1 -.6 1.7zm46.6-2a1 1 0 0 1 -.5-1.7c1-.5 2-1 2.8-1.6l2-1.6a1 1 0 1 1 1.2 1.6l-2.2 1.5q-1.4 1-3 1.7a1 1 0 0 1 -.3 0zm11-8a1 1 0 0 1 -.7-1.8c1.3-1.2 2.6-2.6 4-4.2a1 1 0 0 1 1.5 1.3l-4 4.4a1 1 0 0 1 -1 0zm-44-1a1 1 0 0 1 -1-.6 20 20 0 0 0 -2.4-5 1 1 0 1 1 1.6-1 22 22 0 0 1 2.7 5.4 1 1 0 0 1 -.7 1.2 1 1 0 0 1 -.3 0zm-20.3-.3a1 1 0 0 1 -1-1 15.5 15.5 0 0 1 0-1.7v-1a12.7 12.7 0 0 1 .6-3.5 1 1 0 1 1 2 .7 10.7 10.7 0 0 0 -.7 3v1a13.4 13.4 0 0 0 0 1.4 1 1 0 0 1 -.8 1zm73.2-9a1 1 0 0 1 -.7-.2 1 1 0 0 1 -.2-1.4q2-2.2 3.6-4.6a1 1 0 1 1 1.6 1l-3.5 5a1 1 0 0 1 -.8.3zm-61.4-1a1 1 0 0 1 -.4 0 11.5 11.5 0 0 0 -2-.7 8 8 0 0 0 -3.2-.2 1 1 0 0 1 -.3-2 10 10 0 0 1 4 .3 13.6 13.6 0 0 1 2.3.8 1 1 0 0 1 -.4 2zm69-10.4a1 1 0 0 1 -.8-1.5l3-5a1 1 0 1 1 1.6 1l-3 5a1 1 0 0 1 -.8.6zm6.5-12a1 1 0 0 1 -.8-1.4l2.4-5.5a1 1 0 0 1 1.8.8q-1 2.7-2.4 5.4a1 1 0 0 1 -1 .6z" fill="#475251"/></svg><svg height="114.7" viewBox="0 0 82.67 114.67" width="82.7" x="457.4" xmlns="http://www.w3.org/2000/svg" y="712.6"><path d="m81.5 32a113.2 113.2 0 0 1 -12.5-4c-2 3.4-3.7 6.8-6 10.2-1-1.8-1-3.8-1.2-6-.2-1.6-.3-4.6-1.3-5.8s-3.5-1.8-5.2-2.4a29.5 29.5 0 0 1 -5.2-2.5c4-2.3 8-2.3 12-3.5-.2-.8.2-2 .3-3.2 0-3.4.2-8 1-11a33.8 33.8 0 0 1 5 9.7 41 41 0 0 0 10.5-3 75 75 0 0 1 -4.6 9.3c2.6 4 4.8 8.2 7.2 12.3z" fill="#ff3939" fill-rule="evenodd"/><path d="m43.4 108.4c3.2-9.5 1.3-20.7-7.3-27.6a23.8 23.8 0 0 0 -6.3-3.7v-.1c1.3-5 1.4-10.6-1.8-15a12.2 12.2 0 0 0 -12.7-5c-2.7.7-1.4 4.7 1.3 4 5.2-1 8.8 3.4 9.5 7.8a19.5 19.5 0 0 1 -.4 7.4 20 20 0 0 0 -15.7 3.1c-6 4.3-11 16 .5 17.3 9.2 1.2 15.2-7.8 18-15.5a19 19 0 0 1 5 3c7.2 6 8.3 15.4 5.6 23.3-.7 2.5 3.5 3.6 4.4 1zm-27.4-17a8.8 8.8 0 0 1 -4.2 1.2 4.3 4.3 0 0 1 -4-3c-.3-1.6 2.2-4.6 3-5.6a15.3 15.3 0 0 1 13.5-4l-.6 1.4c-1.6 3.6-4 7.8-7.6 10z" fill="#80c342"/></svg><svg height="66.7" viewBox="0 0 116.25 66.7" width="116.3" x="678.4" xmlns="http://www.w3.org/2000/svg" y="427.8"><path d="m106 41a132 132 0 0 1 -10.7-10.6c-4 2.3-7.5 5-11.6 7.4 0-2.4 1-4.5 1.8-6.8.6-2 2-5 1.8-6.8s-3-3.8-4.2-5.4c-1.3-1.8-3-3.2-4-5.2 5.4-.3 9.5 1.8 14.2 2.6.2-1 1.3-2 2-3.2 2-3.4 4.4-8 6.7-10.8a39.4 39.4 0 0 1 0 12.6 47.7 47.7 0 0 0 12.6 2.5 87.3 87.3 0 0 1 -9.6 7.2c.5 5.6.6 11 1 16.6z" fill="#ffe448" fill-rule="evenodd"/><path d="m46.5 19.3c-10-.8-20.5 3.8-25 13.8a23.8 23.8 0 0 0 -2 7.2h-.5c-5 0-10.5 1.4-14 5.5a12.2 12.2 0 0 0 -1.6 13.2c1.3 2.6 4.8.4 3.5-2-2.5-4.8 1-9.4 5-11a19.5 19.5 0 0 1 7.4-1.5 20 20 0 0 0 7 14.4c5.7 4.5 18.2 6.5 16.7-5-1-8.9-11-12.6-19.3-13.4a19 19 0 0 1 1.7-5.6c4-8.4 12.8-11.8 21.2-11 2.6 0 2.6-4.3 0-4.5zm-10 30.7a8.8 8.8 0 0 1 2.4 3.7 4.3 4.3 0 0 1 -2 4.8c-1.5.6-5-1-6-1.7a15.3 15.3 0 0 1 -7.5-12c.5 0 1 0 1.6.2 4 .7 8.6 2 11.6 5z" fill="#f5821f"/></svg><svg height="110" viewBox="0 0 109 110" width="109" x="540.1" xmlns="http://www.w3.org/2000/svg" y="712.6"><path d="m47.3 56.6s-32.2-5.2-39-5-8.7 6-.3 8c7.4 1.6 39.3-3 39.3-3m13 9.8s12 21.8 15.4 24c3.7 2.4 7 .4 6-4-1.2-4.6-21.5-20-21.5-20m-2.4-17.4s21-14.2 24-18c3.7-5-2.4-6.6-5.8-4.2-4.8 3.2-18.2 22.2-18.2 22.2m-8.5 16.3s-21 14.3-23.8 18c-3.8 5 2.2 6.6 5.7 4.3 4.8-3.3 18-22.3 18-22.3m-2.8-14.6s-20.8-14.7-23.6-18.7c-3.7-5.2 2.4-6.5 5.8-4 4.7 3.2 17.8 22.4 17.8 22.4m15 7s32.2-4.6 39-4.3 8.6 6.3 0 8c-7.3 1.5-39.2-3.6-39.2-3.6m-7.6 12s5.6 27.8 5.2 33.8-7.3 7.3-9.3 0c-1.8-6.4 4-34 4-34m-.5-29.3s-5.6-28-5.2-33.8 7.3-7.4 9.3 0c1.7 6.3-4.2 33.8-4.2 33.8" fill="#92d5d7"/></svg><svg height="68.5" viewBox="0 0 72.33 68.48" width="72.3" x="1005.9" xmlns="http://www.w3.org/2000/svg" y="516.8"><path d="m35.5 29.8s8-19.5 8.8-24-2.6-6.2-5-1c-2 4.3-3.8 25-3.8 25m-8 6.7s-15.7 4.5-17.5 6.2c-2 2-1 4.3 1.7 4.3 3.2 0 15.8-10.5 15.8-10.5m11.3 1s6 15.4 7.8 17.7c2.7 3 4.5-.5 3.5-3-1.3-3.5-11.3-14.7-11.3-14.7m-9-7.7s-6-15.3-8-17.6c-2.5-3-4.3.4-3.3 3 1.2 3.5 11.2 14.8 11.2 14.8m9.7 0s12.2-11 15-12c3.7-1.6 3.7 2.4 1.7 4.2-2.7 2.5-16.7 8-16.7 8m-6.5 8.3s-1.8 21-3 25.3-5.2 4.4-5-1.2c0-5 8-24 8-24m-6.4-6.7s-18.5-.7-22.1-1.9-3.6-5.6 1.3-5.8c4.3 0 20.7 7.8 20.7 7.8m18.6 3.6s18.5.6 22 1.7 3.7 5.6-1.2 5.8c-4.3.2-20.7-7.5-20.7-7.5" fill="#ffe448"/></svg><svg height="109.7" viewBox="0 0 149 109.67" width="149" x="856.9" xmlns="http://www.w3.org/2000/svg" y="516.8"><ellipse cx="110.5" cy="101.1" fill="#66af37" rx="28.3" ry="7.6"/><path d="m112.4 40.4c-1.7 18-1.7 41.4-1.7 58.8" fill="none" stroke="#006938" stroke-miterlimit="10" stroke-width="4.4"/><path d="m110.5 100c1.7-13 23.6-36 36.5-38.2 3 14.6-26.6 38-34.2 38zm0 0c-6-11.3-11-29.7-24-34.2-5 8 14 34 21.8 34z" fill="#009345"/><path d="m131.3 5.7c-6 4.2-7.6 12.6-11 17.6-2.5-5.8-1-11.5-5.3-16.5-3.3 5-7.3 11.5-7.3 17.4-1.6-6.7-3.3-14.3-7.5-18.5-2.6 2.5-2.2 6.7-2.6 9.2-6 42 44.7 34.5 33.7-9.3z" fill="#ff3939"/><path d="m3 61c-5.3-25 8-37 18.5-9.2-2.6-27.2 12-39.6 20.8-37.4s-3 25-4.6 37.6c5-9.2 13.8-21 19-16.8s.8 17.3-3 26" fill="#80c342"/></svg><svg height="233.6" viewBox="0 0 2800 327" width="2000" xmlns="http://www.w3.org/2000/svg"><path d="m147 202.5s131.3-21.5 204-53.2 125.6-54.7 203.3-56 214.3 55.4 293 63.2 164.7 6.5 164.7 6.5v81.6h-865s3-42 0-42z" fill="#66af37"/><path d="m2800 327v-137.2h-542s-140.5-1-232-29c-110.5-34-216.6-89.6-432-32.2-15 4-33.8 7.6-56 11q-69-24-134-51.4c-72.6-30.8-142-70.7-238-76.6-86.6-5.4-152.2 25.7-207.6 58-37.4 21.7-71.7 48.2-115 66.5-40.5 17-91 25.6-140 32.3-78.5 10.7-239 17-703.4 21.5v137.1z" fill="#80c342"/><path d="m655 273.7c-.4-5.7-.4-16 6-18.7 7-2.8 9.7 7.7 10.3 12.3.3 2.7 4.4 3 4.5 0 0-10-.8-23.6 9.2-29l-2.7-.5c6.8 8.5 7 19 7 29.5a2.3 2.3 0 0 0 4.5.6c.8-3 3.5-13 8.5-9.6 4 2.7 4 10 4 14-.3 3 4.2 3 4.4 0 .3-6.3-1-16.4-8-19-7.8-2.7-11.7 7.7-13.3 13.3l4.5.6c0-11.8-1-23-8.6-32.6a2.3 2.3 0 0 0 -2.7-.4c-11.6 6.4-11.4 21.4-11.4 33h4.5c-1-7.3-4.8-19-14.5-17-10 2-11.4 15.4-10.7 23.5.2 2.8 4.7 3 4.5 0zm575.8-189.7c-.5-5.7-.5-16 6-18.8 6.8-2.7 9.6 7.8 10 12.3.5 2.8 4.6 3 4.6 0 0-9.8-.7-23.5 9.3-29l-2.7-.4c6.7 8.5 7 19.2 7 29.5a2.3 2.3 0 0 0 4.3.6c1-3 3.6-13 8.6-9.4 4 2.8 4 10 3.8 14-.2 3 4.3 3 4.4 0 .4-6.2-.8-16.3-8-18.8-7.7-2.8-11.7 7.5-13.2 13l4.4.7c0-11.7-.7-23-8.4-32.6a2.3 2.3 0 0 0 -2.7-.4c-11.6 6.4-11.4 21.3-11.4 33h4.3c-1-7.3-4.8-19-14.4-17-10 2-11.5 15.4-10.8 23.4.2 3 4.7 3 4.5 0zm459 134.4c-.6-5.7-.6-16 6-18.7 6.8-2.8 9.5 7.7 10 12.3.5 2.7 4.6 3 4.6 0 0-10-.8-23.6 9.2-29l-2.7-.5c6.8 8.5 7 19 7 29.4a2.3 2.3 0 0 0 4.5.5c.8-3 3.6-13 8.6-9.5 4 2.8 4 10 3.7 14 0 3 4.4 3 4.5 0 .4-6.2-.8-16.3-8-18.8-7.7-2.8-11.7 7.6-13.2 13.2l4.4.6c0-11.8-.8-23.2-8.4-32.7a2.3 2.3 0 0 0 -2.7-.3c-11.7 6.4-11.5 21.3-11.5 33h4.5c-1-7.3-4.8-19-14.5-17-10 2-11.4 15.4-10.7 23.5.4 2.8 5 2.8 4.6 0z" fill="#66af37"/><path d="m870.4 134.8c-5.8-2.4-3-12.6 8-10.8-6.8-5-20-10-20.3-15s17.6 1 25.2 6c-8-8.8-27-21.4-24.2-26.2s17-1 31.6 20c-6.8-33 4-27.6 10.5-4.3 2-16.4 13.2-12.4 12.2-3.6zm1170.3 44c9.3-2.7 8.6-16-9-10.6 21-16.8 21.7-30.2-9-8.8 15-24.4 13-40.3 6.6-41s-10.7 24-16 36c1.6-10 0-30.6-5-28.2s-4.4 18.2-6.5 27.3c-3-12-14.6-10.4-14.5-3.4z" fill="#80c342"/></svg><svg height="191" viewBox="0 0 179 191" width="179" x="677.9" xmlns="http://www.w3.org/2000/svg" y="516.8"><path d="m81.7 169.7-8.4 14.3-32.8 2 24-22.4z" fill="#c4996c"/><path d="m54.6 185.3-14 .6 9.7-9.2 4.3 8.5z" fill="#2b2b2b"/><path d="m64.6 163.2s72.2-29.8 76.4-31.3 10.3 1 13 7-1 12.3-4.3 14-76.2 31.1-76.2 31.1l1.6-12z" fill="#f4c901"/><path d="m141 131.7c4.2-1.5 10.3 1.2 13 7.2l-79 33.2-10.5-9s72.2-30 76.5-31.5z" fill="#ffe448"/><path d="m81.7 168.7-8.4 14.3-32.8 2 24-22.4z" fill="#c4996c"/><path d="m54.6 184.3-14 .6 9.7-9.2 4.3 8.5z" fill="#2b2b2b"/><path d="m64.6 162.2s72.2-29.8 76.4-31.3 10.3 1 13 7-1 12.3-4.3 14-76.2 31.1-76.2 31.1l1.6-12z" fill="#f4c901"/><path d="m141 130.7c4.2-1.5 10.3 1.2 13 7.2l-79 33.2-10.5-9s72.2-30 76.5-31.5z" fill="#ffe448"/><g fill-rule="evenodd"><path d="m175.5 81.3c-17 17-37 30.6-56.6 46.7-5 4-14.2 14-19.2 14.8-8.5 1.5-20.7-8.2-27.8-12-21.6-12.1-48.4-23.8-68.5-35.8-3.4-34 179-49 172-13.7zm-76.8 58.3c14.8-17.8 25.5-42.4 37-65.5-10.4 5.8-13.8 9-26.4 11-3.8 17-7.2 39.2-10.6 54.6zm39-63.3c-11.7 20.7-22.7 46.2-36.7 63 19-13.4 61-50.8 67.4-56.3-8.2 1.8-19-2-30.8-6.7zm-54 10c2.3 17.3 9.4 36.7 13 53 4.7-15 7.8-45.7 9-54a111 111 0 0 1 -22 1zm-31-6.7a26.4 26.4 0 0 1 -5 6.3c13.3 17 33 39.2 48 53.6-6.7-17.5-14.7-45.3-15.9-53.9-9-.2-20-3.2-27.2-6zm39.3 59.2c-17-17.8-35-35.4-47.4-51.4-9 6.7-18.8 9-31.2 9 24.4 13 55 30.2 78.4 42.4z" fill="#dadadb"/><path d="m67.6 5.2c-15.2 3.8-69.4 16.8-64.3 86 0 0 32 8.2 48-16a95.8 95.8 0 0 1 -1.6-27c1.7-18 10.5-33.7 18-43z" fill="#ff3939"/><path d="m106.7 4c-9.7-1-28.2 0-39 1-15.4 12.7-23 48-16.3 70 0 0 46.5 19.5 84.4-5-.2-28.5-11.2-50.5-29-66.3z" fill="#ffe448"/><path d="m106.7 4c16.3 16.3 29 38.6 29 66.7 0 0 19.6 13 39.8 6.5-2.8-38-28.5-68.5-68.8-73.3z" fill="#ff3939"/></g><path d="m95.7 142s-.5 11.3 3 11 2-11.3 2-11.3z" fill="#dadadb"/><path d="m81.7 169.7-8.4 14.3-32.8 2 24-22.4z" fill="#c4996c"/><path d="m54.6 185.3-14 .6 9.7-9.2 4.3 8.5z" fill="#2b2b2b"/><path d="m64.6 163.2s72.2-29.8 76.4-31.3 10.3 1 13 7-1 12.3-4.3 14-76.2 31.1-76.2 31.1l1.6-12z" fill="#f4c901"/><path d="m141 131.7c4.2-1.5 10.3 1.2 13 7.2l-79 33.2-10.5-9s72.2-30 76.5-31.5z" fill="#ffe448"/></svg><svg height="57.6" viewBox="0 0 84 57.59" width="84" x="794.7" xmlns="http://www.w3.org/2000/svg" y="427.8"><path d="m15.7 10.3a22 22 0 0 1 3.3-.3q7.6-.7 15.3-1 15.5-.5 31 .6c2.2 0 4.7.3 6.6 1.6 2.2 1.5 2.4 4.3 2.6 6.8q.4 5.7.6 11.5c.2 4.7 1 12.5-2.7 16.2-2.4 2.6-7.7 2.3-11.1 2.3-7.8.3-15.5.5-23.3.5q-8.3 0-16.6-.6c-2.4-.2-5 0-7-1.3a7.3 7.3 0 0 1 -3.4-4.6c-1-4.4-1-9.4-1-14a98.4 98.4 0 0 1 1-13.2c.3-2.8 2.4-4 4.7-4.5zm22 27.3 15-9.2-15-8.8z" fill="#ecac00" fill-rule="evenodd"/></svg><svg height="98.6" viewBox="0 0 2800 138" width="2000" xmlns="http://www.w3.org/2000/svg" y="329.3"><path d="m1917.7 24c-14.3 13.6-39 23.2-60.5-2-19 34-51 19.8-59.3-3-12 34-53.8 18.3-63.8-14.6-7 35-61.2 46.8-76.2 6-7 41.8-75.5 17.5-79.5-10.4-4 40-59.8 51.8-69.6 7.7-20.7 50-64.7 39.8-85.7 1-18 35.8-54.6 45.6-78.6 10.8-37.7 49-65.7 4.4-65.7 4.4-.2 0-23 34.5-61-2-19 34-50.8 19.8-59.2-3-12 34-53.7 18.3-63.6-14.6-7 35-61.3 46.8-76.2 6-7 41.7-75.5 17.5-79.5-10.4-4 39.8-59.8 51.8-69.6 7.7-20.7 50-64.8 39.8-85.7 1-18 35.8-54.7 45.6-78.6 10.8-37.4 49.1-66.4 4.6-66.4 4.6s-32 31.5-60-2c-19 34-50.8 19.8-59-3-12 34-54 18.3-63.8-14.6-7 35-61.3 46.8-76.2 6-7 41.6-75.6 17.4-79.5-10.4-4 39.8-59.8 51.8-69.6 7.7-20.7 50-64.8 39.8-85.7 1-18 35.8-54.7 45.6-78.6 10.7-42.6 55.8-66.6 4.6-66.6 4.6v114h2800v-114.2c-15.4 13.6-41 23.7-63-1.7-19 34-50.8 19.8-59.2-3-12 34-53.7 18.3-63.7-14.6-6.8 35-61 46.7-76 6-7 41.7-75.6 17.5-79.6-10.4-4 39.8-59.7 51.8-69.6 7.6-20.6 50-64.6 40-85.5 1-18 36-54.7 45.7-78.6 10.8-43 55.8-66.7 4.5-66.7 4.5-20.6 50-73.2 23.5-94.2-15.4-18 36-54.6 42.7-78.5 7.8-39.4 51.3-67.6 7.7-67.6 7.7z" fill="#1bbebf"/></svg><svg height="95.7" viewBox="0 0 2800 134" width="2000" xmlns="http://www.w3.org/2000/svg" y="233.6"><path d="m882.3 20c14.3 13.6 39 23.2 60.5-2 19 34 51 19.8 59.3-3 12 34 53.8 18.3 63.8-14.6 7 35 61.2 46.8 76.2 6 7 41.8 75.5 24.5 79.5-3.4 4 40 43 49 69.6 9.7 20.7 50 64.7 46.8 85.7 8 18 35.8 54.6 29.6 78.6-5.2 37.5 49 65.5 11.5 65.5 11.5.2 0 23 27.5 61-9 19 34 50.8 19.8 59.2-3 12 34 53.7 27.3 63.6-5.6 7 35 61.3 40.8 76.2 0 7 41.8 75.6 18.5 79.5-9.4 4 39.8 59.8 64.8 69.6 20.6 20.7 50 64.8 27 85.7-12 18 36 54.7 44.7 78.6 9.8 37.6 49.3 66.6 1.6 66.6 1.6s32 38.5 59.8 5c19.2 34 51 23.8 59.4 1 12 34 53.7 19.3 63.6-13.6 7 35 61.3 42.7 76.2 2 7 41.8 75.6 17.5 79.5-10.4 4 39.8 59.8 48.8 69.6 4.6 20.7 50 64.8 41 85.7 2 18 36 54.7 46.7 78.6 11.8 42.6 55.9 66.6-2.4 66.6-2.4v114h-2800v-114.2c15.4 13.6 41 23.7 63-1.8 19 34 50.8 36.8 59.2 14 12 34 53.7 11.3 63.6-21.6 7 35 53.8 35 76.2 1 25.7 35.6 75.6 21.4 79.6-6.4 13.5 36.5 46.7 32.6 69.5 5.7 31 37.8 64.8 36.8 85.7-2 18 35.8 54.7 41.6 78.6 6.8 42.9 55.7 66.6 4.5 66.6 4.5 29.6 40.5 68.7 47 94-8.4 18 36 54.8 35.7 78.7.8 39.3 51.3 67.6 7.6 67.6 7.6z" fill="#92d5d7"/></svg><svg height="411.4" viewBox="0 0 457.44 411.38" width="457.4" xmlns="http://www.w3.org/2000/svg" y="427.8"><path d="m224.6 42.4c-179.4 0-260.5 198-185.3 291 73 82.7 277.7 91 351 17.8 122.2-122.2 29.5-308.8-165.7-308.8z" fill="#ffe448"/><path d="m401.7 159c-6.6 0-7.6 9.6-2 10.7 8.5 1.7 9.8-10.2 2-10.6zm-102.5 0c-6.6 0-7.6 9.6-2 10.7 8.4 1.7 9.8-10.2 2-10.6z" fill="#1d1d1b"/><path d="m427.3 121c6-3.7 12.2-6.8 17.6-11.5 3.6-3.3-1.8-8.7-5.5-5.5-5 4.3-10.6 7-16 10.3-4.4 2.5-.5 9 3.7 6.6zm-370-46.5c5.5 4 10.7 8.2 16.8 11 4.6 2 8.5-4.5 4-6.6-6-3-11.3-7.2-16.8-11-4-3-7.8 3.7-3.8 6.5zm279-22.2c3.2-6.3 6.7-12.3 8.7-19.3 1.4-4.7-6-6.7-7.4-2-1.8 6.3-5 11.7-8 17.4-2 4.4 4.6 8.3 6.8 4zm-137-18.3c-.4-7.2-.3-14.2-2-21-1.2-5-8.6-3-7.4 2 1.4 6 1.3 12.5 1.7 19 .2 4.8 8 4.8 7.6 0z" fill="#ffe448"/></svg><svg height="195.7" viewBox="0 0 220.48 195.74" width="220.5" x="457.4" xmlns="http://www.w3.org/2000/svg" y="516.8"><path d="m165.6 127.5c-2.6-5.2-7.8-11-16.8-12-9.3-1-15.8 5-13 13.8 2.3 7 8 12.7 12 19.3a47.6 47.6 0 0 1 5.2 13c.8 3.6-2.7 5-5 3.2a41.2 41.2 0 0 1 -9.5-10.6c-1.6-2.6-2.5-9-3.4-12-2.8-9-8.6-11-17-9.5-8.2 1.4-12.5 7.3-12.8 16.8 0 3.8 0 8.6-2.2 11-2.4 3-6-1.3-4.5-5.8.7-2 2-3.7 2.6-5.6 4.4-12 1.3-22.8-8-27-6-3-11-2.5-15.3 3.7a22.4 22.4 0 0 1 -11 8 7 7 0 0 1 -8.6-4.5 9.2 9.2 0 0 1 4-9.7 20.7 20.7 0 0 1 4-1.5c10.6-3.8 15.8-10.8 15-20.3-.8-8.8-8-15-19.3-16.5a62.2 62.2 0 0 1 -8.7-1.4c-6-1.7-9.5-5.6-7-12s7.6-7 13-4.6c3.4 1.6 6.2 4.5 9.2 7 2.5 2 4.6 4.6 7.2 6.4 6.8 4.6 12 3 14.7-4.6 4-11.2 2.8-21.7-6-30.5-3.7-3.8-7.8-7.4-11-11.6-4-5.3-3.8-11.3 2-14.7s11.5-.5 14 5.5c2 5 2.2 11 4 16.3 2.2 6.7 4 14 8.2 19.3 3 3.6 10.2 6.3 14.6 5.3 3.6-.8 8.2-7.5 8.3-11.7.4-9.7-1.6-19.3-3-29-2-9-1.4-17.7 2.7-18.6 4-.8 7.5 3.8 7.8 6.2 1 7.5.5 15.2 0 22.8-.2 5.6-1.6 11.2-1.6 16.8 0 6.4 1.8 12.5 9.2 14.5s13.6-.7 18-6.8c2.8-4 4.3-9.2 7.2-13.3 2-2.8 5.3-6.7 8-6.7 2.8 0 7 4 7.8 6.8.8 3.3-.8 8.2-3 11-3 3.3-8 5.2-11.7 8-4.6 3.3-8.2 7.4-5.3 13.6s8.2 8.6 14.7 7c4.2-1 8-3.4 12.3-4.5 1.7-.5 4.4-2 6 1.5 1.7 3-1.8 4.7-3.3 5.4-3 1-6.4 1-9.5 1.7-9.4 1.8-15.6 7.4-17.8 16.5s2.8 15.2 10.2 19.8c2.4 1.5 6 2.8 7 5 1.3 3 3.3 7.2 1 10.3s-7.8.4-10-2c-2.5-2.5-2.8-4.3-5.4-8.7zm-69.2 64.5c-5.7 2.3-11 .6-14.5-5.3-3.4-5.4-1.6-12.8 3.8-15.2 6.2-3 11.5-1 15.2 4.7 3.3 5.4 1.4 12.5-4.6 15.7zm74.6-176c-3.2 1.3-6 .4-8-2.8-1.8-3-.8-7 2-8.3 3.6-1.5 6.5-.5 8.4 2.7a6 6 0 0 1 -2.4 8.5zm-139.7 100c-3 1.3-6 .3-8-2.8-1.7-3-.7-7 2.2-8.3 3.4-1.5 6.3-.5 8.3 2.7a6 6 0 0 1 -2.5 8.5zm-14.3-21.3c-5 2-9.4.5-12.5-4.5-3-4.7-1.4-11 3.3-13.2 5.4-2.5 10-1 13 4 3.2 5 1.4 11-3.8 13.8zm196.5-13c-4 1.5-7.4.4-10-3.6-2.2-3.6-1-8.7 2.7-10.4 4.3-2 8-.7 10.4 3.3a7.6 7.6 0 0 1 -3 10.6z" fill="#ffe448"/></svg></svg>