<svg xmlns="http://www.w3.org/2000/svg" xmlns:xlink="http://www.w3.org/1999/xlink" viewBox="0 0 725 484" preserveAspectRatio="meet">
  <defs>
    <linearGradient id="lego-comp-test-b" x1="98.37%" x2="-57.82%" y1="100%" y2="100%">
      <stop offset="0%" stop-color="#F3B7E9"/>
      <stop offset="100%" stop-color="#FE7BE3"/>
    </linearGradient>
    <path id="lego-comp-test-a" d="M371.6344,120.1282 L442.1884,156.3662 L304.4444,241.8122 L166.3664,170.8942 L230.5664,131.0702 L298.0884,165.7502 L371.6344,120.1282 Z M137.746,-1.12265752e-12 L208.3,36.238 L134.754,81.86 L202.278,116.54 L138.078,156.364 L-3.83693077e-13,85.446 L137.746,-1.12265752e-12 Z"/>
    <linearGradient id="lego-comp-test-c" x1="94.82%" x2="5.7%" y1="59.7%" y2="57.99%">
      <stop offset="0%" stop-color="#F4B2E8"/>
      <stop offset="100%" stop-color="#FB8EE4"/>
    </linearGradient>
    <linearGradient id="lego-comp-test-e" x1="104.4%" x2="-39.08%" y1="66.02%" y2="65.51%">
      <stop offset="0%" stop-color="#FF83E7"/>
      <stop offset="33.77%" stop-color="#FC8CEB"/>
      <stop offset="100%" stop-color="#FF76E3"/>
    </linearGradient>
    <linearGradient id="lego-comp-test-f" x1="104.4%" x2="-40.66%" y1="67.92%" y2="67.35%">
      <stop offset="0%" stop-color="#FC8CEB"/>
      <stop offset="98.91%" stop-color="#FF76E3"/>
    </linearGradient>
    <linearGradient id="lego-comp-test-g" x1="50%" x2="50%" y1="0%" y2="100%">
      <stop offset="0%" stop-color="#FC99E7"/>
      <stop offset="100%" stop-color="#FEC9F5"/>
    </linearGradient>
    <linearGradient id="lego-comp-test-h" x1="104.4%" x2="-2.69%" y1="66.41%" y2="65.89%">
      <stop offset="0%" stop-color="#FB9EED"/>
      <stop offset="61.37%" stop-color="#FD89E6"/>
      <stop offset="100%" stop-color="#FF92E9"/>
    </linearGradient>
    <path id="lego-comp-test-i" d="M60.6616487,5.41472281 C79.3636487,15.0207228 74.7356487,30.8527228 56.1816487,37.6807228 C42.9676487,42.5427228 24.7016487,42.1947228 11.9376487,35.6387228 C-6.7643513,26.0347228 -2.1363513,10.2007228 16.4176487,3.37472281 C29.6316487,-1.48727719 47.8996487,-1.13927719 60.6616487,5.41472281 Z M54.7280487,7.53192281 C45.0880487,2.57992281 31.2900487,2.34792281 21.3180487,6.02592281 C7.3420487,11.1819228 3.7420487,23.1379228 17.8700487,30.3959228 C27.5120487,35.3459228 41.3100487,35.5779228 51.2800487,31.9019228 C65.2580487,26.7439228 68.8580487,14.7879228 54.7280487,7.53192281 Z"/>
    <linearGradient id="lego-comp-test-j" x1="104.4%" x2="-2.69%" y1="66.72%" y2="66.18%">
      <stop offset="0%" stop-color="#FB9EED"/>
      <stop offset="61.37%" stop-color="#FD89E6"/>
      <stop offset="100%" stop-color="#FF92E9"/>
    </linearGradient>
    <path id="lego-comp-test-k" d="M48.9398487,13.5319228 C42.2818487,10.1119228 32.7538487,9.85592281 25.8318487,12.3779228 C16.3238487,15.8439228 14.1718487,24.3419228 23.6578487,29.2139228 C30.3158487,32.6339228 39.8458487,32.8899228 46.7678487,30.3659228 C56.2738487,26.9019228 58.4278487,18.4059228 48.9398487,13.5319228 Z"/>
    <path id="lego-comp-test-l" d="M60.6616487,5.41472281 C79.3636487,15.0207228 74.7356487,30.8527228 56.1816487,37.6807228 C42.9676487,42.5427228 24.7016487,42.1947228 11.9376487,35.6387228 C-6.7643513,26.0347228 -2.1363513,10.2007228 16.4176487,3.37472281 C29.6316487,-1.48727719 47.8996487,-1.13927719 60.6616487,5.41472281 Z M54.7280487,7.53192281 C45.0880487,2.57992281 31.2900487,2.34792281 21.3180487,6.02592281 C7.3420487,11.1819228 3.7420487,23.1379228 17.8700487,30.3959228 C27.5120487,35.3459228 41.3100487,35.5779228 51.2800487,31.9019228 C65.2580487,26.7439228 68.8580487,14.7879228 54.7280487,7.53192281 Z"/>
    <path id="lego-comp-test-m" d="M48.9398487,13.5319228 C42.2818487,10.1119228 32.7538487,9.85592281 25.8318487,12.3779228 C16.3238487,15.8439228 14.1718487,24.3419228 23.6578487,29.2139228 C30.3158487,32.6339228 39.8458487,32.8899228 46.7678487,30.3659228 C56.2738487,26.9019228 58.4278487,18.4059228 48.9398487,13.5319228 Z"/>
    <path id="lego-comp-test-n" d="M60.6616487,5.41472281 C79.3636487,15.0207228 74.7356487,30.8527228 56.1816487,37.6807228 C42.9676487,42.5427228 24.7016487,42.1947228 11.9376487,35.6387228 C-6.7643513,26.0347228 -2.1363513,10.2007228 16.4176487,3.37472281 C29.6316487,-1.48727719 47.8996487,-1.13927719 60.6616487,5.41472281 Z M54.7280487,7.53192281 C45.0880487,2.57992281 31.2900487,2.34792281 21.3180487,6.02592281 C7.3420487,11.1819228 3.7420487,23.1379228 17.8700487,30.3959228 C27.5120487,35.3459228 41.3100487,35.5779228 51.2800487,31.9019228 C65.2580487,26.7439228 68.8580487,14.7879228 54.7280487,7.53192281 Z"/>
    <path id="lego-comp-test-o" d="M48.9398487,13.5319228 C42.2818487,10.1119228 32.7538487,9.85592281 25.8318487,12.3779228 C16.3238487,15.8439228 14.1718487,24.3419228 23.6578487,29.2139228 C30.3158487,32.6339228 39.8458487,32.8899228 46.7678487,30.3659228 C56.2738487,26.9019228 58.4278487,18.4059228 48.9398487,13.5319228 Z"/>
    <path id="lego-comp-test-p" d="M60.6616487,5.41472281 C79.3636487,15.0207228 74.7356487,30.8527228 56.1816487,37.6807228 C42.9676487,42.5427228 24.7016487,42.1947228 11.9376487,35.6387228 C-6.7643513,26.0347228 -2.1363513,10.2007228 16.4176487,3.37472281 C29.6316487,-1.48727719 47.8996487,-1.13927719 60.6616487,5.41472281 Z M54.7280487,7.53192281 C45.0880487,2.57992281 31.2900487,2.34792281 21.3180487,6.02592281 C7.3420487,11.1819228 3.7420487,23.1379228 17.8700487,30.3959228 C27.5120487,35.3459228 41.3100487,35.5779228 51.2800487,31.9019228 C65.2580487,26.7439228 68.8580487,14.7879228 54.7280487,7.53192281 Z"/>
    <path id="lego-comp-test-q" d="M48.9398487,13.5319228 C42.2818487,10.1119228 32.7538487,9.85592281 25.8318487,12.3779228 C16.3238487,15.8439228 14.1718487,24.3419228 23.6578487,29.2139228 C30.3158487,32.6339228 39.8458487,32.8899228 46.7678487,30.3659228 C56.2738487,26.9019228 58.4278487,18.4059228 48.9398487,13.5319228 Z"/>
    <path id="lego-comp-test-r" d="M60.6616487,5.41472281 C79.3636487,15.0207228 74.7356487,30.8527228 56.1816487,37.6807228 C42.9676487,42.5427228 24.7016487,42.1947228 11.9376487,35.6387228 C-6.7643513,26.0347228 -2.1363513,10.2007228 16.4176487,3.37472281 C29.6316487,-1.48727719 47.8996487,-1.13927719 60.6616487,5.41472281 Z M54.7280487,7.53192281 C45.0880487,2.57992281 31.2900487,2.34792281 21.3180487,6.02592281 C7.3420487,11.1819228 3.7420487,23.1379228 17.8700487,30.3959228 C27.5120487,35.3459228 41.3100487,35.5779228 51.2800487,31.9019228 C65.2580487,26.7439228 68.8580487,14.7879228 54.7280487,7.53192281 Z"/>
    <path id="lego-comp-test-s" d="M48.9398487,13.5319228 C42.2818487,10.1119228 32.7538487,9.85592281 25.8318487,12.3779228 C16.3238487,15.8439228 14.1718487,24.3419228 23.6578487,29.2139228 C30.3158487,32.6339228 39.8458487,32.8899228 46.7678487,30.3659228 C56.2738487,26.9019228 58.4278487,18.4059228 48.9398487,13.5319228 Z"/>
    <path id="lego-comp-test-t" d="M60.6616487,5.41472281 C79.3636487,15.0207228 74.7356487,30.8527228 56.1816487,37.6807228 C42.9676487,42.5427228 24.7016487,42.1947228 11.9376487,35.6387228 C-6.7643513,26.0347228 -2.1363513,10.2007228 16.4176487,3.37472281 C29.6316487,-1.48727719 47.8996487,-1.13927719 60.6616487,5.41472281 Z M54.7280487,7.53192281 C45.0880487,2.57992281 31.2900487,2.34792281 21.3180487,6.02592281 C7.3420487,11.1819228 3.7420487,23.1379228 17.8700487,30.3959228 C27.5120487,35.3459228 41.3100487,35.5779228 51.2800487,31.9019228 C65.2580487,26.7439228 68.8580487,14.7879228 54.7280487,7.53192281 Z"/>
    <path id="lego-comp-test-u" d="M48.9398487,13.5319228 C42.2818487,10.1119228 32.7538487,9.85592281 25.8318487,12.3779228 C16.3238487,15.8439228 14.1718487,24.3419228 23.6578487,29.2139228 C30.3158487,32.6339228 39.8458487,32.8899228 46.7678487,30.3659228 C56.2738487,26.9019228 58.4278487,18.4059228 48.9398487,13.5319228 Z"/>
    <linearGradient id="lego-comp-test-v" x1="104.4%" x2="-2.69%" y1="59.7%" y2="59.39%">
      <stop offset="0%" stop-color="#FB9EED"/>
      <stop offset="61.37%" stop-color="#FD89E6"/>
      <stop offset="100%" stop-color="#FF92E9"/>
    </linearGradient>
    <ellipse id="lego-comp-test-w" cx="55" cy="33.5" rx="45" ry="19.5"/>
    <linearGradient id="lego-comp-test-y" x1="104.4%" x2="-2.69%" y1="66.42%" y2="65.89%">
      <stop offset="0%" stop-color="#FB9EED"/>
      <stop offset="61.37%" stop-color="#FD89E6"/>
      <stop offset="100%" stop-color="#FF92E9"/>
    </linearGradient>
    <path id="lego-comp-test-x" d="M14.2808,10.7038 C32.4568,-0.5722 59.9168,-1.5422 79.5088,4.4198 C89.1148,7.3438 101.3528,13.2578 106.0468,23.5598 C111.4748,35.4738 103.1888,45.6678 93.7508,51.5218 C75.5748,62.7958 48.1148,63.7678 28.5228,57.8058 C18.9168,54.8818 6.6808,48.9678 1.9868,38.6658 C-3.4412,26.7518 4.8448,16.5578 14.2808,10.7038 Z M72.9566,8.7556 C58.4006,4.3236 38.0006,5.0456 24.4966,13.4216 C17.4846,17.7716 11.3286,25.3456 15.3626,34.1976 C18.8506,41.8496 27.9406,46.2416 35.0746,48.4136 C49.6306,52.8436 70.0326,52.1236 83.5366,43.7456 C90.5486,39.3956 96.7046,31.8216 92.6686,22.9716 C89.1826,15.3196 80.0926,10.9256 72.9566,8.7556 Z"/>
    <radialGradient id="lego-comp-test-z" cx="52.31%" cy="59.72%" r="63.11%" fx="52.31%" fy="59.72%" gradientTransform="matrix(0 1 -.55377 0 .85 .07)">
      <stop offset="0%" stop-color="#FEC5F4"/>
      <stop offset="100%" stop-color="#FEC5F4" stop-opacity="0"/>
    </radialGradient>
    <path id="lego-comp-test-B" d="M60.6616487,5.41472281 C79.3636487,15.0207228 74.7356487,30.8527228 56.1816487,37.6807228 C42.9676487,42.5427228 24.7016487,42.1947228 11.9376487,35.6387228 C-6.7643513,26.0347228 -2.1363513,10.2007228 16.4176487,3.37472281 C29.6316487,-1.48727719 47.8996487,-1.13927719 60.6616487,5.41472281 Z M54.7280487,7.53192281 C45.0880487,2.57992281 31.2900487,2.34792281 21.3180487,6.02592281 C7.3420487,11.1819228 3.7420487,23.1379228 17.8700487,30.3959228 C27.5120487,35.3459228 41.3100487,35.5779228 51.2800487,31.9019228 C65.2580487,26.7439228 68.8580487,14.7879228 54.7280487,7.53192281 Z"/>
    <path id="lego-comp-test-C" d="M48.9398487,13.5319228 C42.2818487,10.1119228 32.7538487,9.85592281 25.8318487,12.3779228 C16.3238487,15.8439228 14.1718487,24.3419228 23.6578487,29.2139228 C30.3158487,32.6339228 39.8458487,32.8899228 46.7678487,30.3659228 C56.2738487,26.9019228 58.4278487,18.4059228 48.9398487,13.5319228 Z"/>
  </defs>
  <g fill="none" fill-rule="evenodd" transform="translate(1)">
    <path fill="#FF76E2" fill-rule="nonzero" d="M434.413319,337 L435.433362,337.544017 C405.572135,356.067759 385.436155,368.558662 375.025422,375.016727 L387.443041,381.394976 C394.550886,376.985784 406.4646,369.595379 423.184183,359.223761 C419.543761,357.270188 420.239198,356.675558 424.165797,358.614822 C427.708175,356.417404 431.461371,354.089193 435.425533,351.630114 C431.747645,349.661016 432.448843,349.05841 436.407884,351.019277 C440.14331,348.703547 444.063277,346.271883 448.167371,343.726001 L448.682,344 L449.226115,343.717213 L543.084309,391.924704 C543.329945,392.050868 543.426797,392.352272 543.300633,392.597909 C543.266298,392.664756 543.218985,392.720585 543.16335,392.763899 L543.166011,392.765285 L445.19026,453.542269 C445.186953,453.544419 445.183623,453.546529 445.18027,453.548597 L442.338839,455.311158 L442.33,455.315 L408.461539,476.32584 C408.45988,476.326907 408.458216,476.327963 408.456546,476.329009 L396.22463,483.917191 C396.171571,483.952266 396.112371,483.976829 396.0505,483.989764 C396.045488,483.990284 396.040842,483.991171 396.036191,483.99199 C396.016572,483.996072 395.996203,483.99847 395.975698,483.999607 L395.96241,483.999377 C395.956016,483.999539 395.949625,483.999578 395.94324,483.999495 C395.92267,484.000171 395.901551,483.998654 395.88048,483.995762 C395.871963,483.993533 395.86387,483.992195 395.855815,483.99066 C395.838744,483.988539 395.821129,483.984238 395.803656,483.978929 L395.720029,483.945033 L288.088029,428.663033 C288.081218,428.659564 288.079815,428.658815 288.078415,428.658059 L274.640227,421.756038 C274.63349,421.752704 274.626821,421.749215 274.620227,421.745571 L234.215073,400.992404 C234.16255,400.951976 234.113292,400.901677 234.075183,400.840244 C233.945788,400.631659 233.988475,400.36494 234.164366,400.206006 L234.236493,400.151783 L280.362493,371.537783 L280.363,371.537 L320.044139,346.922765 L320.385,347.259 L320.652371,347.089542 L373.987713,374.483668 C384.328668,368.068889 404.470536,355.574333 434.413319,337 Z M394.759,469.569 L383.508,476.549 L395.924,482.926 L407.175,475.946 L394.759,469.569 Z M381.306,462.659 L370.054,469.639 L382.47,476.016 L393.721,469.036 L381.306,462.659 Z M407.002,461.974 L395.751,468.954 L408.167,475.331 L419.418,468.351 L407.002,461.974 Z M367.851,455.748 L356.6,462.728 L369.016,469.106 L380.268,462.126 L367.851,455.748 Z M393.549,455.064 L382.297,462.044 L394.713,468.421 L405.965,461.441 L393.549,455.064 Z M419.244,454.38 L407.993,461.36 L420.409,467.737 L431.66,460.757 L419.244,454.38 Z M354.397,448.838 L343.146,455.818 L355.563,462.195 L366.814,455.216 L354.397,448.838 Z M380.094,448.153 L368.843,455.133 L381.259,461.511 L392.511,454.531 L380.094,448.153 Z M405.79,447.47 L394.539,454.45 L406.955,460.827 L418.206,453.847 L405.79,447.47 Z M431.485,446.787 L428.884844,448.400154 L420.235,453.765 L432.651,460.142 L441.811693,454.460583 L441.819,454.456 L443.902,453.164 L431.485,446.787 Z M340.943,441.928 L329.692,448.908 L342.108,455.285 L353.359,448.305 L340.943,441.928 Z M366.64,441.243 L355.389,448.223 L367.806,454.601 L379.057,447.621 L366.64,441.243 Z M392.336,440.559 L381.084,447.539 L393.501,453.917 L404.753,446.937 L392.336,440.559 Z M418.031,439.876 L415.430644,441.490154 L406.782,446.855 L419.198,453.232 L428.357693,447.550383 L428.366,447.546 L430.448,446.254 L418.031,439.876 Z M443.728,439.192 L432.477,446.171 L444.894,452.549 L456.145,445.569 L443.728,439.192 Z M327.489,435.018 L316.238,441.997 L328.654,448.375 L339.905,441.395 L327.489,435.018 Z M353.186,434.333 L341.935,441.313 L354.351,447.69 L365.602,440.71 L353.186,434.333 Z M378.882,433.649 L367.631,440.629 L380.047,447.006 L391.299,440.027 L378.882,433.649 Z M404.577,432.966 L401.976639,434.580558 L401.967,434.585 L393.327,439.944 L405.744,446.322 L414.903493,440.640383 L416.993,439.343 L404.577,432.966 Z M430.274,432.282 L419.023,439.261 L431.44,445.639 L442.691,438.659 L430.274,432.282 Z M455.97,431.597 L444.719,438.577 L457.136,444.954 L468.387,437.975 L455.97,431.597 Z M314.036,428.108 L302.785,435.087 L315.201,441.464 L326.452,434.485 L314.036,428.108 Z M339.733,427.423 L328.482,434.402 L340.898,440.779 L352.149,433.8 L339.733,427.423 Z M365.428,426.739 L354.177,433.718 L366.593,440.096 L377.844,433.116 L365.428,426.739 Z M391.124,426.056 L388.522439,427.670558 L388.513,427.674 L379.873,433.034 L392.29,439.412 L401.449493,433.730183 L403.539,432.433 L391.124,426.056 Z M416.821,425.371 L405.569,432.351 L417.985,438.728 L429.237,431.749 L416.821,425.371 Z M442.517,424.688 L431.266,431.667 L443.683,438.044 L454.934,431.065 L442.517,424.688 Z M468.213,424.003 L456.961,430.983 L469.378,437.36 L480.63,430.38 L468.213,424.003 Z M300.582,421.198 L289.331,428.177 L301.747,434.554 L312.998,427.575 L300.582,421.198 Z M326.279,420.513 L315.028,427.492 L327.444,433.869 L338.695,426.89 L326.279,420.513 Z M351.974,419.829 L340.724,426.808 L353.139,433.185 L364.39,426.206 L351.974,419.829 Z M377.67,419.146 L375.068439,420.760358 L375.06,420.764 L366.419,426.124 L378.835,432.501 L387.995293,426.819983 L388.003,426.815 L390.086,425.523 L377.67,419.146 Z M403.367,418.461 L392.115,425.441 L404.531,431.818 L415.783,424.838 L403.367,418.461 Z M429.063,417.777 L417.812,424.757 L430.228,431.134 L441.479,424.154 L429.063,417.777 Z M454.76,417.093 L443.508,424.073 L455.925,430.45 L467.177,423.47 L454.76,417.093 Z M480.454,416.409 L469.204,423.388 L481.621,429.766 L492.871,422.787 L480.454,416.409 Z M287.127,414.287 L275.877,421.266 L288.293,427.643 L299.543,420.664 L287.127,414.287 Z M312.825,413.603 L301.574,420.582 L313.99,426.959 L325.241,419.98 L312.825,413.603 Z M338.52,412.919 L327.27,419.898 L339.686,426.275 L350.936,419.296 L338.52,412.919 Z M364.216,412.236 L361.614239,413.850158 L361.606,413.854 L352.965,419.214 L365.381,425.591 L374.541293,419.909783 L374.549,419.905 L376.632,418.613 L364.216,412.236 Z M389.914,411.552 L378.662,418.531 L391.078,424.908 L402.329,417.928 L389.914,411.552 Z M415.609,410.867 L404.358,417.846 L416.774,424.223 L428.025,417.244 L415.609,410.867 Z M441.306,410.183 L430.054,417.163 L442.47,423.54 L453.722,416.56 L441.306,410.183 Z M467.001,409.499 L455.751,416.478 L468.168,422.856 L479.418,415.877 L467.001,409.499 Z M492.697,408.815 L481.446,415.794 L493.863,422.172 L505.114,415.192 L492.697,408.815 Z M273.673,407.377 L262.423,414.356 L274.84,420.733 L286.09,413.754 L273.673,407.377 Z M299.369,406.693 L288.119,413.672 L300.535,420.049 L311.786,413.07 L299.369,406.693 Z M325.067,406.009 L313.816,412.988 L326.232,419.365 L337.483,412.386 L325.067,406.009 Z M348.996517,406.421191 L348.160244,406.939354 L339.511,412.304 L351.927,418.681 L361.087093,412.999583 L361.095,412.995 L363.178,411.703 L350.76252,405.325691 C350.178931,405.687707 349.590264,406.052874 348.996517,406.421191 Z M376.46,404.641 L365.208,411.621 L377.624,417.998 L388.875,411.018 L376.46,404.641 Z M402.156,403.957 L390.905,410.937 L403.32,417.313 L414.571,410.334 L402.156,403.957 Z M427.852,403.272 L416.6,410.252 L429.016,416.629 L440.268,409.65 L427.852,403.272 Z M453.547,402.589 L442.297,409.568 L454.713,415.945 L465.963,408.966 L453.547,402.589 Z M479.244,401.905 L467.993,408.884 L480.41,415.262 L491.661,408.282 L479.244,401.905 Z M504.940046,401.221311 L493.689,408.199 L506.106,414.577 L517.356,407.598 L516.887151,407.357588 C512.804491,405.26065 508.822122,403.215224 504.940046,401.221311 Z M260.218,400.466 L248.968,407.445 L261.385,413.822 L272.635,406.844 L260.218,400.466 Z M285.915,399.782 L274.664,406.762 L287.081,413.139 L298.332,406.16 L285.915,399.782 Z M311.611,399.099 L300.361,406.078 L312.777,412.455 L324.028,405.476 L311.611,399.099 Z M334.718069,400.020488 L334.706044,400.029154 L326.058,405.394 L338.473,411.771 L347.633093,406.089583 L347.641,406.085 L348.475788,405.567436 C348.894584,405.307645 349.310831,405.049436 349.724529,404.792807 L337.307008,398.414497 C336.45492,398.943071 335.591941,399.478401 334.718069,400.020488 Z M351.754357,404.710427 L364.17,411.088 L375.422,404.108 L363.005532,397.731014 C359.497682,399.907029 355.74729,402.233501 351.754357,404.710427 Z M388.702,397.047 L377.451,404.026 L389.867,410.403 L401.118,403.424 L388.702,397.047 Z M414.399,396.363 L403.147,403.343 L415.562,409.719 L426.814,402.739 L414.399,396.363 Z M440.093,395.679 L428.843,402.658 L441.259,409.035 L452.509,402.056 L440.093,395.679 Z M465.79,394.995 L454.539,401.974 L466.955,408.351 L478.206,401.372 L465.79,394.995 Z M491.485961,394.311017 L480.236,401.29 L492.653,407.667 L503.903131,400.68873 C499.642126,398.50019 495.503069,396.374286 491.485961,394.311017 Z M517.182298,393.626537 L505.930946,400.606066 C509.961507,402.676245 514.100322,404.802024 518.347388,406.983405 L529.599,400.004 L529.128903,399.762558 C525.046455,397.665729 521.064254,395.620389 517.182298,393.626537 Z M246.764,393.556 L235.514,400.535 L247.93,406.912 L259.18,399.933 L246.764,393.556 Z M272.46,392.872 L261.21,399.851 L273.627,406.228 L284.877,399.249 L272.46,392.872 Z M298.157,392.188 L286.906,399.167 L299.323,405.545 L310.574,398.566 L298.157,392.188 Z M323.854,391.504 L321.252044,393.118954 L312.602,398.484 L325.019,404.861 L333.875,399.367 L333.879046,399.364179 C334.685343,398.864011 335.482346,398.369608 336.270053,397.880971 L323.854,391.504 Z M338.299434,397.798868 L350.716569,404.177418 C354.709267,401.700637 358.459813,399.37407 361.968206,397.197717 L349.551198,390.819089 C346.044866,392.994163 342.294278,395.320756 338.299434,397.798868 Z M363.997558,397.115632 L376.413,403.493 L387.664,396.514 L375.247364,390.137067 C371.83568,392.253429 368.085745,394.579617 363.997558,397.115632 Z M400.945,389.452 L389.693,396.432 L402.109,402.809 L413.361,395.829 L400.945,389.452 Z M426.64,388.769 L415.39,395.748 L427.805,402.125 L439.055,395.146 L426.64,388.769 Z M452.336,388.084 L441.085,395.064 L453.501,401.441 L464.752,394.462 L452.336,388.084 Z M478.032628,387.40111 L466.782,394.379 L479.198,400.757 L490.448755,393.778286 C486.170249,391.580758 482.03154,389.455033 478.032628,387.40111 Z M503.729073,386.716685 L492.478227,393.696474 C496.494645,395.759388 500.63315,397.885009 504.893741,400.073336 L516.145242,393.093884 C511.884642,390.905553 507.745919,388.77982 503.729073,386.716685 Z M529.424,386.032 L518.173464,393.011429 C522.204003,395.081596 526.342745,397.207339 530.589689,399.388657 L541.84,392.41 L529.424,386.032 Z M259.006,385.962 L247.756,392.941 L260.172,399.318 L271.422,392.339 L259.006,385.962 Z M284.702,385.278 L273.452,392.257 L285.868,398.634 L297.119,391.655 L284.702,385.278 Z M310.4,384.594 L307.797844,386.208754 L299.148,391.573 L311.565,397.951 L320.717,392.273 L320.724898,392.26898 L322.815,390.971 L310.4,384.594 Z M336.096,383.91 L324.845,390.889 L337.261031,397.26624 C341.255192,394.788552 345.00555,392.462102 348.512103,390.28689 L336.096,383.91 Z M350.540807,390.205207 L362.959188,396.582984 C367.047183,394.047088 370.797634,391.72058 374.210541,389.60346 L361.793134,383.225079 C358.384062,385.339821 354.633286,387.66653 350.540807,390.205207 Z M387.49,382.542 L387.831814,382.330587 C384.570794,384.353487 380.706645,386.750525 376.239367,389.521701 L388.655,395.899 L399.907,388.919 L387.49,382.542 Z M413.186,381.859 L401.936,388.838 L414.352,395.215 L425.602,388.236 L413.186,381.859 Z M438.883,381.175 L427.632,388.154 L440.047,394.531 L451.298,387.551 L438.883,381.175 Z M464.577768,380.490418 L453.328,387.469 L465.744,393.846 L476.994152,386.867727 C472.691537,384.657816 468.552743,382.532046 464.577768,380.490418 Z M490.27547,379.806639 L479.02281,386.785496 C483.021859,388.83949 487.160957,390.965415 491.440103,393.163272 L502.691076,386.183549 C498.412825,383.986151 494.274289,381.860515 490.27547,379.806639 Z M515.97,379.122 L504.721073,386.102005 C508.737593,388.164972 512.876143,390.290616 517.136723,392.478938 L528.387,385.5 L515.97,379.122 Z M271.248,378.367 L259.998,385.347 L272.414,391.724 L283.664,384.744 L271.248,378.367 Z M296.946,377.683 L294.343839,379.298358 L294.335,379.302 L285.693,384.663 L298.11,391.04 L307.270693,385.358983 L309.362,384.06 L296.946,377.683 Z M322.642,377 L311.391,383.979 L323.807,390.356 L335.058,383.377 L322.642,377 Z M348.339,376.315 L337.087,383.295 L349.503716,389.671766 C353.595411,387.133575 357.346209,384.806851 360.75611,382.691596 L348.339,376.315 Z M374.034,375.631 L374.077762,375.604586 C370.889699,377.58223 367.125192,379.917457 362.784241,382.610268 L375.201533,388.98872 C379.51181,386.314937 383.262266,383.988425 386.452902,382.009186 L374.034,375.631 Z M388.481484,381.927578 L400.898,388.304 L412.148,381.326 L399.731547,374.948855 C395.175225,377.775267 391.425204,380.101508 388.481484,381.927578 Z M425.429,374.264 L414.178,381.244 L426.594,387.621 L437.845,380.642 L425.429,374.264 Z M451.124741,373.580667 L439.875,380.559 L452.29,386.936 L463.539601,379.957194 C459.203541,377.730104 455.065254,375.604596 451.124741,373.580667 Z M476.820636,372.895961 L465.569131,379.875411 C469.543567,381.916762 473.682112,384.042404 477.984767,386.252336 L489.237522,379.273528 C484.934822,377.063573 480.79586,374.937717 476.820636,372.895961 Z M502.516,372.212 L491.265749,379.191076 C495.264698,381.245017 499.403605,383.370845 503.68247,385.568557 L514.933,378.59 L502.516,372.212 Z M283.492,370.773 L280.889639,372.388158 L280.888,372.388 L272.239,377.753 L284.655,384.13 L293.816693,378.447983 L293.824,378.443 L295.908,377.15 L283.492,370.773 Z M309.187,370.089 L297.937,377.068 L310.353,383.445 L321.603,376.466 L309.187,370.089 Z M334.885,369.405 L323.633,376.385 L336.049,382.762 L347.301,375.782 L334.885,369.405 Z M360.581,368.721 L349.33,375.7 L361.746085,382.077487 C366.066009,379.397719 369.816776,377.071015 372.998385,375.097375 L360.581,368.721 Z M400.723849,374.333303 L413.14,380.71 L424.391,373.731 L411.97405,367.354493 C407.812288,369.936148 404.062221,372.262418 400.723849,374.333303 Z M437.671126,366.670615 L426.421,373.649 L438.837,380.026 L450.086074,373.047187 C445.698117,370.793442 441.559801,368.667918 437.671126,366.670615 Z M463.367045,365.985921 L452.116699,372.965966 C456.056791,374.989678 460.195108,377.115202 464.531649,379.342539 L475.782824,372.362919 C471.446567,370.135729 467.307974,368.010063 463.367045,365.985921 Z M489.062,365.302 L477.812297,372.281107 C481.786769,374.322477 485.925238,376.44808 490.227704,378.657914 L501.478,371.679 L489.062,365.302 Z M295.734,363.179 L284.483,370.158 L296.9,376.535 L308.15,369.556 L295.734,363.179 Z M321.43,362.495 L310.178,369.474 L322.595,375.852 L333.847,368.872 L321.43,362.495 Z M347.127,361.811 L335.876,368.79 L348.292,375.167 L359.543,368.188 L347.127,361.811 Z M424.216153,359.759865 L423.530285,360.185842 C419.761622,362.523647 416.240054,364.708173 412.965583,366.739417 L425.383,373.116 L436.632589,366.137201 C432.155064,363.837453 428.016252,361.711674 424.216153,359.759865 Z M449.913358,359.075831 L438.662033,366.055374 C442.550208,368.052421 446.688774,370.178072 451.077729,372.43233 L462.32899,365.452755 C457.940998,363.198992 453.802454,361.073351 449.913358,359.075831 Z M475.609,358.392 L464.35835,365.370884 C468.299115,367.394942 472.438006,369.520761 476.775021,371.748341 L488.024,364.769 L475.609,358.392 Z M307.976,355.585 L296.724,362.565 L309.141,368.942 L320.393,361.962 L307.976,355.585 Z M333.672,354.901 L322.421,361.88 L334.838,368.257 L346.089,361.278 L333.672,354.901 Z M436.459118,352.165458 L436.028002,352.433164 C432.226041,354.791625 428.619042,357.029146 425.207003,359.145728 L424.684228,358.876087 C428.625368,360.900337 432.938631,363.115718 437.62402,365.522229 L448.874755,358.542384 C444.397947,356.243003 440.259401,354.117362 436.459118,352.165458 Z M462.155,351.482 L450.904894,358.460913 C454.793126,360.457989 458.931476,362.583531 463.319944,364.837537 L474.57,357.859 L462.155,351.482 Z M320.218,347.991 L308.968,354.97 L321.384,361.347 L332.635,354.368 L320.218,347.991 Z M448.701,344.571 L449.187414,344.270018 C445.092107,346.81045 441.179719,349.237412 437.450249,351.550905 L436.88883,351.261976 C440.840572,353.291671 445.166293,355.513451 449.865994,357.927313 L461.116,350.948 L448.701,344.571 Z"/>
    <g transform="translate(84.59 135.75)">
      <mask id="lego-comp-test-d" fill="#fff">
        <use xlink:href="#lego-comp-test-a"/>
      </mask>
      <use fill="url(#lego-comp-test-b)" xlink:href="#lego-comp-test-a"/>
      <rect width="491" height="420" x="-29.59" y="-111.75" fill="url(#lego-comp-test-c)" mask="url(#lego-comp-test-d)"/>
    </g>
    <g stroke="#FFA6ED" stroke-linecap="round" stroke-linejoin="round" transform="translate(0 70.46)">
      <g transform="translate(328.75 340.3)">
        <line x2="61.21" y1="37.97"/>
        <line x1="128.27" x2="61" y1="34.55"/>
      </g>
      <line x2="67.27" y1="139.3" y2="173.86"/>
      <line x1="6.06" x2="67.27" y1="211.83" y2="173.86"/>
      <line x1="677.27" x2="610" y1="238.07" y2="203.51"/>
      <line x1="671.21" x2="610" y1="165.54" y2="203.51"/>
      <line x1="351.33" x2="297.04" y2="33.68"/>
      <line x1="284.63" x2="222.85" y1="35.15" y2="3.42"/>
    </g>
    <g transform="translate(66.9 79.35)">
      <polyline fill="#FC74DF" points="322.97 331.12 322.97 302.56 543.3 165.88 543.3 194.44 322.97 331.12 175.12 255.19 175.12 226.62 322.97 302.56"/>
      <path fill="url(#lego-comp-test-e)" d="M220.332,5.96855898e-13 L543.296,165.88 L322.966,302.556 L175.122,226.622 L182.784,221.87 L322.208,293.478 L461.478,207.085 L389.2474,169.9798 L315.7014,215.6018 L154.0494,132.5758 L227.5954,86.9538 L155.646,49.671 L16.082,136.248 L155.504,207.858 L147.844,212.61 L-6.59383659e-12,136.676 L220.332,5.96855898e-13 Z"/>
      <polygon fill="#FC74DF" points="181.96 221.43 174.29 226.18 174.29 254.75 148.7 241.6 148.7 213.03 156.36 208.28"/>
      <polygon fill="url(#lego-comp-test-f)" points="220.81 167.73 247.41 181.4 183.21 221.22 156.61 207.56"/>
      <line x1="174.3" x2="148.7" y1="226.18" y2="213.03" stroke="#FF83E6" stroke-linejoin="round"/>
      <polygon fill="#FC74DF" points="0 165.24 0 136.68 147.84 212.61 147.84 241.18"/>
    </g>
    <g stroke="#FFA6ED" stroke-linecap="round" stroke-linejoin="round" transform="translate(214 79)">
      <polyline points="73.45 0 127.34 27.68 127.34 27.68 326.26 129.84 326.26 129.84 396.42 165.88"/>
      <polyline points="61.21 7.59 115.09 35.27 115.09 35.27 314.02 137.44 314.02 137.44 384.18 173.47"/>
      <polyline points="48.97 15.19 102.85 42.86 102.85 42.86 301.78 145.03 301.78 145.03 371.93 181.07"/>
      <polyline points="36.73 22.78 90.61 50.46 90.61 50.46 289.53 152.63 289.54 152.63 359.69 188.66"/>
      <polyline points="155.33 208.64 274.91 134.46 274.91 134.46 302.24 117.51"/>
      <polyline points="0 45.56 53.88 73.24 53.88 73.24 80.79 87.06 80.79 87.06 7.34 132.63 168.79 215.55 242.24 169.98 252.81 175.41 252.81 175.41 322.97 211.44 242.24 169.98 168.79 215.55"/>
      <polyline points="20.79 139.54 140.37 65.36 140.37 65.36 167.7 48.41"/>
      <line x1="19.58" x2="181.03" y1="125.03" y2="207.95"/>
      <polyline points="80.79 87.06 126.92 58.45 126.92 58.45 154.25 41.5"/>
      <polyline points="67.34 80.15 113.46 51.54 113.46 51.54 140.79 34.58"/>
      <polyline points="141.88 201.73 261.46 127.55 261.46 127.55 288.79 110.6"/>
      <polyline points="24.48 30.38 115.84 77.3 115.84 77.3 185.55 113.1 186.45 113.56 253.27 147.88 253.27 147.88 347.45 196.26"/>
      <polyline points="203.84 136.38 265.05 167.82 265.05 167.82 335.21 203.85"/>
      <polyline points="12.24 37.97 103.6 84.89 103.6 84.89 143.67 105.48"/>
      <line x1="189.64" x2="230" y1="156.85" y2="177.58"/>
      <line x1="68.55" x2="108.91" y1="94.65" y2="115.38"/>
      <polyline points="203.56 132.96 212.91 127.15 212.91 127.15 261.88 96.78"/>
      <line x1="114.97" x2="148.81" y1="187.91" y2="166.92"/>
      <polyline points="31.82 117.44 112.55 158.9 112.55 158.9 193.27 200.36"/>
      <polyline points="149.74 105.31 159.09 99.51 159.09 99.51 208.06 69.14"/>
      <line x1="61.15" x2="94.99" y1="160.27" y2="139.28"/>
      <polyline points="199.57 148.07 228.79 163.07 228.79 163.07 242.24 169.98"/>
      <polyline points="80.79 87.06 91.36 92.49 91.36 92.49 123.46 108.98"/>
      <polyline points="47.7 153.36 108.91 115.38 108.91 115.39 145.64 92.6 145.64 92.6 194.61 62.23"/>
      <polyline points="170.45 107.73 172.55 106.42 172.55 106.42 221.51 76.05"/>
      <line x1="74.61" x2="101.19" y1="167.18" y2="150.69"/>
      <line x1="175.09" x2="217.76" y1="163.25" y2="185.17"/>
      <line x1="56.31" x2="98.98" y1="102.25" y2="124.17"/>
      <line x1="154.87" x2="205.51" y1="166.76" y2="192.77"/>
      <line x1="44.07" x2="94.71" y1="109.84" y2="135.85"/>
      <polyline points="128.42 194.82 189.64 156.85 189.64 156.85 226.36 134.06 226.36 134.06 275.33 103.69"/>
      <polyline points="197.35 121.55 221.1 106.82 221.1 106.82 248.42 89.87"/>
      <line x1="101.52" x2="128.1" y1="181" y2="164.51"/>
      <line x1="88.06" x2="112.55" y1="174.09" y2="158.9"/>
      <path d="M112.996,159.1262 C128.61,166.9682 149.08,168.4762 165.828,165.4662 C174.926,163.8322 183.128,161.2242 190.954,156.0002 C198.096,151.2282 204.996,143.5262 203.69,133.7902 C202.436,124.4422 194.274,117.7742 186.934,113.8242 C178.73,109.4082 170.334,107.2122 161.196,106.0562 C144.592,103.9602 123.762,106.1742 108.912,115.3842 C91.0193973,126.481228 126.803572,104.286311 108.912,115.385 C87.978,128.371 91.086,147.631 112.102,158.667"/>
      <polyline points="34.25 146.45 153.83 72.27 153.83 72.27 181.15 55.32"/>
      <line x1="186" x2="234.97" y1="113.33" y2="82.96"/>
      <polyline points="282.6 190.71 328.73 162.1 328.73 162.1 356.06 145.15"/>
      <polyline points="242.24 169.98 288.37 141.37 288.37 141.37 315.69 124.42"/>
      <polyline points="255.7 176.89 301.82 148.28 301.82 148.28 329.15 131.33"/>
      <polyline points="322.97 211.44 369.09 182.83 369.09 182.83 396.42 165.88"/>
      <polyline points="296.06 197.62 342.18 169.01 342.18 169.01 369.51 152.06"/>
      <polyline points="269.15 183.8 315.28 155.19 315.28 155.19 342.6 138.24"/>
      <polyline points="309.51 204.53 355.64 175.92 355.64 175.92 382.97 158.97"/>
      <polyline points="26.98 59.42 73.1 30.81 73.1 30.81 100.43 13.85"/>
      <polyline points="53.88 73.24 100.01 44.63 100.01 44.63 127.34 27.67"/>
      <polyline points="40.43 66.33 86.56 37.72 86.56 37.72 113.88 20.76"/>
      <polyline points="13.52 52.51 59.65 23.89 59.65 23.9 86.98 6.94"/>
      <polyline points=".07 45.6 46.19 16.98 46.19 16.99 73.52 .03"/>
    </g>
    <g transform="translate(23 141.95)">
      <g transform="translate(627.67 101.18)">
        <path fill="#FC99E7" d="M0.0336487047,20.6617228 C-0.0763512953,14.4017228 4.7596487,9.62772281 9.4336487,6.72972281 C19.9476487,0.205722806 36.7976487,-1.49427719 48.5036487,1.27972281 C52.7656487,2.14772281 56.7736487,3.41772281 60.6616487,5.41372281 C66.1396487,8.22772281 72.6036487,13.4117228 72.5658155,20.6577228 L72.5658155,28.9317228 C72.5658155,37.0317228 64.5856487,42.4537228 58.4376487,45.1157228 C51.2076487,48.2457228 44.0676487,49.3437228 36.2816487,49.3278948 C28.4916487,49.3097228 21.3496487,48.1757228 14.1296487,45.0157228 C7.9976487,42.3317228 0.0336487047,36.8817228 0.0336487047,28.7917228 C0.0336487047,26.0817228 0.0336487047,23.3717228 0.0336487047,20.6617228 Z"/>
        <ellipse cx="36" cy="19.5" fill="url(#lego-comp-test-g)" rx="32" ry="16.5"/>
        <use fill="url(#lego-comp-test-h)" xlink:href="#lego-comp-test-i"/>
        <use fill="#D8D8D8" fill-opacity=".64" xlink:href="#lego-comp-test-i" style="mix-blend-mode:luminosity"/>
        <use fill="url(#lego-comp-test-j)" xlink:href="#lego-comp-test-k"/>
        <use fill="#D8D8D8" fill-opacity=".64" xlink:href="#lego-comp-test-k" style="mix-blend-mode:luminosity"/>
        <g stroke="#FFDCF8" stroke-linecap="round" stroke-linejoin="round" transform="translate(22.18 13.5)">
          <line x1="26.76" x2="1.47" y2="15.68"/>
          <line x1="28.23" y1="15.09" y2=".59"/>
        </g>
      </g>
      <g transform="translate(97 216.05)">
        <path fill="#FC99E7" d="M0.0336487047,20.6617228 C-0.0763512953,14.4017228 4.7596487,9.62772281 9.4336487,6.72972281 C19.9476487,0.205722806 36.7976487,-1.49427719 48.5036487,1.27972281 C52.7656487,2.14772281 56.7736487,3.41772281 60.6616487,5.41372281 C66.1396487,8.22772281 72.6036487,13.4117228 72.5658155,20.6577228 L72.5658155,28.9317228 C72.5658155,37.0317228 64.5856487,42.4537228 58.4376487,45.1157228 C51.2076487,48.2457228 44.0676487,49.3437228 36.2816487,49.3278948 C28.4916487,49.3097228 21.3496487,48.1757228 14.1296487,45.0157228 C7.9976487,42.3317228 0.0336487047,36.8817228 0.0336487047,28.7917228 C0.0336487047,26.0817228 0.0336487047,23.3717228 0.0336487047,20.6617228 Z"/>
        <ellipse cx="36" cy="19.5" fill="url(#lego-comp-test-g)" rx="32" ry="16.5"/>
        <use fill="url(#lego-comp-test-h)" xlink:href="#lego-comp-test-l"/>
        <use fill="#D8D8D8" fill-opacity=".64" xlink:href="#lego-comp-test-l" style="mix-blend-mode:luminosity"/>
        <use fill="url(#lego-comp-test-j)" xlink:href="#lego-comp-test-m"/>
        <use fill="#D8D8D8" fill-opacity=".64" xlink:href="#lego-comp-test-m" style="mix-blend-mode:luminosity"/>
        <g stroke="#FFDCF8" stroke-linecap="round" stroke-linejoin="round" transform="translate(22.18 13.5)">
          <line x1="26.76" x2="1.47" y2="15.68"/>
          <line x1="28.23" y1="15.09" y2=".59"/>
        </g>
      </g>
      <g transform="translate(0 .55)">
        <path fill="#FC99E7" d="M0.0336487047,20.6617228 C-0.0763512953,14.4017228 4.7596487,9.62772281 9.4336487,6.72972281 C19.9476487,0.205722806 36.7976487,-1.49427719 48.5036487,1.27972281 C52.7656487,2.14772281 56.7736487,3.41772281 60.6616487,5.41372281 C66.1396487,8.22772281 72.6036487,13.4117228 72.5658155,20.6577228 L72.5658155,28.9317228 C72.5658155,37.0317228 64.5856487,42.4537228 58.4376487,45.1157228 C51.2076487,48.2457228 44.0676487,49.3437228 36.2816487,49.3278948 C28.4916487,49.3097228 21.3496487,48.1757228 14.1296487,45.0157228 C7.9976487,42.3317228 0.0336487047,36.8817228 0.0336487047,28.7917228 C0.0336487047,26.0817228 0.0336487047,23.3717228 0.0336487047,20.6617228 Z"/>
        <ellipse cx="36" cy="19.5" fill="url(#lego-comp-test-g)" rx="32" ry="16.5"/>
        <use fill="url(#lego-comp-test-h)" xlink:href="#lego-comp-test-n"/>
        <use fill="#D8D8D8" fill-opacity=".64" xlink:href="#lego-comp-test-n" style="mix-blend-mode:luminosity"/>
        <use fill="url(#lego-comp-test-j)" xlink:href="#lego-comp-test-o"/>
        <use fill="#D8D8D8" fill-opacity=".64" xlink:href="#lego-comp-test-o" style="mix-blend-mode:luminosity"/>
        <g stroke="#FFDCF8" stroke-linecap="round" stroke-linejoin="round" transform="translate(22.18 13.5)">
          <line x1="26.76" x2="1.47" y2="15.68"/>
          <line x1="28.23" y1="15.09" y2=".59"/>
        </g>
      </g>
      <g transform="translate(471 228.05)">
        <path fill="#FC99E7" d="M0.0336487047,20.6617228 C-0.0763512953,14.4017228 4.7596487,9.62772281 9.4336487,6.72972281 C19.9476487,0.205722806 36.7976487,-1.49427719 48.5036487,1.27972281 C52.7656487,2.14772281 56.7736487,3.41772281 60.6616487,5.41372281 C66.1396487,8.22772281 72.6036487,13.4117228 72.5658155,20.6577228 L72.5658155,28.9317228 C72.5658155,37.0317228 64.5856487,42.4537228 58.4376487,45.1157228 C51.2076487,48.2457228 44.0676487,49.3437228 36.2816487,49.3278948 C28.4916487,49.3097228 21.3496487,48.1757228 14.1296487,45.0157228 C7.9976487,42.3317228 0.0336487047,36.8817228 0.0336487047,28.7917228 C0.0336487047,26.0817228 0.0336487047,23.3717228 0.0336487047,20.6617228 Z"/>
        <ellipse cx="36" cy="19.5" fill="url(#lego-comp-test-g)" rx="32" ry="16.5"/>
        <use fill="url(#lego-comp-test-h)" xlink:href="#lego-comp-test-p"/>
        <use fill="#D8D8D8" fill-opacity=".64" xlink:href="#lego-comp-test-p" style="mix-blend-mode:luminosity"/>
        <use fill="url(#lego-comp-test-j)" xlink:href="#lego-comp-test-q"/>
        <use fill="#D8D8D8" fill-opacity=".64" xlink:href="#lego-comp-test-q" style="mix-blend-mode:luminosity"/>
        <g stroke="#FFDCF8" stroke-linecap="round" stroke-linejoin="round" transform="translate(22.18 13.5)">
          <line x1="26.76" x2="1.47" y2="15.68"/>
          <line x1="28.23" y1="15.09" y2=".59"/>
        </g>
      </g>
      <g transform="translate(396 125.05)">
        <path fill="#FC99E7" d="M0.0336487047,20.6617228 C-0.0763512953,14.4017228 4.7596487,9.62772281 9.4336487,6.72972281 C19.9476487,0.205722806 36.7976487,-1.49427719 48.5036487,1.27972281 C52.7656487,2.14772281 56.7736487,3.41772281 60.6616487,5.41372281 C66.1396487,8.22772281 72.6036487,13.4117228 72.5658155,20.6577228 L72.5658155,28.9317228 C72.5658155,37.0317228 64.5856487,42.4537228 58.4376487,45.1157228 C51.2076487,48.2457228 44.0676487,49.3437228 36.2816487,49.3278948 C28.4916487,49.3097228 21.3496487,48.1757228 14.1296487,45.0157228 C7.9976487,42.3317228 0.0336487047,36.8817228 0.0336487047,28.7917228 C0.0336487047,26.0817228 0.0336487047,23.3717228 0.0336487047,20.6617228 Z"/>
        <ellipse cx="36" cy="19.5" fill="url(#lego-comp-test-g)" rx="32" ry="16.5"/>
        <use fill="url(#lego-comp-test-h)" xlink:href="#lego-comp-test-r"/>
        <use fill="#D8D8D8" fill-opacity=".64" xlink:href="#lego-comp-test-r" style="mix-blend-mode:luminosity"/>
        <use fill="url(#lego-comp-test-j)" xlink:href="#lego-comp-test-s"/>
        <use fill="#D8D8D8" fill-opacity=".64" xlink:href="#lego-comp-test-s" style="mix-blend-mode:luminosity"/>
        <g stroke="#FFDCF8" stroke-linecap="round" stroke-linejoin="round" transform="translate(22.18 13.5)">
          <line x1="26.76" x2="1.47" y2="15.68"/>
          <line x1="28.23" y1="15.09" y2=".59"/>
        </g>
      </g>
      <g transform="translate(53 153.05)">
        <path fill="#FC99E7" d="M0.0336487047,20.6617228 C-0.0763512953,14.4017228 4.7596487,9.62772281 9.4336487,6.72972281 C19.9476487,0.205722806 36.7976487,-1.49427719 48.5036487,1.27972281 C52.7656487,2.14772281 56.7736487,3.41772281 60.6616487,5.41372281 C66.1396487,8.22772281 72.6036487,13.4117228 72.5658155,20.6577228 L72.5658155,28.9317228 C72.5658155,37.0317228 64.5856487,42.4537228 58.4376487,45.1157228 C51.2076487,48.2457228 44.0676487,49.3437228 36.2816487,49.3278948 C28.4916487,49.3097228 21.3496487,48.1757228 14.1296487,45.0157228 C7.9976487,42.3317228 0.0336487047,36.8817228 0.0336487047,28.7917228 C0.0336487047,26.0817228 0.0336487047,23.3717228 0.0336487047,20.6617228 Z"/>
        <ellipse cx="36" cy="19.5" fill="url(#lego-comp-test-g)" rx="32" ry="16.5"/>
        <use fill="url(#lego-comp-test-h)" xlink:href="#lego-comp-test-t"/>
        <use fill="#D8D8D8" fill-opacity=".64" xlink:href="#lego-comp-test-t" style="mix-blend-mode:luminosity"/>
        <use fill="url(#lego-comp-test-j)" xlink:href="#lego-comp-test-u"/>
        <use fill="#D8D8D8" fill-opacity=".64" xlink:href="#lego-comp-test-u" style="mix-blend-mode:luminosity"/>
        <g stroke="#FFDCF8" stroke-linecap="round" stroke-linejoin="round" transform="translate(22.18 13.5)">
          <line x1="26.76" x2="1.47" y2="15.68"/>
          <line x1="28.23" y1="15.09" y2=".59"/>
        </g>
      </g>
      <path fill="#FC74DF" d="M91.9,157.034853 C91.9,156.102853 91.156,153.306853 92.706,154.102853 C93.852,154.692853 94.998,155.280853 96.144,155.868853 C97.288,156.456853 98.434,157.044853 99.58,157.632853 C100.42,158.064853 100.15,160.686853 100.15,161.272853 L102.626,162.542853 L102.626,180.490853 C93.74,175.926853 84.856,171.364853 75.972,166.800853 L75.972,148.852853 C76.796,149.276853 77.62,149.700853 78.446,150.124853 C78.446,149.192853 77.702,146.396853 79.252,147.192853 C80.398,147.782853 81.544,148.368853 82.69,148.958853 C83.834,149.546853 84.98,150.134853 86.126,150.722853 C86.966,151.154853 86.696,153.776853 86.696,154.362853 C88.432,155.252853 90.166,156.144853 91.9,157.034853 Z"/>
    </g>
    <g transform="translate(309.5 168)">
      <path fill="#FC99E7" d="M0.2934,46.5026 C0.2934,58.4926 12.0954,66.5446 21.1914,70.5086 C31.8954,75.1706 42.4734,76.8266 54.0134,76.8266 C65.5514,76.8266 76.1294,75.1726 86.8334,70.5106 C95.9314,66.5486 107.740005,58.4966 107.740005,46.5026 C107.740005,41.4186 107.740005,36.3366 107.740005,31.2526 C107.8374,19.2086 96.0034,11.1066 86.8814,7.1246 C76.1474,2.4386 65.5394,0.7826 53.9634,0.788583763 C42.3894,0.7946 31.7854,2.4606 21.0574,7.1666 C11.9334,11.1666 0.1174,19.2986 0.2934,31.3646 C0.2934,36.4106 0.2934,41.4566 0.2934,46.5026 Z"/>
      <use fill="url(#lego-comp-test-v)" xlink:href="#lego-comp-test-w"/>
      <use fill="#D8D8D8" fill-opacity=".64" xlink:href="#lego-comp-test-w" style="mix-blend-mode:luminosity"/>
      <mask id="lego-comp-test-A" fill="#fff">
        <use xlink:href="#lego-comp-test-x"/>
      </mask>
      <use fill="url(#lego-comp-test-y)" xlink:href="#lego-comp-test-x"/>
      <use fill="#D8D8D8" fill-opacity=".64" xlink:href="#lego-comp-test-x" style="mix-blend-mode:luminosity"/>
      <ellipse cx="53.5" cy="-4.5" fill="url(#lego-comp-test-z)" mask="url(#lego-comp-test-A)" rx="110.5" ry="35"/>
      <path fill="#FEA1EB" d="M72.9566,8.7556 C80.0926,10.9256 89.1826,15.3196 92.6686,22.9716 C95.0326304,28.1553634 93.8999218,32.9013483 91.1466198,36.8180881 L91.0363591,36.8171053 L91.0151328,36.5919722 C89.594501,23.8909464 71.97854,18.84852 62.4092,17.5932 C51.0512,16.1032 36.7592,17.5872 26.5912,23.8952 C22.1277106,26.6634409 17.5031256,31.0903706 16.9834727,36.9300628 L16.928087,36.9301758 C16.3277812,36.0694295 15.8009516,35.159259 15.3626,34.1976 C11.3286,25.3456 17.4846,17.7716 24.4966,13.4216 C38.0006,5.0456 58.4006,4.3236 72.9566,8.7556 Z"/>
    </g>
    <g stroke="#FFDCF8" stroke-linecap="round" stroke-linejoin="round" transform="translate(75 .95)">
      <path d="M261.606,50.6248 C222.022,19.8708 170.406,-0.8952 118.96,1.0808 C66.314,3.1048 17.626,30.0388 0.778,83.4388"/>
      <line x1="261.61" x2="259.93" y1="50.62" y2="44.79"/>
      <line x1="255.55" x2="261.61" y1="50.68" y2="50.62"/>
      <line x1="288.02" x2="288.02" y1="91.97" y2="195.33"/>
      <line x1="284.44" x2="288.02" y1="189.51" y2="195.33"/>
      <line x1="288.02" x2="291.59" y1="195.33" y2="193.17"/>
      <path d="M366.610025,238.977941 C361.19646,228.348488 354.779973,218.242275 347.5088,209.463 C339.5968,199.909 331.5728,191.827 319.7168,186.783 C315.048435,184.796994 310.458156,183.842165 306.143583,184.066323 C304.406395,184.156576 302.713903,184.437958 301.079006,184.920117"/>
    </g>
    <path fill="#FC74DF" d="M55.3032 89.6354631C55.7612 89.7194631 55.4232 89.1874631 55.4232 88.9474631L55.4232 88.1354631C55.4232 87.6154631 54.9472 87.0954631 55.5372 86.5894631 56.0832 86.1194631 58.0132 87.6454631 58.3672 87.8294631 58.9852 88.1454631 63.5912 89.8954631 63.5912 91.0814631L63.5912 92.5354631C63.5912 93.0134631 63.1672 93.4954631 63.7112 93.9534631 69.0272 96.6934631 68.0112 98.6054631 68.0112 103.615463 68.0112 105.559463 68.1492 107.497463 68.0032 109.447463 67.9072 110.731463 67.3412 111.307463 66.0352 110.967463 65.6792 110.873463 64.9792 110.219463 64.9792 110.923463L64.9792 112.383463C65.6792 112.743463 68.9152 114.101463 69.0632 115.281463 69.1332 115.745463 69.2012 116.207463 69.2712 116.669463L69.2732 116.669463C69.3032 116.661463 69.3292 116.663463 69.3592 116.675463 69.3632 116.675463 69.3652 116.677463 69.3692 116.679463 73.4532 118.107463 74.9752 124.315463 76.1572 127.339463 77.7712 131.471463 78.5132 135.701463 79.1132 140.045463 80.7692 142.247463 80.7572 144.651463 81.1692 147.101463 81.4652 148.651463 80.9552 148.643463 79.5992 148.237463 79.3032 148.063463 79.4852 147.797463 79.4352 147.573463 80.2672 146.403463 78.5832 144.583463 77.7872 143.973463 77.1952 143.521463 76.6432 143.215463 75.8532 143.237463 74.9392 143.263463 74.5612 143.643463 74.4352 144.533463 74.3392 145.177463 74.4632 145.665463 74.8372 146.193463 74.8512 146.401463 75.2552 146.873463 74.8452 146.813463 72.7572 146.187463 72.7952 144.637463 72.5112 142.955463 72.2352 141.311463 71.3112 139.851463 72.6232 138.129463 72.0092 134.079463 71.4072 130.025463 70.7692 125.977463 70.6412 125.939463 70.5152 125.901463 70.3872 125.863463 70.8292 129.389463 71.2692 132.915463 71.7112 136.439463L71.7112 163.641463C72.6832 164.141463 72.0572 169.223463 72.0572 169.853463L60.0692 163.695463 60.0692 157.663463C60.0772 157.667463 60.0852 157.671463 60.0932 157.675463L60.0932 149.933463C59.7032 149.733463 59.3112 149.533463 58.9212 149.331463L58.9212 157.073463C58.9292 157.077463 58.9372 157.081463 58.9452 157.087463L58.9452 163.119463C54.9492 161.065463 50.9532 159.013463 46.9572 156.961463L46.9572 153.813463 46.9572 152.241463C46.9572 151.811463 46.5992 150.745463 47.3032 151.105463L47.3032 123.903463C47.7452 120.831463 48.1852 117.759463 48.6272 114.685463 48.4992 114.593463 48.3732 114.501463 48.2452 114.409463 47.6032 117.821463 47.0052 121.241463 46.3912 124.657463 47.0772 126.229463 46.9012 127.633463 46.5832 129.203463 46.1852 131.157463 46.3312 132.629463 44.1692 131.055463 43.9292 130.843463 44.1632 130.651463 44.1792 130.447463 44.8352 130.195463 44.6572 129.717463 44.5792 129.199463 44.3712 127.509463 43.5972 126.549463 42.2212 125.655463 40.7272 124.681463 38.7972 125.261463 39.5792 127.101463 39.5312 127.269463 39.7332 127.737463 39.4152 127.597463 38.4172 126.873463 37.5052 126.349463 37.8452 124.849463 38.0552 123.815463 38.3412 120.371463 39.9012 119.903463 40.4192 116.663463 40.7112 113.531463 42.6212 110.597463 44.3992 107.867463 45.5972 103.807463 49.6452 106.549463 49.6492 106.549463 49.6512 106.551463 49.6552 106.553463 49.6892 106.577463 49.7172 106.603463 49.7412 106.637463L49.7432 106.639463C49.8132 106.249463 49.8832 105.857463 49.9512 105.465463 50.1372 104.175463 51.2412 105.327463 51.8992 105.665463 52.6112 106.031463 53.3232 106.397463 54.0352 106.761463L54.0352 105.349463C54.0352 104.677463 53.4832 104.621463 53.0932 104.345463 52.2392 103.739463 51.7192 103.013463 51.3332 102.055463 50.5332 100.071463 51.0032 98.1914631 51.0032 96.2454631L51.0032 90.3914631C51.0032 87.5254631 53.5372 88.7314631 55.3032 89.6354631zM466.1196 250.364684C466.5616 253.890684 467.0016 257.416684 467.4436 260.942684L467.4436 288.144684C468.4156 288.642684 467.7896 293.724684 467.7896 294.354684 463.7916 292.300684 459.7956 290.248684 455.7996 288.196684L455.7996 282.162684C455.8076 282.166684 455.8176 282.172684 455.8256 282.176684L455.8256 274.434684C455.4336 274.234684 455.0436 274.032684 454.6536 273.832684L454.6536 281.574684C454.6616 281.578684 454.6696 281.582684 454.6776 281.586684L454.6776 287.618684C450.6816 285.566684 446.6856 283.514684 442.6896 281.462684L442.6896 278.316684 442.6896 276.742684C442.6896 276.312684 442.3296 275.244684 443.0356 275.606684L443.0356 248.406684C443.4756 245.332684 443.9176 242.260684 444.3596 239.188684 444.2316 239.094684 444.1036 239.002684 443.9776 238.908684 443.3356 242.322684 442.7376 245.740684 442.1236 249.158684 442.8076 250.730684 442.6336 252.132684 442.3136 253.704684 441.9176 255.656684 442.0616 257.130684 439.8996 255.558684 439.6596 255.346684 439.8936 255.152684 439.9116 254.948684 440.5656 254.698684 440.3896 254.218684 440.3116 253.700684 440.1036 252.010684 439.3296 251.050684 437.9536 250.156684 436.4576 249.182684 434.5276 249.762684 435.3096 251.602684 435.2636 251.770684 435.4656 252.238684 435.1456 252.098684 434.1496 251.374684 433.2356 250.850684 433.5776 249.352684 433.7876 248.316684 434.0736 244.872684 435.6316 244.406684 436.1516 241.162684 436.4436 238.032684 438.3536 235.098684 440.1316 232.368684 441.3296 228.308684 445.3756 231.048684 445.3796 231.050684 445.3836 231.052684 445.3876 231.056684 445.4196 231.078684 445.4496 231.106684 445.4736 231.138684 445.4736 231.138684 445.4756 231.140684 445.4756 231.142684 445.5436 230.750684 445.6136 230.358684 445.6836 229.966684 445.8696 228.674684 446.9736 229.828684 447.6316 230.166684 448.3436 230.532684 449.0556 230.898684 449.7656 231.262684L449.7656 229.852684C449.7656 229.178684 449.2156 229.122684 448.8256 228.846684 447.9716 228.240684 447.4496 227.514684 447.0636 226.556684 446.2656 224.572684 446.7356 222.692684 446.7356 220.746684L446.7356 214.892684C446.7356 212.026684 449.2676 213.232684 451.0356 214.136684 451.4936 214.220684 451.1556 213.688684 451.1556 213.448684L451.1556 212.636684C451.1556 212.116684 450.6796 211.596684 451.2696 211.088684 451.8156 210.620684 453.7456 212.148684 454.0996 212.328684 454.7176 212.646684 459.3236 214.396684 459.3236 215.582684L459.3236 217.036684C459.3236 217.514684 458.8996 217.996684 459.4436 218.454684 464.7596 221.196684 463.7436 223.108684 463.7436 228.114684 463.7436 230.060684 463.8816 231.998684 463.7356 233.948684 463.6396 235.232684 463.0716 235.810684 461.7676 235.468684 461.4116 235.374684 460.7116 234.720684 460.7116 235.424684L460.7116 236.884684C461.4116 237.242684 464.6476 238.602684 464.7956 239.782684 464.8656 240.244684 464.9336 240.708684 465.0016 241.170684 465.0036 241.170684 465.0036 241.170684 465.0056 241.170684 465.0356 241.162684 465.0616 241.164684 465.0916 241.176684 465.0936 241.176684 465.0976 241.178684 465.1016 241.180684 469.1856 242.610684 470.7076 248.816684 471.8896 251.840684 473.5036 255.974684 474.2456 260.202684 474.8456 264.544684 476.4996 266.748684 476.4896 269.154684 476.9016 271.602684 477.1976 273.154684 476.6876 273.144684 475.3316 272.738684 475.0356 272.564684 475.2156 272.296684 475.1676 272.072684 475.9996 270.904684 474.3136 269.082684 473.5196 268.476684 472.9276 268.022684 472.3756 267.714684 471.5836 267.738684 470.6696 267.764684 470.2916 268.144684 470.1676 269.034684 470.0716 269.678684 470.1936 270.166684 470.5676 270.696684 470.5836 270.902684 470.9876 271.372684 470.5776 271.314684 468.4896 270.688684 468.5256 269.140684 468.2436 267.454684 467.9676 265.812684 467.0436 264.352684 468.3536 262.630684 467.7416 258.578684 467.1396 254.526684 466.5016 250.478684 466.3736 250.440684 466.2456 250.402684 466.1196 250.364684z"/>
    <g transform="translate(326.5 64)">
      <path fill="#FC99E7" d="M0.0336487047,20.6617228 C-0.0763512953,14.4017228 4.7596487,9.62772281 9.4336487,6.72972281 C19.9476487,0.205722806 36.7976487,-1.49427719 48.5036487,1.27972281 C52.7656487,2.14772281 56.7736487,3.41772281 60.6616487,5.41372281 C66.1396487,8.22772281 72.6036487,13.4117228 72.5658155,20.6577228 L72.5658155,28.9317228 C72.5658155,37.0317228 64.5856487,42.4537228 58.4376487,45.1157228 C51.2076487,48.2457228 44.0676487,49.3437228 36.2816487,49.3278948 C28.4916487,49.3097228 21.3496487,48.1757228 14.1296487,45.0157228 C7.9976487,42.3317228 0.0336487047,36.8817228 0.0336487047,28.7917228 C0.0336487047,26.0817228 0.0336487047,23.3717228 0.0336487047,20.6617228 Z"/>
      <ellipse cx="36" cy="19.5" fill="url(#lego-comp-test-g)" rx="32" ry="16.5"/>
      <use fill="url(#lego-comp-test-h)" xlink:href="#lego-comp-test-B"/>
      <use fill="#D8D8D8" fill-opacity=".64" xlink:href="#lego-comp-test-B" style="mix-blend-mode:luminosity"/>
      <use fill="url(#lego-comp-test-j)" xlink:href="#lego-comp-test-C"/>
      <use fill="#D8D8D8" fill-opacity=".64" xlink:href="#lego-comp-test-C" style="mix-blend-mode:luminosity"/>
      <g stroke="#FFDCF8" stroke-linecap="round" stroke-linejoin="round" transform="translate(22.18 13.5)">
        <line x1="26.76" x2="1.47" y2="15.68"/>
        <line x1="28.23" y1="15.09" y2=".59"/>
      </g>
    </g>
    <path fill="#FC74DF" d="M358.812,11.1362 C359.27,11.2202 358.934,10.6882 358.934,10.4482 L358.934,9.6362 C358.934,9.1182 358.456,8.5962 359.046,8.0902 C359.592,7.6222 361.522,9.1482 361.878,9.3302 C362.494,9.6462 367.1,11.3962 367.1,12.5822 L367.1,14.0362 C367.1,14.5142 366.678,14.9962 367.22,15.4562 C372.538,18.1962 371.52,20.1082 371.52,25.1162 C371.52,27.0602 371.658,29.0002 371.514,30.9482 C371.416,32.2322 370.85,32.8102 369.544,32.4682 C369.188,32.3762 368.488,31.7202 368.488,32.4242 L368.488,33.8862 C369.188,34.2442 372.424,35.6022 372.572,36.7842 C372.642,37.2462 372.71,37.7082 372.78,38.1722 C372.78,38.1702 372.782,38.1702 372.782,38.1702 C372.812,38.1622 372.84,38.1642 372.868,38.1762 C372.872,38.1782 372.876,38.1782 372.878,38.1802 C376.964,39.6102 378.486,45.8162 379.666,48.8422 C381.28,52.9742 382.022,57.2022 382.622,61.5462 C384.278,63.7482 384.268,66.1542 384.678,68.6022 C384.974,70.1522 384.464,70.1442 383.108,69.7382 C382.812,69.5642 382.994,69.2982 382.946,69.0742 C383.776,67.9042 382.092,66.0842 381.298,65.4762 C380.704,65.0222 380.152,64.7162 379.362,64.7382 C378.448,64.7642 378.07,65.1442 377.944,66.0362 C377.848,66.6782 377.972,67.1682 378.346,67.6962 C378.36,67.9022 378.764,68.3742 378.354,68.3142 C376.268,67.6882 376.304,66.1382 376.02,64.4562 C375.744,62.8122 374.82,61.3522 376.132,59.6322 C375.518,55.5802 374.916,51.5262 374.278,47.4782 C374.152,47.4402 374.024,47.4022 373.896,47.3642 C374.338,50.8902 374.78,54.4162 375.222,57.9422 L375.222,85.1442 C376.194,85.6422 375.566,90.7242 375.566,91.3542 C371.57,89.3022 367.574,87.2482 363.578,85.1962 L363.578,79.1642 C363.586,79.1682 363.594,79.1722 363.602,79.1762 L363.602,71.4342 C363.212,71.2342 362.82,71.0342 362.432,70.8342 L362.432,78.5742 C362.438,78.5782 362.446,78.5842 362.456,78.5882 L362.456,84.6202 C358.458,82.5662 354.462,80.5142 350.466,78.4622 L350.466,75.3162 L350.466,73.7422 C350.466,73.3122 350.108,72.2462 350.812,72.6062 L350.812,45.4042 L352.136,36.1882 C352.008,36.0942 351.882,36.0022 351.754,35.9102 C351.112,39.3222 350.514,42.7422 349.9,46.1582 C350.586,47.7302 350.41,49.1342 350.092,50.7062 C349.694,52.6582 349.84,54.1302 347.678,52.5582 C347.438,52.3462 347.672,52.1522 347.688,51.9502 C348.344,51.6962 348.166,51.2182 348.088,50.7002 C347.88,49.0102 347.106,48.0522 345.73,47.1562 C344.236,46.1822 342.306,46.7622 343.088,48.6022 C343.04,48.7702 343.242,49.2382 342.924,49.0982 C341.928,48.3742 341.014,47.8502 341.354,46.3522 C341.564,45.3162 341.85,41.8722 343.41,41.4062 C343.928,38.1642 344.22,35.0322 346.132,32.0982 C347.908,29.3682 349.106,25.3082 353.154,28.0502 C353.158,28.0522 353.162,28.0522 353.164,28.0562 C353.198,28.0782 353.226,28.1062 353.25,28.1382 C353.252,28.1382 353.252,28.1402 353.254,28.1422 C353.322,27.7502 353.392,27.3582 353.46,26.9682 C353.646,25.6762 354.752,26.8282 355.408,27.1662 C356.12,27.5322 356.832,27.8982 357.544,28.2622 L357.544,26.8522 C357.544,26.1782 356.992,26.1222 356.604,25.8462 C355.748,25.2422 355.228,24.5142 354.842,23.5562 C354.042,21.5722 354.514,19.6922 354.514,17.7462 L354.514,11.8922 C354.514,9.0262 357.046,10.2322 358.812,11.1362 Z"/>
  </g>
</svg>
