<?xml version="1.0" encoding="UTF-8"?>
<svg width="396px" height="396px" viewBox="0 0 396 396" version="1.1" xmlns="http://www.w3.org/2000/svg" xmlns:xlink="http://www.w3.org/1999/xlink">
    <!-- Generator: Sketch 51.2 (57519) - http://www.bohemiancoding.com/sketch -->
    <title>cross</title>
    <desc>Created with Sketch.</desc>
    <defs></defs>
    <g id="cross" stroke="none" stroke-width="1" fill="none" fill-rule="evenodd">
        <path d="M214,182 L429,182 C437.836556,182 445,189.163444 445,198 C445,206.836556 437.836556,214 429,214 L214,214 L214,429.5 C214,438.336556 206.836556,445.5 198,445.5 C189.163444,445.5 182,438.336556 182,429.5 L182,214 L-34,214 C-42.836556,214 -50,206.836556 -50,198 C-50,189.163444 -42.836556,182 -34,182 L182,182 L182,-33.5 C182,-42.336556 189.163444,-49.5 198,-49.5 C206.836556,-49.5 214,-42.336556 214,-33.5 L214,182 Z" id="Combined-Shape" fill="#FFFFFF" transform="translate(197.500000, 198.000000) rotate(-45.000000) translate(-197.500000, -198.000000) "></path>
    </g>
</svg>