<?xml version="1.0" encoding="UTF-8"?>
<svg width="512px" height="512px" viewBox="0 0 512 512" version="1.1" xmlns="http://www.w3.org/2000/svg" xmlns:xlink="http://www.w3.org/1999/xlink">
    <!-- Generator: Sketch 51.2 (57519) - http://www.bohemiancoding.com/sketch -->
    <title>grid</title>
    <desc>Created with Sketch.</desc>
    <defs></defs>
    <g id="grid" stroke="none" stroke-width="1" fill="none" fill-rule="evenodd">
        <g id="Group" transform="translate(40.000000, 40.000000)" fill="#FFFFFF">
            <g id="block">
                <rect id="Rectangle" x="18" y="18" width="64" height="64" rx="12"></rect>
            </g>
            <g id="block" transform="translate(0.000000, 166.000000)">
                <rect id="Rectangle" x="18" y="18" width="64" height="64" rx="12"></rect>
            </g>
            <g id="block" transform="translate(0.000000, 332.000000)">
                <rect id="Rectangle" x="18" y="18" width="64" height="64" rx="12"></rect>
            </g>
            <g id="block" transform="translate(166.000000, 0.000000)">
                <rect id="Rectangle" x="18" y="18" width="64" height="64" rx="12"></rect>
            </g>
            <g id="block" transform="translate(166.000000, 166.000000)">
                <rect id="Rectangle" x="18" y="18" width="64" height="64" rx="12"></rect>
            </g>
            <g id="block" transform="translate(166.000000, 332.000000)">
                <rect id="Rectangle" x="18" y="18" width="64" height="64" rx="12"></rect>
            </g>
            <g id="block" transform="translate(332.000000, 0.000000)">
                <rect id="Rectangle" x="18" y="18" width="64" height="64" rx="12"></rect>
            </g>
            <g id="block" transform="translate(332.000000, 166.000000)">
                <rect id="Rectangle" x="18" y="18" width="64" height="64" rx="12"></rect>
            </g>
            <g id="block" transform="translate(332.000000, 332.000000)">
                <rect id="Rectangle" x="18" y="18" width="64" height="64" rx="12"></rect>
            </g>
        </g>
    </g>
</svg>