<?xml version="1.0" encoding="UTF-8"?>
<svg width="16px" height="16px" viewBox="0 0 16 16" version="1.1" xmlns="http://www.w3.org/2000/svg" xmlns:xlink="http://www.w3.org/1999/xlink">
    <title>safari-pinned-tab</title>
    <g id="safari-pinned-tab" stroke="none" stroke-width="1" fill="none" fill-rule="evenodd">
        <path d="M8,0 C12.418278,0 16,3.581722 16,8 C16,12.418278 12.418278,16 8,16 C3.581722,16 0,12.418278 0,8 C0,3.581722 3.581722,0 8,0 Z M6.24387002,4.87683877 C5.94571257,4.70291359 5.56301399,4.80362374 5.38908881,5.10178119 L5.38908881,5.10178119 L2.83513819,9.47998226 L2.78828402,9.57951935 C2.76305789,9.64823787 2.75,9.72112889 2.75,9.79490165 C2.75,10.1400796 3.02982203,10.4199017 3.375,10.4199017 L3.375,10.4199017 L8.48290125,10.4199017 L8.59248774,10.4102194 C8.66455607,10.397384 8.73409728,10.3719354 8.79782064,10.3347635 C9.09597809,10.1608383 9.19668824,9.77813971 9.02276306,9.47998226 L9.02276306,9.47998226 L6.46881244,5.10178119 L6.40704487,5.01414494 C6.36109022,4.95956739 6.30595486,4.91305493 6.24387002,4.87683877 Z M10.56512,4.87683877 C10.2669626,4.70291359 9.88426399,4.80362374 9.71033881,5.10178119 L9.71033881,5.10178119 L8.84845906,6.57874614 L8.81344733,6.65553989 C8.75130904,6.8391106 8.82442054,7.04714008 8.99832947,7.14862427 L8.99832947,7.14862427 L9.07512322,7.18363601 C9.25869393,7.24577429 9.46672341,7.1726628 9.5682076,6.99875386 L9.5682076,6.99875386 L10.25,5.829 L12.441,9.586 L10.6668673,9.58656832 L10.5919709,9.59328138 C10.3975966,9.62856134 10.2502006,9.79868508 10.2502006,10.003235 C10.2502006,10.2333536 10.4367486,10.4199017 10.6668673,10.4199017 L10.6668673,10.4199017 L12.8041513,10.4199017 L12.9137377,10.4102194 C12.9858061,10.397384 13.0553473,10.3719354 13.1190706,10.3347635 C13.4172281,10.1608383 13.5179382,9.77813971 13.3440131,9.47998226 L13.3440131,9.47998226 L10.7900624,5.10178119 L10.7282949,5.01414494 C10.6823402,4.95956739 10.6272049,4.91305493 10.56512,4.87683877 Z M6.414,6.66159884 L8.119,9.586 L4.721,9.58559884 L6.414,6.66159884 Z" id="Combined-Shape" fill="#000000"></path>
    </g>
</svg>