<?xml version="1.0" encoding="UTF-8"?>
<svg width="16px" height="16px" viewBox="0 0 16 16" version="1.1" xmlns="http://www.w3.org/2000/svg" xmlns:xlink="http://www.w3.org/1999/xlink">
    <!-- Generator: Sketch 53.2 (72643) - https://sketchapp.com -->
    <title>safari-pinned-tab</title>
    <desc>Created with Sketch.</desc>
    <g id="safari-pinned-tab" stroke="none" stroke-width="1" fill="none" fill-rule="evenodd">
        <path d="M8,16 C3.581722,16 0,12.418278 0,8 C0,3.581722 3.581722,0 8,0 C12.418278,0 16,3.581722 16,8 C16,12.418278 12.418278,16 8,16 Z M10.5774472,7.49958316 C10.5774472,7.28215714 10.5187491,7.0647205 10.4012389,6.87304687 C10.1450291,6.4553202 9.88882462,6.03749485 9.63261615,5.6196555 C9.59009755,5.78340985 9.52338876,5.94220173 9.43250698,6.09038954 L6.90827921,10.2071798 C6.97325811,10.4024399 7.07985233,10.5643106 7.21347671,10.6894817 C7.38335088,10.8486094 7.59597889,10.9484292 7.81837452,10.9845636 C8.04051721,11.0206569 8.27280395,10.9932709 8.48257106,10.8959646 C8.67596093,10.8062554 8.84942147,10.6568582 8.97903732,10.4454357 L10.4012538,8.126172 C10.5187423,7.93449197 10.5774472,7.71702246 10.5774472,7.49958316 Z M6.13472722,10.4454504 L8.9790522,5.80703755 C9.14882618,5.53018009 9.19230827,5.2094054 9.12556635,4.91460581 C9.05893969,4.62031531 8.88238883,4.35172434 8.61123405,4.17894964 C8.34118089,4.00687687 8.02824367,3.96258519 7.74059856,4.03024544 C7.4523949,4.09803707 7.18976588,4.27812155 7.02068795,4.55391038 L4.17637382,9.19240777 C4.00662412,9.46925064 3.96313118,9.79006925 4.02988239,10.0849099 C4.0965014,10.3791666 4.27301481,10.6477359 4.54417524,10.8204882 C4.81424391,10.9925293 5.12721246,11.0368189 5.41488112,10.9691381 C5.70305972,10.9013373 5.96566223,10.7212596 6.13472722,10.4454504 Z M11.8232635,9.19242723 L11.0546593,7.93894602 C11.0121591,8.10268403 10.9454816,8.26147057 10.8546429,8.40967194 L10.3210169,9.27994837 C10.1315757,9.58888611 9.9421224,9.89784368 9.75268941,10.2068252 C9.85484293,10.5085541 10.0667348,10.7417737 10.3279264,10.8749833 C10.6172839,11.0225578 10.967018,11.0471708 11.2936475,10.9061711 C11.6214151,10.7646801 11.8479464,10.4903925 11.9456793,10.1749115 C12.0436558,9.85864438 12.0123513,9.50073231 11.8232635,9.19242723 Z" id="Combined-Shape" fill="#000000"></path>
    </g>
</svg>