<svg height="16" viewBox="0 0 16 16" width="16" xmlns="http://www.w3.org/2000/svg"><path d="m13 9c.5522847 0 1 .44771525 1 1v3c0 .5522847-.4477153 1-1 1h-3c-.55228475 0-1-.4477153-1-1v-3c0-.55228475.44771525-1 1-1zm-7 0c.55228475 0 1 .44771525 1 1v3c0 .5522847-.44771525 1-1 1h-3c-.55228475 0-1-.4477153-1-1v-3c0-.55228475.44771525-1 1-1zm0-7c.55228475 0 1 .44771525 1 1v3c0 .55228475-.44771525 1-1 1h-3c-.55228475 0-1-.44771525-1-1v-3c0-.55228475.44771525-1 1-1zm7 0c.5522847 0 1 .44771525 1 1v3c0 .55228475-.4477153 1-1 1h-3c-.55228475 0-1-.44771525-1-1v-3c0-.55228475.44771525-1 1-1z" fill-rule="evenodd"/></svg>