<?xml version="1.0" encoding="UTF-8"?>
<svg width="17px" height="14px" viewBox="0 0 17 14" version="1.1" xmlns="http://www.w3.org/2000/svg" xmlns:xlink="http://www.w3.org/1999/xlink">
    <!-- Generator: Sketch 51.2 (57519) - http://www.bohemiancoding.com/sketch -->
    <title>Artboard</title>
    <desc>Created with Sketch.</desc>
    <defs></defs>
    <g id="Artboard" stroke="none" stroke-width="1" fill="none" fill-rule="evenodd">
        <g id="Group" transform="translate(3.000000, 1.000000)" fill="#000000">
            <path d="M6,0 C2.68548387,0 0,2.68548387 0,6 C0,9.31451613 2.68548387,12 6,12 C9.31451613,12 12,9.31451613 12,6 C12,2.68548387 9.31451613,0 6,0 Z M6,2.32258065 C7.17580645,2.32258065 8.12903226,3.27580645 8.12903226,4.4516129 C8.12903226,5.62741935 7.17580645,6.58064516 6,6.58064516 C4.82419355,6.58064516 3.87096774,5.62741935 3.87096774,4.4516129 C3.87096774,3.27580645 4.82419355,2.32258065 6,2.32258065 Z M6,10.6451613 C4.57983871,10.6451613 3.30725806,10.0016129 2.45564516,8.99516129 C2.91048387,8.13870968 3.80080645,7.5483871 4.83870968,7.5483871 C4.89677419,7.5483871 4.95483871,7.55806452 5.01048387,7.575 C5.325,7.6766129 5.65403226,7.74193548 6,7.74193548 C6.34596774,7.74193548 6.67741935,7.6766129 6.98951613,7.575 C7.04516129,7.55806452 7.10322581,7.5483871 7.16129032,7.5483871 C8.19919355,7.5483871 9.08951613,8.13870968 9.54435484,8.99516129 C8.69274194,10.0016129 7.42016129,10.6451613 6,10.6451613 Z" id="Shape" fill-rule="nonzero"></path>
            <circle id="Oval" cx="10.4516129" cy="1.5483871" r="1.5483871"></circle>
        </g>
    </g>
</svg>