<?xml version="1.0" encoding="UTF-8"?>
<svg width="512px" height="512px" viewBox="0 0 512 512" version="1.1" xmlns="http://www.w3.org/2000/svg" xmlns:xlink="http://www.w3.org/1999/xlink">
    <!-- Generator: Sketch 51.1 (57501) - http://www.bohemiancoding.com/sketch -->
    <title>toucan</title>
    <desc>Created with Sketch.</desc>
    <defs></defs>
    <g id="toucan" stroke="none" stroke-width="1" fill="none" fill-rule="evenodd" opacity="0.9">
        <g id="logo-white-copy" transform="translate(5.000000, 113.000000)" fill-rule="nonzero">
            <path d="M264.444668,202.020822 L264.405815,202.104878 L264.399704,202.125348 C264.361287,202.208968 264.319815,202.290411 264.281398,202.373596 L264.093244,202.781245 L264.088442,202.779503 C261.314157,208.72091 258.091534,214.286896 254.435851,219.453507 C260.245916,229.214888 273.515336,233.689888 281.097363,234.818329 C282.61307,235.041752 284.114807,235.16065 285.548443,235.16065 C298.63975,235.16065 303.351887,225.773384 303.538731,225.370961 L303.994491,224.431973 L304.756273,225.132294 C309.012651,229.080747 317.316734,232.463891 321.581406,233.521776 C324.225162,234.162431 326.703902,234.505188 328.967422,234.505188 C334.060668,234.505188 338.234974,232.851071 341.38644,229.617311 C348.503976,222.316201 348.212359,209.23265 348.212359,209.098944 L348.197517,208.45829 L348.839684,208.309341 C364.29841,205.283761 378.816368,189.98122 379.779837,188.952514 C383.662963,182.589956 384.656554,177.285284 382.759738,173.173075 C379.839645,166.869312 370.967171,165.409439 370.877242,165.394631 L369.727802,165.216067 L370.35469,164.217412 C371.490597,162.414346 374.409817,157.094866 374.656905,156.632776 C376.642778,152.058041 377.023887,148.600858 375.739116,146.664087 C374.148322,144.235174 370.309288,144.726444 370.294446,144.726444 L370.190546,144.726444 C362.251857,144.726444 345.277423,163.635989 345.104986,163.829361 C335.25551,173.872525 321.387141,178.953774 303.859597,178.953774 C291.332314,178.953774 279.628804,176.275306 272.489003,174.213539 C271.059297,179.52518 269.487275,184.801543 267.931842,190.0104 C266.715173,194.153532 265.534738,198.057126 264.444668,202.020822 Z" id="Shape" fill="#FFFFFF"></path>
            <path d="M169.712986,262.118662 C169.657107,267.678551 169.236708,274.164797 167.789976,278.074924 C166.409164,281.784711 167.297109,283.885674 167.939277,284.809419 C168.537352,285.658254 169.425735,286.179575 170.300147,286.179575 C170.859806,286.179575 171.367952,285.956587 171.748189,285.539791 C173.092331,284.078611 174.212959,280.994672 174.227802,280.964185 L175.616035,277.075834 L175.728666,281.203287 C175.774067,283.260263 176.44592,289.205154 178.910253,288.937307 C181.905433,288.608923 183.466105,285.956587 183.682198,280.800864 L183.831935,277.105885 L185.161235,280.547389 C185.161235,280.562633 185.989809,282.589122 187.185088,282.589122 C187.394196,282.589122 187.625568,282.528584 187.871783,282.380506 C189.799158,281.367479 190.485854,274.423063 189.335977,271.562111 C188.646226,269.834391 186.569113,265.696485 184.49462,262.055076 C182.53887,262.23756 179.940515,262.398268 176.834887,262.398268 C174.641216,262.398268 172.252406,262.317261 169.712986,262.118662 Z" id="Shape" fill="#FFFFFF"></path>
            <path d="M209.701106,272.784625 C209.701106,272.81424 210.41836,277.835822 213.277773,277.686873 L213.368139,277.686873 L213.450211,277.701245 C213.464617,277.701245 214.07055,277.776155 214.607509,277.344116 C215.14534,276.940822 215.481048,276.137282 215.586257,275.064588 L215.966494,271.235033 L217.086248,274.915639 C217.452515,276.091987 218.781814,279.414594 220.559452,280.354453 C221.044461,280.621428 221.536891,280.681966 222.045037,280.517774 C224.673951,279.713798 225.069466,277.105885 225.128837,274.662165 L225.25631,269.521685 L226.630138,274.230126 C226.689946,274.423063 227.040933,275.376858 228.034524,275.198294 C228.512548,275.124255 228.863099,274.900396 229.139,274.513651 C229.609602,273.812895 230.057941,272.248496 229.385651,268.776069 C228.516477,264.257517 224.385827,255.353246 217.840609,251.072924 C213.674598,253.212649 209.30559,255.116321 204.748429,256.785681 C206.884476,260.637884 209.068543,266.051872 209.701106,272.784625 Z" id="Shape" fill="#FFFFFF"></path>
            <path d="M216.685931,50.5328024 C218.082022,49.7131478 219.51784,48.9906149 220.977232,48.3643326 C222.980131,46.9493178 225.303458,44.967252 227.515028,42.2683149 C232.510487,36.1439883 237.894477,24.9832719 235.415738,6.41691973 C233.428992,7.6690488 228.642641,11.0068983 224.333004,16.6691348 C220.552468,21.6454224 216.566752,29.2392042 215.895336,39.6172855 C216.643149,44.5447945 216.719108,48.4684226 216.685931,50.5328024 Z" id="Shape" fill="#FFFFFF"></path>
            <path d="M200.795455,43.1114878 C191.875834,38.0311102 180.668683,33.251679 170.056552,33.251679 C168.77178,33.251679 167.501852,33.3109102 166.269904,33.4598591 C166.785034,35.188015 168.390671,39.5097113 172.445798,43.7713054 C179.346805,51.0428 190.2344,54.8719196 203.953469,54.8719196 C206.236197,54.8719196 208.625007,54.7660875 211.093705,54.560956 C212.089916,53.6729243 213.127162,52.8537053 214.198023,52.1019923 C208.738946,49.3050626 204.335015,46.2603202 200.795455,43.1114878 Z" id="Shape" fill="#FFFFFF"></path>
            <path d="M214.328552,39.7144072 C213.98193,37.4379276 213.491246,34.9550101 212.79713,32.3601631 C210.228024,22.6749992 204.245958,9.41331905 190.393305,0.770361999 C189.56473,3.09518461 187.488927,10.024358 188.646226,18.4430207 C189.856346,27.231878 194.237578,35.0878447 201.520567,41.6803587 C202.915786,42.9433758 204.418832,44.159792 206.025342,45.3278651 C207.597801,46.3247776 209.061558,47.3012205 210.389984,48.2219165 C211.812706,49.0846879 213.298727,49.9156661 214.851104,50.7126734 C214.941471,50.7588389 215.028781,50.8067464 215.119584,50.8529119 C215.119584,50.7984715 215.119584,50.7396759 215.123949,50.6817513 C215.154508,48.7140577 215.092081,44.7168261 214.330298,39.7144072 L214.328552,39.7144072 Z" id="Shape" fill="#FFFFFF"></path>
            <path d="M206.034073,45.3239454 C207.411393,46.3209524 208.868602,47.2810975 210.398715,48.2056817 C209.070289,47.2889036 207.606532,46.3166157 206.034073,45.3239454 Z" id="Shape" fill="#FFFFFF"></path>
            <path d="M75.3741992,154.648968 C66.622214,143.190354 50.8723078,128.319416 25.2886418,122.060948 C25.4230996,125.324323 26.4158178,136.365706 33.0108018,147.675371 C37.9049811,156.059192 44.8492063,162.790203 53.6081763,167.76257 C64.7590121,168.158026 76.2669471,171.232383 87.8713599,176.892007 C86.5158674,173.236226 82.7650167,164.314969 75.3759454,154.648968 L75.3741992,154.648968 Z" id="Shape" fill="#FFFFFF"></path>
            <path d="M31.6753907,216.323402 C22.7588256,229.317236 19.9138193,241.02976 19.4056733,244.337123 C57.3210471,234.204241 74.0881184,216.949685 81.4745703,204.194518 C87.8150448,193.277259 88.5174562,183.731463 88.5183293,180.072633 C84.4627656,183.146119 70.9645922,192.385308 50.6963776,196.480532 C42.0832158,202.98028 35.9426819,210.094115 31.6771369,216.323402 L31.6753907,216.323402 Z" id="Shape" fill="#FFFFFF"></path>
            <path d="M87.0737803,178.236902 C87.0231403,178.212078 86.9725003,178.187688 86.9214238,178.163299 C86.2927896,177.857997 85.6641554,177.557486 85.0363943,177.267863 C75.512586,172.871693 66.0739053,170.27249 56.8727087,169.502921 C56.1720434,169.444561 55.4718148,169.395782 54.7733323,169.358763 C54.1914091,169.327405 53.6099225,169.299967 53.0297455,169.283853 C52.3941265,169.265996 51.758944,169.252495 51.1259443,169.252495 C22.0978866,169.252495 3.81685459,188.072322 0.00575969829,192.378339 C10.3040104,195.403483 20.640241,196.923459 30.7660538,196.923459 C37.7417108,196.923459 44.2035466,196.196135 50.0913171,195.028933 C50.6693114,194.914391 51.2385746,194.79288 51.805655,194.670062 C52.5058837,194.518065 53.1956351,194.359534 53.8784017,194.196213 C70.0181484,190.333558 81.2995132,183.358655 86.1487276,179.929781 C86.6245688,179.593557 87.0379831,179.291739 87.3885339,179.02999 C87.5138242,178.936353 87.6233987,178.853168 87.7325366,178.770418 C87.7884151,178.727737 87.8530248,178.679394 87.9049744,178.639761 C87.6268911,178.500394 87.3501174,178.371915 87.0724706,178.236902 L87.0737803,178.236902 Z" id="Shape" fill="#FFFFFF"></path>
            <polygon id="Shape" fill="#25BCBD" points="89.2128828 178.433636 89.2128828 178.424177 89.2128828 178.424177"></polygon>
            <polygon id="Shape" fill="#FFFFFF" points="199.725673 250.70663 199.442145 250.337761 199.442145 250.347219 199.442145 250.980917"></polygon>
            <path d="M215.769172,52.9385876 L215.856121,52.9064298 L215.833439,52.89508 C215.811702,52.9102131 215.79091,52.9244003 215.769172,52.9385876 Z" id="Shape" fill="#FFFFFF"></path>
            <path d="M216.721258,52.9837096 L216.745831,52.6063281 C216.624859,52.6555107 216.513338,52.7009099 216.412213,52.7406343 C216.515228,52.8210288 216.622024,52.9052067 216.721258,52.9837096 Z" id="Shape" fill="#FFFFFF"></path>
            <path d="M252.745087,194.821624 C252.528121,194.528953 252.322942,194.23149 252.125184,193.930544 C251.916076,193.613047 251.715699,193.291196 251.527545,192.964989 C246.03529,183.446195 249.210766,170.392259 251.720937,160.045971 C252.698813,156.023044 253.55751,152.53581 253.773603,149.794627 C255.394518,129.768401 248.695635,123.017792 242.77425,117.042415 C242.161768,116.416132 241.549287,115.805529 240.951648,115.180118 C229.771999,103.482837 225.351042,92.4558259 227.800533,82.4126619 C231.825538,65.8732345 252.825849,57.4689442 259.173309,55.2782627 C259.599819,55.1293138 260.024584,54.9803648 260.4428,54.8462237 C260.181743,54.5483259 259.905405,54.2499925 259.614226,53.967338 C254.857124,49.2588971 246.754727,46.4275611 237.911939,46.4275611 C232.912115,46.4275611 227.209005,47.3909383 221.814101,49.6687244 C220.170048,50.3625128 218.556117,51.1791187 216.998501,52.1276882 C216.866663,52.20826 216.735261,52.2905738 216.604295,52.3724522 C216.503452,52.4360386 216.400426,52.4970118 216.299582,52.5619048 C216.130637,52.67035 215.964311,52.7840216 215.797112,52.8955155 L215.807589,52.9007418 L215.767426,52.9155496 C215.718096,52.9486493 215.668329,52.9817491 215.618999,53.0152844 C215.016558,53.422934 214.42503,53.8514888 213.844853,54.3022553 C213.473348,54.5910071 213.107518,54.888905 212.746053,55.1955133 C212.41733,55.4746836 212.093408,55.7616934 211.773853,56.056107 C209.48283,58.1688299 207.438459,60.672217 205.777381,63.6233219 C196.8451,79.4328125 193.096432,130.319338 193.05234,130.841966 L193.021782,131.288813 L90.9036469,178.969888 C103.88407,244.032692 144.38121,257.995565 168.19073,260.404008 C168.449605,260.430139 168.709354,260.457142 168.963863,260.48066 C169.226231,260.505049 169.482486,260.525519 169.740488,260.546859 C172.360671,260.764621 174.756029,260.84737 176.854969,260.84737 C179.524918,260.84737 181.828164,260.724988 183.653822,260.574297 C183.948058,260.549908 184.229634,260.525083 184.498549,260.499823 C184.795841,260.471949 185.076544,260.44364 185.341967,260.414896 C187.204296,260.215426 188.259441,260.020747 188.280395,260.013779 C193.189854,258.904937 197.913342,257.543056 202.457406,255.951655 C202.708424,255.863679 202.961623,255.777881 203.211767,255.688163 C203.462348,255.598445 203.716421,255.512647 203.966129,255.421623 C208.219014,253.868547 212.299461,252.096839 216.210963,250.12479 C216.491229,249.983245 216.770185,249.840394 217.049141,249.697106 C217.319803,249.557739 217.594831,249.422727 217.864183,249.280746 C231.8657,241.919534 243.557424,231.844141 252.635076,219.317189 C252.801839,219.087232 252.969475,218.858583 253.134055,218.62732 C253.303437,218.389524 253.476748,218.155213 253.644383,217.915675 C257.053851,213.036945 260.076534,207.798908 262.692787,202.212888 C258.150468,200.324024 254.94618,197.784924 252.74596,194.819011 L252.745087,194.821624 Z M217.113751,177.256975 C217.024695,177.763489 216.950044,178.2099 216.8898,178.641939 C216.19481,183.544623 205.91926,209.442572 190.258847,222.211676 C182.596494,228.455336 176.554621,231.494416 171.782676,231.494416 C166.862304,231.494416 163.815174,228.321194 161.731077,225.564333 L161.67127,225.490294 C161.552091,225.265999 158.9533,220.811033 158.079324,216.370874 C155.555619,218.650838 149.072829,223.820934 142.568211,223.820934 C138.684649,223.820934 135.45897,221.973009 132.9942,218.352505 C132.815213,218.09903 128.684563,212.168076 129.603504,205.492813 L129.156038,205.492813 C124.368378,205.492813 108.678279,204.211503 107.483001,187.656397 L107.483001,187.597166 C107.483001,186.717409 107.62488,178.938966 111.829745,178.000413 C111.933644,177.971233 112.165453,177.910696 112.516877,177.910696 C113.345452,177.910696 114.674314,178.209029 116.265545,179.639287 C117.744145,180.965891 122.292139,185.018869 131.417812,185.018869 C132.381718,185.018869 133.374436,184.974446 134.390291,184.884728 C145.122038,183.91656 167.563406,176.375912 171.506339,174.096384 C172.530053,173.470537 197.047223,158.793407 208.167501,158.793407 C209.974824,158.793407 211.378774,159.181022 212.356649,159.955818 C219.122761,165.260925 217.868112,172.770651 217.113751,177.256104 L217.113751,177.256975 Z" id="Shape" fill="#FFFFFF"></path>
            <path d="M90.0474161,178.524348 L90.0379652,178.528131 L90.0502514,178.568801 C90.0493063,178.551776 90.0502514,178.541372 90.0502514,178.524348 L90.0474161,178.524348 Z" id="Shape" fill="#25BCBD"></path>
            <path d="M276.973697,124.937578 L276.099285,110.75346 C275.873587,108.428202 275.612966,106.144319 275.32135,103.909649 C274.769549,101.464187 271.160577,85.3990442 269.65753,79.9811361 C268.137894,74.5370967 262.822443,59.591684 261.613195,56.2133309 C251.221086,59.4065867 233.512809,68.2629501 229.740568,82.2907154 C227.156619,91.9466994 231.412997,102.64489 242.391395,114.133556 C242.973754,114.759838 243.586236,115.355634 244.198718,115.98148 C250.34449,122.180281 257.319711,129.21398 255.639424,149.940527 C255.393209,152.831095 254.504826,156.437226 253.46627,160.594295 C251.141633,169.911006 248.24686,181.537297 252.121255,190.418921 C252.287145,190.799132 252.463948,191.174118 252.655594,191.543877 C252.833271,191.88794 253.024044,192.226342 253.224857,192.560824 C254.765448,195.125184 256.99317,197.395131 260.120189,199.224763 C260.14289,199.237394 260.16559,199.250024 260.187854,199.263089 C260.396963,199.384165 260.60869,199.503934 260.82522,199.621089 C260.903799,199.663335 260.984997,199.704274 261.06445,199.746085 C261.231212,199.83406 261.397539,199.9216 261.568667,200.006963 C261.695703,200.070549 261.827542,200.132394 261.957634,200.194673 C262.088163,200.256953 262.216946,200.320104 262.349658,200.381513 C262.516857,200.458165 262.688858,200.532639 262.860423,200.607549 C262.963449,200.652844 263.065165,200.698574 263.169938,200.743433 C263.18871,200.751272 263.208791,200.758676 263.227563,200.766515 C264.265682,197.070666 265.393295,193.257661 266.49777,189.561811 C268.049711,184.356003 269.61955,179.082253 271.04751,173.777581 C271.112556,173.533688 271.176293,173.289795 271.241339,173.046337 C271.307258,172.798525 271.373178,172.550712 271.43866,172.302899 C273.566849,164.226558 275.329644,156.085324 276.146432,148.003756 C276.943575,140.155629 277.169272,132.41072 276.973697,124.937578 Z M250.652259,107.487908 C246.588401,108.843691 240.667016,107.801049 238.709955,99.0243862 C236.738925,90.2625313 236.918348,88.7425555 237.306006,85.9260272 C237.776172,82.4248566 238.560655,78.624917 245.072694,77.4028391 C251.584733,76.1960044 255.826705,82.5433189 255.826705,88.6084144 C255.826705,94.6438943 254.721356,106.132124 250.652259,107.487908 Z" id="Shape" fill="#FFFFFF"></path>
            <path d="M261.563428,200.008705 C261.838451,200.146794 262.124814,200.280155 262.405507,200.416353 C262.123869,200.281101 261.838451,200.146794 261.563428,200.008705 Z" id="Shape" fill="#FFFFFF"></path>
            <path d="M262.349221,200.383255 C262.658598,200.549719 262.97686,200.711454 263.294315,200.874135 C262.977668,200.711454 262.658598,200.550665 262.349221,200.383255 Z" id="Shape" fill="#FFFFFF"></path>
            <path d="M263.289452,200.793561 C263.248813,200.776536 263.205338,200.760457 263.164699,200.743433 C263.207228,200.761403 263.245977,200.780319 263.288507,200.797344 C263.288507,200.795453 263.289452,200.794507 263.289452,200.793561 Z" id="Shape" fill="#FFFFFF"></path>
            <path d="M260.122808,199.224763 C260.171008,199.253138 260.221098,199.280567 260.269298,199.307995 C260.221098,199.279621 260.171953,199.252192 260.122808,199.224763 Z" id="Shape" fill="#FFFFFF"></path>
            <path d="M260.821291,199.621089 C260.991408,199.712834 261.167195,199.801741 261.339202,199.892539 C261.167195,199.801741 260.991408,199.712834 260.821291,199.621089 Z" id="Shape" fill="#FFFFFF"></path>
            <path d="M211.403657,161.160039 C210.701682,160.608667 209.618598,160.310334 208.162262,160.310334 C197.475917,160.310334 172.524814,175.271425 172.285147,175.419939 C168.140527,177.804428 145.669473,185.418244 134.520384,186.40122 C133.467421,186.490937 132.421007,186.550168 131.41301,186.550168 C121.690134,186.550168 116.820402,182.199728 115.237466,180.768599 C113.460265,179.174148 112.234864,179.457238 112.220458,179.472046 L112.175493,179.472046 C109.606824,180.038226 109.024028,185.492283 109.008749,187.578003 C110.121518,202.777326 124.698847,203.969353 129.1508,203.969353 C129.964095,203.969353 130.449977,203.924494 130.449977,203.924494 L131.472817,203.83434 L131.278989,204.832995 C129.920004,211.239976 134.214361,217.409162 134.24361,217.468828 C136.432479,220.657729 139.217678,222.281359 142.563409,222.281359 C150.076024,222.281359 157.999435,214.354402 158.074522,214.26512 L159.239678,213.103144 L159.388542,214.741582 C159.799337,219.092894 162.704587,224.188951 162.980924,224.680656 C165.766996,228.316839 168.477981,229.955277 171.777874,229.955277 C176.184426,229.955277 181.904997,227.035095 189.275733,221.029666 C205.377063,207.887754 214.875988,181.855664 215.368855,178.428533 C215.428662,177.981686 215.503312,177.504352 215.592806,177.013082 C216.331887,172.589038 217.445094,165.898531 211.403657,161.160039 Z" id="Shape" fill="#FFFFFF"></path>
            <path d="M245.541987,80.9366739 C244.227094,80.9366739 243.144446,82.009803 243.144446,83.3355355 C243.144446,84.6617035 244.227094,85.7348326 245.541987,85.7348326 C246.878708,85.7348326 247.946076,84.6617035 247.946076,83.3355355 C247.946076,82.009803 246.878708,80.9366739 245.541987,80.9366739 Z" id="Shape" fill="#FFFFFF"></path>
            <path d="M313.731336,127.633467 C296.961209,123.636671 283.065337,115.452755 277.741155,111.697239 C277.725003,111.68548 277.706231,111.67285 277.689642,111.661091 L278.521709,125.206732 L278.667954,127.589915 C286.232955,132.06056 295.702631,135.546923 307.568975,138.258925 C309.867419,138.780246 314.18535,139.673069 316.94261,140.16521 L313.731336,127.633467 Z" id="Shape" fill="#FFFFFF"></path>
            <path d="M292.602242,45.3065245 C278.530004,50.1482354 266.660604,54.4207176 263.297847,55.6358272 C263.214903,55.6658783 263.131958,55.6959294 263.059054,55.7220608 C263.267725,56.3065329 263.593829,57.220696 263.995457,58.3534917 C265.979147,63.9499643 269.85878,75.0183498 271.131765,79.5778417 C271.909263,82.3691096 273.232887,87.9359666 274.414632,93.0385559 C275.56058,97.9865345 276.572943,102.498119 276.823087,103.613058 C276.831818,103.620027 276.840986,103.626124 276.849717,103.633092 C284.74868,109.847137 299.045743,112.405835 310.085695,113.447607 L292.602242,45.3056534 L292.602242,45.3065245 Z" id="Shape" fill="#FFFFFF"></path>
            <path d="M466.960925,61.6996161 C487.221281,61.6996161 496.309848,71.2210234 499.043533,74.8572062 C504.919954,55.3070072 502.321599,41.1067747 502.17972,40.3768379 C495.204936,16.5206214 478.565774,4.91305827 451.317101,4.91305827 C444.110071,4.91305827 437.120445,5.68741844 431.503773,6.31370074 L431.429122,6.31370074 L445.335035,64.8131712 C453.071165,62.7278863 460.338438,61.6991806 466.962671,61.6991806 L466.960925,61.6996161 Z" id="Shape" fill="#FFFFFF"></path>
            <path d="M343.373186,141.091132 L340.301172,129.245338 C338.3153,129.349428 336.217669,129.393851 334.059359,129.393851 C327.255703,129.393851 320.527571,128.886902 315.388923,127.963593 L318.006049,138.188806 L318.586226,140.450478 C324.276239,141.224838 330.190639,141.374222 334.201238,141.374222 C337.365363,141.374222 340.514646,141.28494 343.373186,141.091132 Z" id="Shape" fill="#FFFFFF"></path>
            <path d="M330.756846,113.718502 C331.81723,113.688451 334.535636,113.495514 336.170958,113.361373 L316.440575,37.2928984 C309.160205,39.7213755 300.310869,42.6568016 294.03806,44.8026242 L311.692204,113.584796 C315.042737,113.793412 318.57182,113.897502 322.220081,113.897502 C324.976031,113.897066 327.851596,113.8374 330.756846,113.718066 L330.756846,113.718502 Z" id="Shape" fill="#FFFFFF"></path>
            <path d="M354.461595,57.2180828 L346.304193,27.5785544 C338.523098,30.0366471 328.049354,33.4476645 317.941003,36.7994507 L335.58336,104.841233 L337.762625,113.238991 C350.613829,111.942439 360.874973,107.725268 367.401855,104.283764 L354.461595,57.2167763 L354.461595,57.2180828 Z" id="Shape" fill="#FFFFFF"></path>
            <polygon id="Shape" fill="#25BCBD" points="336.606637 114.896658 336.795656 114.868283 336.606637 114.887199"></polygon>
            <path d="M434.350525,68.2977919 L434.39549,68.2681764 C436.86026,67.3731763 441.311339,65.9882126 443.849887,65.2277892 L429.884603,6.47571535 C429.473808,6.52013872 428.921134,6.57980539 428.436125,6.62466427 L427.390148,6.72831878 C417.943609,7.69735781 402.955049,11.0648229 381.617719,17.0402006 L399.847238,85.4347571 C417.523646,76.0622988 434.185072,68.3727019 434.349216,68.298663 L434.350525,68.2977919 Z" id="Shape" fill="#FFFFFF"></path>
            <path d="M375.066827,132.132421 L374.762987,131.027063 L372.192135,121.687269 C362.121328,125.440608 350.684114,128.256265 341.888037,129.121649 L343.893992,136.870477 L344.956121,140.953943 C354.253796,139.881249 365.403322,136.617874 375.066827,132.132421 Z" id="Shape" fill="#FFFFFF"></path>
            <path d="M412.9595,97.1642668 C410.212718,99.368885 407.442362,101.498593 404.688158,103.495031 L405.103755,105.063786 L405.7158,107.35638 C409.045816,103.273786 411.450341,99.6676539 412.9595,97.1642668 Z" id="Shape" fill="#FFFFFF"></path>
            <path d="M398.465989,86.1673071 L380.130825,17.4722395 C369.077776,20.6158457 357.083523,24.1927974 347.757036,27.0981724 L362.101683,79.2477151 L368.7735,103.493725 L370.682976,102.362236 C377.45651,98.3545516 391.346707,90.0996456 398.441542,86.1651294 L398.465989,86.1673071 Z" id="Shape" fill="#FFFFFF"></path>
            <path d="M345.861529,26.099645 L345.861529,26.1015366 C345.888937,26.0930242 345.91729,26.0845119 345.943752,26.0759995 L345.861529,26.099645 Z" id="Shape" fill="#25BCBD"></path>
            <path d="M403.311711,104.433148 C393.371433,111.242553 382.140271,117.560252 373.626643,121.12196 L376.456807,131.432971 C389.740634,124.386206 400.904129,112.735091 404.475558,108.785767 L404.21188,107.794516 L403.311711,104.433148 Z" id="Shape" fill="#FFFFFF"></path>
            <polygon id="Shape" fill="#FFFFFF" points="404.228469 107.795387 404.795526 109.175525 404.795526 109.169472"></polygon>
        </g>
    </g>
</svg>