<?xml version="1.0" encoding="UTF-8"?>
<svg width="29px" height="38px" viewBox="0 0 29 38" version="1.1" xmlns="http://www.w3.org/2000/svg" xmlns:xlink="http://www.w3.org/1999/xlink">
    <!-- Generator: Sketch 51.1 (57501) - http://www.bohemiancoding.com/sketch -->
    <title>Group 5</title>
    <desc>Created with Sketch.</desc>
    <defs></defs>
    <g id="Page-1" stroke="none" stroke-width="1" fill="none" fill-rule="evenodd">
        <g id="Desktop-HD-Copy-14" transform="translate(-706.000000, -544.000000)" fill="#FFFFFF" fill-rule="nonzero">
            <g id="Group-5" transform="translate(706.000000, 544.000000)">
                <path d="M27.8136065,21.5937144 C25.7111989,21.3571369 23.6242656,20.9810517 21.5363236,20.649518 C19.8367532,14.5077704 17.4500043,8.3012281 14.7620115,8.40878551 C12.1338122,8.51398526 9.39746191,14.3037933 7.3065755,20.112544 C5.17464957,20.6580543 3.00630778,21.0724309 0.851842504,21.5244484 C-0.639833215,21.8374461 -0.00858115261,24.0493241 1.48267407,23.7364076 C3.12682272,23.3914597 4.77904425,23.0687875 6.41705397,22.6927836 C4.78610938,27.6240023 3.7243505,31.9354042 3.7243505,31.9354042 L8.62164213,32.0747491 L8.19777994,35.508863 C8.11140978,35.5002454 8.02394578,35.4943919 7.93538885,35.4931724 C6.43059425,35.4716284 5.19390828,36.5550885 5.17313522,37.9130923 C5.8997565,37.9234984 6.8483166,37.9371565 7.89611469,37.9521967 L7.89493747,37.9617085 L10.6891482,38 L11.4514277,32.155153 L16.0955792,32.2872624 L16.8406182,38 L19.6348298,37.9617085 L19.6336526,37.9521967 C20.6815341,37.9371565 21.6301785,37.9234984 22.3567155,37.9130923 C22.335859,36.5550885 21.0991731,35.4716284 19.5944618,35.4931724 C19.5058206,35.4943919 19.4184409,35.5002454 19.3320708,35.508863 L18.9443716,32.3683167 L24.188911,32.5174987 C24.188911,32.5174987 23.4407599,28.1106529 22.1728736,23.0652916 C24.0483797,23.3690214 25.9249797,23.6751901 27.8136065,23.8877034 C28.4510818,23.9594896 29.0000001,23.309186 29.0000001,22.7406683 C29.0000001,22.0610973 28.4530157,21.6657445 27.8136065,21.5937144 Z" id="Stroke-1"></path>
                <polygon id="Fill-1" points="16 0.449094137 14.3782155 6 14 0"></polygon>
                <polygon id="Fill-4" points="7 4.68444893 8.68240182 3 12 7"></polygon>
            </g>
        </g>
    </g>
</svg>