<?xml version="1.0" encoding="UTF-8"?>
<svg width="512px" height="512px" viewBox="0 0 512 512" version="1.1" xmlns="http://www.w3.org/2000/svg" xmlns:xlink="http://www.w3.org/1999/xlink">
    <!-- Generator: Sketch 51.1 (57501) - http://www.bohemiancoding.com/sketch -->
    <title>toucanoo</title>
    <desc>Created with Sketch.</desc>
    <defs></defs>
    <g id="toucanoo" stroke="none" stroke-width="1" fill="none" fill-rule="evenodd">
        <g id="Group-5" transform="translate(65.000000, 5.000000)" fill="#FFFFFF" fill-rule="nonzero">
            <path d="M367.331424,285.264332 C339.565145,282.139018 312.003232,277.170736 284.427998,272.791001 C261.981948,191.655282 230.460401,109.663592 194.960359,111.084482 C160.250002,112.474226 124.111307,188.960638 96.4971868,265.697291 C68.3410615,272.90377 39.7039959,278.377903 11.2501958,284.349292 C-8.45021108,288.484157 -0.113330395,317.704229 19.581523,313.570437 C41.2956242,309.013494 63.1163431,304.750824 84.749368,299.783615 C63.2096514,364.92761 49.1871118,421.883498 49.1871118,421.883498 L113.865136,423.724317 L108.267232,469.090769 C107.12655,468.976926 105.971422,468.899599 104.80186,468.883489 C84.9281931,468.598881 68.5954094,482.911959 68.3210617,500.851903 C77.9174738,500.989374 90.4450089,501.169805 104.28317,501.368493 L141.170474,501.999999 L151.237821,424.786495 L212.57265,426.53173 L222.412303,501.999999 L259.315167,501.49415 C273.138881,501.169805 285.667529,500.989374 295.262828,500.851903 C294.98738,482.911959 278.654596,468.598881 258.782031,468.883489 C257.611355,468.899599 256.45734,468.976926 255.316659,469.090769 L250.196356,427.6025 L319.460445,429.573272 C319.460445,429.573272 309.579692,371.35652 292.834848,304.704642 C317.604463,308.717072 342.388525,312.761722 367.331424,315.569134 C375.750494,316.517468 383.000002,307.926615 383.000002,300.416197 C383.000002,291.438706 375.776035,286.215888 367.331424,285.264332 Z" id="Stroke-1"></path>
            <polygon id="Fill-1" points="211.310345 5.93276991 189.891605 79.2631579 184.896552 0"></polygon>
            <polygon id="Fill-4" points="92.4482759 61.8840359 114.667583 39.6315789 158.482759 92.4736842"></polygon>
        </g>
    </g>
</svg>