<?xml version="1.0" encoding="UTF-8"?>
<svg width="120px" height="69px" viewBox="0 0 120 69" version="1.1" xmlns="http://www.w3.org/2000/svg" xmlns:xlink="http://www.w3.org/1999/xlink">
    <!-- Generator: Sketch 51.1 (57501) - http://www.bohemiancoding.com/sketch -->
    <title>logo-white copy</title>
    <desc>Created with Sketch.</desc>
    <defs></defs>
    <g id="Page-1" stroke="none" stroke-width="1" fill="none" fill-rule="evenodd" opacity="0.9">
        <g id="Desktop-HD-Copy-6" transform="translate(-660.000000, -83.000000)" fill-rule="nonzero">
            <g id="logo-white-copy" transform="translate(660.000000, 83.000000)">
                <path d="M63.2067575,48.3085865 L63.1975077,48.3285826 L63.1960527,48.3334521 C63.1869068,48.3533445 63.1770334,48.3727188 63.1678875,48.3925076 L63.1230935,48.4894831 L63.1219502,48.4890687 C62.4614718,49.9024657 61.6942568,51.226554 60.8239427,52.4556354 C62.2071539,54.7777631 65.3662256,55.8423177 67.1712907,56.1107616 C67.5321375,56.1639116 67.8896584,56.1921962 68.2309662,56.1921962 C71.3476343,56.1921962 72.4694602,53.9590662 72.5139425,53.863334 L72.6224459,53.6399589 L72.8038047,53.8065578 C73.8171271,54.7458524 75.7940933,55.550666 76.8093904,55.8023257 C77.4387936,55.9547306 78.028911,56.0362687 78.5677907,56.0362687 C79.780348,56.0362687 80.7741315,55.642772 81.5244058,54.8734953 C83.2188889,53.1366395 83.1494633,50.0242031 83.1494633,49.9923959 L83.1459296,49.8399911 L83.2988114,49.8045577 C86.9790947,49.0848049 90.4354077,45.4444943 90.6647823,45.1997763 C91.5892442,43.686192 91.8257901,42.4242675 91.374212,41.4460169 C90.6790208,39.9464195 88.5667371,39.5991312 88.5453275,39.5956086 L88.2716784,39.55313 L88.4209226,39.3155608 C88.6913498,38.8866308 89.3863331,37.6211836 89.4451578,37.5112573 C89.9179377,36.4229769 90.008669,35.6005502 89.7028015,35.139813 C89.3240788,34.5620007 88.4101139,34.6788686 88.4065802,34.6788686 L88.3818448,34.6788686 C86.4918685,34.6788686 82.4507385,39.1772464 82.4096859,39.2232476 C80.0648058,41.6124086 76.7631414,42.8211831 72.5903314,42.8211831 C69.6079415,42.8211831 66.8216685,42.1840045 65.121885,41.6935323 C64.7815126,42.9571146 64.4072588,44.2123048 64.0369544,45.451436 C63.7473001,46.4370426 63.466272,47.3656657 63.2067575,48.3085865 Z" id="Shape" fill="#FFFFFF"></path>
                <path d="M40.653837,62.6052181 C40.6405339,63.927856 40.5404488,65.4708644 40.1960231,66.4010417 C39.8672909,67.28356 40.0786856,67.7833568 40.2315674,68.0031057 C40.3739522,68.2050344 40.5854507,68.3290511 40.7936236,68.3290511 C40.9268625,68.3290511 41.0478376,68.2760047 41.1383611,68.1768534 C41.4583631,67.8292544 41.7251527,67.0956182 41.7286863,67.0883658 L42.0591854,66.1633689 L42.0859994,67.1452456 C42.0968082,67.6345781 42.2567573,69.048804 42.843445,68.9850861 C43.5565122,68.906967 43.9280638,68.2760047 43.9795094,67.0495134 L44.0151576,66.1705177 L44.331626,66.9892146 C44.331626,66.9928408 44.5288861,67.4749208 44.8134478,67.4749208 C44.8632305,67.4749208 44.9183137,67.4605196 44.9769305,67.4252934 C45.4357837,67.1843052 45.5992664,65.532303 45.3255134,64.8517133 C45.1613032,64.4407071 44.6668018,63.4563438 44.1729241,62.5900916 C43.7073154,62.6335027 43.088721,62.6717334 42.3493593,62.6717334 C41.8271085,62.6717334 41.2584008,62.6524626 40.653837,62.6052181 Z" id="Shape" fill="#FFFFFF"></path>
                <path d="M50.1738717,65.1425361 C50.1738717,65.1495813 50.3446295,66.3441618 51.0253743,66.3087285 L51.0468879,66.3087285 L51.0664269,66.3121475 C51.0698566,66.3121475 51.2141121,66.3299678 51.3419467,66.2271903 C51.469989,66.1312509 51.5499116,65.9400973 51.5749589,65.684915 L51.6654823,64.7739049 L51.9320641,65.6494817 C52.0192618,65.9293223 52.3357302,66.7197346 52.7589352,66.943317 C52.874402,67.0068276 52.9916356,67.0212289 53.1126107,66.9821693 C53.7384803,66.7909121 53.8326413,66.1705177 53.8467759,65.5891828 L53.8771236,64.3663178 L54.2041929,65.4864054 C54.2184314,65.532303 54.3019915,65.7592007 54.5385373,65.7167222 C54.6523412,65.6991091 54.7357974,65.6458555 54.8014815,65.5538531 C54.9135186,65.3871506 55.0202552,65.0149968 54.8602023,64.1889438 C54.6532766,63.1140286 53.6698861,60.9957981 52.111656,59.9775555 C51.1198472,60.4865732 50.0797106,60.9394362 48.99478,61.3365591 C49.503312,62.2529568 50.0232764,63.5408865 50.1738717,65.1425361 Z" id="Shape" fill="#FFFFFF"></path>
                <path d="M51.8367598,12.2712116 C52.1691296,12.0762246 52.510957,11.9043418 52.8583967,11.7553559 C53.3352299,11.4187391 53.8883481,10.9472269 54.41486,10.3051787 C55.6041368,8.84826712 56.8859118,6.1932524 56.2957944,1.77651637 C55.8228066,2.07438445 54.6833125,2.86842303 53.6573105,4.21540837 C52.7572723,5.39921381 51.8083868,7.20569304 51.6485417,9.67452726 C51.8265746,10.8467288 51.8446585,11.7801178 51.8367598,12.2712116 Z" id="Shape" fill="#FFFFFF"></path>
                <path d="M48.0536893,10.5057605 C45.9301811,9.29719316 43.2620771,8.16021776 40.7356303,8.16021776 C40.4297628,8.16021776 40.127429,8.17430822 39.8341371,8.20974157 C39.9567751,8.62085132 40.3390315,9.64893651 41.304442,10.662724 C42.9473755,12.3925346 45.5394024,13.3034411 48.8055226,13.3034411 C49.3489752,13.3034411 49.917683,13.2782647 50.50541,13.2294662 C50.7425794,13.018213 50.9895183,12.8233295 51.2444598,12.6445051 C49.9448088,11.9791455 48.8963578,11.254834 48.0536893,10.5057605 Z" id="Shape" fill="#FFFFFF"></path>
                <path d="M51.2755351,9.69763146 C51.1930142,9.1560814 51.0761963,8.56542195 50.9109468,7.94813569 C50.2993158,5.64413908 48.875156,2.48932763 45.5772331,0.433260856 C45.379973,0.986311218 44.8857834,2.63468725 45.1613032,4.63739678 C45.4493986,6.72817166 46.4924452,8.59702187 48.2263179,10.1653102 C48.5584798,10.4657685 48.9163125,10.7551408 49.2987768,11.0330129 C49.6731345,11.2701677 50.0216135,11.502453 50.337874,11.7214767 C50.6765835,11.9267207 51.030363,12.1244015 51.3999399,12.314001 C51.4214535,12.3249833 51.4422396,12.33638 51.4638571,12.3473623 C51.4638571,12.3344115 51.4638571,12.3204246 51.4648965,12.306645 C51.4721716,11.8385518 51.4573095,10.8876533 51.2759508,9.69763146 L51.2755351,9.69763146 Z" id="Shape" fill="#FFFFFF"></path>
                <path d="M49.3008554,11.0320804 C49.6287561,11.2692577 49.9756762,11.4976659 50.3399526,11.7176146 C50.0236921,11.4995229 49.6752131,11.2682261 49.3008554,11.0320804 Z" id="Shape" fill="#FFFFFF"></path>
                <path d="M18.194454,37.0393307 C16.1108551,34.3134493 12.3612502,30.7758126 6.27050666,29.2869902 C6.30251726,30.0633121 6.53885524,32.6899387 8.10893344,35.3803868 C9.27409838,37.3748078 10.927321,38.976043 13.0125827,40.158916 C15.6672797,40.2529905 18.4069919,40.9843473 21.1696727,42.330711 C20.8469684,41.4610398 19.9539975,39.3387686 18.1948697,37.0393307 L18.194454,37.0393307 Z" id="Shape" fill="#FFFFFF"></path>
                <path d="M7.79101001,51.711017 C5.66822936,54.8021106 4.99091423,57.5883945 4.86993912,58.3751806 C13.8965117,55.9646768 17.8882747,51.8600029 19.6467789,48.8256855 C21.1562656,46.2285867 21.3234898,43.9577441 21.3236977,43.0873477 C20.3581833,43.8184973 17.1446519,46.016401 12.3193662,46.990611 C10.2688173,48.5368312 8.80693074,50.2291363 7.79142573,51.711017 L7.79101001,51.711017 Z" id="Shape" fill="#FFFFFF"></path>
                <path d="M20.9797916,42.6506472 C20.9677357,42.6447416 20.9556798,42.6389397 20.9435199,42.6331377 C20.7938599,42.5605097 20.6442,42.4890214 20.4947479,42.4201232 C18.2274,41.3743213 15.9803184,40.755999 13.7897751,40.5729267 C13.6229666,40.5590435 13.4562621,40.5474396 13.2899733,40.538633 C13.1514339,40.5311734 13.0129984,40.5246462 12.8748748,40.5208128 C12.723552,40.5165649 12.5723331,40.5133531 12.4216338,40.5133531 C5.51087857,40.5133531 1.15868457,44.990388 0.25137122,46.0147433 C2.70309193,46.7343926 5.1638546,47.0959786 7.57452276,47.0959786 C9.23522837,47.0959786 10.7736078,46.9229561 12.1753185,46.6452912 C12.3129225,46.6180428 12.4484479,46.5891366 12.5834537,46.5599196 C12.7501582,46.523761 12.9143684,46.4860483 13.0769157,46.447196 C16.9193306,45.5283118 19.6051028,43.8690571 20.7595629,43.0533648 C20.8728471,42.9733808 20.9712693,42.9015816 21.0547255,42.8393142 C21.0845536,42.8170389 21.1106401,42.7972501 21.1366228,42.7775649 C21.1499259,42.7674115 21.1653076,42.7559112 21.1776753,42.746483 C21.1114716,42.713329 21.0455796,42.6827651 20.9794798,42.6506472 L20.9797916,42.6506472 Z" id="Shape" fill="#FFFFFF"></path>
                <polygon id="Shape" fill="#25BCBD" points="21.4890511 42.6974479 21.4890511 42.6951979 21.4890511 42.6951979"></polygon>
                <polygon id="Shape" fill="#FFFFFF" points="47.7990047 59.8904181 47.7315047 59.8026681 47.7315047 59.8049181 47.7315047 59.9556681"></polygon>
                <path d="M51.6185057,12.8435221 L51.6392057,12.8358721 L51.6338057,12.8331721 C51.6286307,12.8367721 51.6236807,12.8401471 51.6185057,12.8435221 Z" id="Shape" fill="#FFFFFF"></path>
                <path d="M51.8451704,12.8542562 L51.8510204,12.7644812 C51.8222204,12.7761812 51.7956704,12.7869812 51.7715954,12.7964312 C51.7961204,12.8155562 51.8215454,12.8355812 51.8451704,12.8542562 Z" id="Shape" fill="#FFFFFF"></path>
                <path d="M60.4214199,46.5959746 C60.3697664,46.5263512 60.3209191,46.4555881 60.2738386,46.3839962 C60.2240558,46.3084672 60.1763517,46.2319021 60.1315577,46.154301 C58.8240079,43.889882 59.5799985,40.7844908 60.1775989,38.3232198 C60.4104032,37.3662085 60.6148346,36.536633 60.6662802,35.884535 C61.0521741,31.1205107 59.4573605,29.5146132 58.047647,28.093135 C57.9018325,27.9441491 57.756018,27.7988931 57.6137372,27.6501145 C54.9521808,24.8674568 53.8996765,22.2442492 54.4828306,19.8550883 C55.4410699,15.9205359 60.440647,13.9212454 61.9517966,13.4001057 C62.0533367,13.3646724 62.1544611,13.329239 62.2540265,13.2973283 C62.1918761,13.2264616 62.1260881,13.1554913 62.0567664,13.0882508 C60.9242357,11.9681632 58.9952854,11.2946188 56.890069,11.2946188 C55.6997529,11.2946188 54.3420047,11.5237959 53.0576315,12.0656568 C52.6662292,12.2307016 52.2819981,12.4249634 51.9111741,12.6506179 C51.879787,12.669785 51.848504,12.6893666 51.8173248,12.7088446 C51.7933169,12.7239711 51.7687893,12.738476 51.7447813,12.7539133 C51.7045602,12.7797113 51.6649627,12.8067525 51.6251573,12.8332757 L51.6276516,12.834519 L51.61809,12.8380416 C51.6063459,12.8459157 51.5944978,12.8537898 51.5827536,12.8617675 C51.4393295,12.958743 51.2985037,13.0606915 51.1603801,13.1679241 C51.0719352,13.236615 50.9848414,13.3074817 50.898787,13.3804205 C50.8205273,13.4468322 50.7434109,13.5151087 50.6673337,13.5851466 C50.1219064,14.0877407 49.6351998,14.6832696 49.2397442,15.3853058 C47.1132221,19.146214 46.2207708,31.2515727 46.2102738,31.3759002 L46.2029987,31.4822002 L21.891574,42.8250166 C24.9818437,58.3027598 34.6230614,61.6243774 40.2914313,62.1973202 C40.3530621,62.2035366 40.4149008,62.2099601 40.4754923,62.2155549 C40.5379545,62.2213568 40.5989617,62.2262263 40.6603846,62.231303 C41.2841756,62.2831062 41.8544423,62.3027914 42.3541402,62.3027914 C42.9897791,62.3027914 43.5381165,62.273678 43.9727539,62.2378302 C44.0428031,62.2320283 44.1098382,62.2261227 44.1738594,62.2201136 C44.2446361,62.2134828 44.3114634,62.2067484 44.3746532,62.1999103 C44.8180207,62.1524587 45.0692208,62.1061466 45.0742094,62.1044889 C46.2430119,61.8407073 47.3675401,61.5167305 48.4493527,61.1381531 C48.5091128,61.1172246 48.5693925,61.0968142 48.6289446,61.0754713 C48.6886008,61.0541284 48.7490883,61.033718 48.8085366,61.0120643 C49.8210276,60.6426042 50.7924661,60.2211339 51.7236834,59.7520046 C51.7904068,59.7183325 51.8568184,59.6843497 51.92323,59.6502632 C51.9876669,59.6171092 52.0531431,59.5849913 52.1172683,59.5512156 C55.4506315,57.8000621 58.2340984,55.4032343 60.3952294,52.4232066 C60.4349308,52.3685025 60.4748402,52.3141092 60.514022,52.2590943 C60.554347,52.2025253 60.5956074,52.1467851 60.6355167,52.0898016 C61.447214,50.929204 62.1668288,49.6831312 62.7896844,48.3542769 C61.7082874,47.9049365 60.9454375,47.3009118 60.4216277,46.595353 L60.4214199,46.5959746 Z M51.9386117,42.4175331 C51.9174099,42.5380272 51.8996378,42.6442236 51.8852954,42.747001 C51.719838,43.913297 49.2735217,50.0741413 45.5452225,53.111774 C43.7210342,54.5970738 42.282636,55.3200384 41.1465716,55.3200384 C39.9751708,55.3200384 39.2497358,54.565163 38.7535716,53.9093352 L38.7393331,53.8917222 C38.7109601,53.8383649 38.0922618,52.7785762 37.8841929,51.7223101 C37.2833706,52.264689 35.7400025,53.4945993 34.191438,53.4945993 C33.2668722,53.4945993 32.4989296,53.0549978 31.912138,52.1937187 C31.8695265,52.1334199 30.886136,50.7225094 31.1049097,49.1345359 L30.9983809,49.1345359 C29.858575,49.1345359 26.1232086,48.8297262 25.8386469,44.891444 L25.8386469,44.8773535 C25.8386469,44.6680688 25.8724243,42.8176605 26.8734829,42.594389 C26.8982184,42.5874474 26.9534055,42.5730461 27.0370696,42.5730461 C27.2343297,42.5730461 27.5506941,42.6440164 27.9295208,42.9842594 C28.2815335,43.2998442 29.3642815,44.2640043 31.5368449,44.2640043 C31.7663235,44.2640043 32.0026614,44.2534365 32.2445077,44.2320936 C34.7994314,44.0017768 40.1420832,42.2079375 41.0807836,41.6656622 C41.3245006,41.51678 47.1613419,38.0252481 49.8087638,38.0252481 C50.2390361,38.0252481 50.5732766,38.1174577 50.806081,38.3017733 C52.4168999,39.5638015 52.1182036,41.3502847 51.9386117,42.4173258 L51.9386117,42.4175331 Z" id="Shape" fill="#FFFFFF"></path>
                <path d="M21.6877298,42.7190273 L21.6854798,42.7199273 L21.6884048,42.7296023 C21.6881798,42.7255523 21.6884048,42.7230773 21.6884048,42.7190273 L21.6877298,42.7190273 Z" id="Shape" fill="#25BCBD"></path>
                <path d="M66.1895631,29.9713098 L65.9813903,26.5970602 C65.9276583,26.0439062 65.8656117,25.5005949 65.7961862,24.968991 C65.664818,24.3872417 64.8056245,20.5655166 64.4477917,19.2766544 C64.0860096,17.9815758 62.8205517,14.4262224 62.5326642,13.6225484 C60.0585985,14.3821897 55.8427613,16.4890236 54.9446978,19.8260785 C54.3295331,22.1231335 55.3428555,24.6681183 57.9565,27.4011486 C58.0951433,27.5501344 58.2409578,27.6918678 58.3867723,27.8407501 C59.849906,29.3153784 61.5105077,30.9886199 61.1104792,35.9192431 C61.0518623,36.606878 60.8403638,37.4647381 60.5931131,38.4536601 C60.0396831,40.6700058 59.3505199,43.4357756 60.2729032,45.5486187 C60.3123968,45.639067 60.3544886,45.728272 60.4001141,45.8162337 C60.4424138,45.8980827 60.4878315,45.9785848 60.5356395,46.0581544 C60.9024103,46.6681882 61.4327677,47.2081842 62.1772219,47.6434342 C62.1826263,47.6464388 62.1880307,47.6494433 62.1933311,47.6525515 C62.2431138,47.6813541 62.2935201,47.7098458 62.3450697,47.7377159 C62.3637772,47.7477657 62.3831082,47.7575047 62.4020236,47.7674509 C62.441725,47.7883794 62.4813226,47.8092042 62.5220633,47.8295111 C62.5523071,47.8446376 62.5836941,47.8593497 62.6146654,47.8741654 C62.6457406,47.8889811 62.6764001,47.904004 62.707995,47.9186125 C62.7478004,47.9368472 62.788749,47.9545639 62.8295937,47.9723841 C62.8541213,47.9831592 62.8783371,47.9940379 62.9032804,48.0047093 C62.9077494,48.0065742 62.9125302,48.0083355 62.9169993,48.0102004 C63.164146,47.1309975 63.4325985,46.2239244 63.6955427,45.3447215 C64.0650157,44.1063155 64.4387498,42.851747 64.7787065,41.5898224 C64.7941921,41.5318029 64.809366,41.4737834 64.8248516,41.4158675 C64.8405451,41.3569155 64.8562386,41.2979635 64.8718282,41.2390115 C65.3784894,39.3177365 65.7981608,37.3810242 65.9926148,35.4585059 C66.1823919,33.5915207 66.236124,31.74909 66.1895631,29.9713098 Z M59.923177,25.8202203 C58.9556879,26.1427466 57.5459745,25.8947132 57.080054,23.8068393 C56.6108078,21.722488 56.6535232,21.360902 56.7458135,20.6908802 C56.8577466,19.8579892 57.0445098,18.9540244 58.5948412,18.6633051 C60.1451726,18.3762121 61.1550653,19.8861701 61.1550653,21.3289913 C61.1550653,22.7647672 60.8919133,25.4976939 59.923177,25.8202203 Z" id="Shape" fill="#FFFFFF"></path>
                <path d="M62.5208162,47.8299255 C62.5862912,47.8627755 62.6544662,47.8945005 62.7212912,47.9269005 C62.6542412,47.8947255 62.5862912,47.8627755 62.5208162,47.8299255 Z" id="Shape" fill="#FFFFFF"></path>
                <path d="M62.7078911,47.9190269 C62.7815449,47.9586269 62.8573142,47.9971019 62.9328911,48.0358019 C62.8575065,47.9971019 62.7815449,47.9588519 62.7078911,47.9190269 Z" id="Shape" fill="#FFFFFF"></path>
                <path d="M62.9317333,48.0166343 C62.9220583,48.0125843 62.9117083,48.0087593 62.9020333,48.0047093 C62.9121583,48.0089843 62.9213833,48.0134843 62.9315083,48.0175343 C62.9315083,48.0170843 62.9317333,48.0168593 62.9317333,48.0166343 Z" id="Shape" fill="#FFFFFF"></path>
                <path d="M62.1778455,47.6434342 C62.1893205,47.6501842 62.2012455,47.6567092 62.2127205,47.6632342 C62.2012455,47.6564842 62.1895455,47.6499592 62.1778455,47.6434342 Z" id="Shape" fill="#FFFFFF"></path>
                <path d="M62.3441343,47.7377159 C62.3846343,47.7595409 62.4264843,47.7806909 62.4674343,47.8022909 C62.4264843,47.7806909 62.3846343,47.7595409 62.3441343,47.7377159 Z" id="Shape" fill="#FFFFFF"></path>
                <path d="M50.5792007,38.5882447 C50.4120804,38.4570791 50.1542288,38.3861088 49.8075166,38.3861088 C47.2634017,38.3861088 41.3232534,41.945192 41.2661956,41.9805217 C40.2794793,42.5477662 34.9297603,44.3590113 32.275479,44.5928507 C32.0247986,44.6141936 31.7756772,44.628284 31.5357017,44.628284 C29.2209614,44.628284 28.0616165,43.5933608 27.6847645,43.2529105 C27.2616634,42.8736079 26.9699305,42.940952 26.9665008,42.9444746 L26.9557959,42.9444746 C26.3442688,43.0791628 26.2055216,44.3766243 26.201884,44.8727948 C26.4668029,48.4885507 29.9372504,48.7721211 30.9971338,48.7721211 C31.1907563,48.7721211 31.306431,48.7614496 31.306431,48.7614496 L31.5499401,48.7400031 L31.503795,48.9775723 C31.1802593,50.5017244 32.2026237,51.9693075 32.2095871,51.9835016 C32.7306947,52.7421068 33.3937713,53.128351 34.1902947,53.128351 C35.9788349,53.128351 37.8651736,51.242613 37.8830496,51.2213737 L38.1604402,50.9449521 L38.1958805,51.334719 C38.2936791,52.3698494 38.9853366,53.5821466 39.0511246,53.6991181 C39.7144091,54.564127 40.3598176,54.9538938 41.1454283,54.9538938 C42.1945029,54.9538938 43.5564083,54.2592137 45.311171,52.8305866 C49.14444,49.7042668 51.4058639,43.5115118 51.5232015,42.696234 C51.5374399,42.5899339 51.5552121,42.4763814 51.5765178,42.3595135 C51.7524722,41.3070809 52.017495,39.7154811 50.5792007,38.5882447 Z" id="Shape" fill="#FFFFFF"></path>
                <path d="M58.7065665,19.5039666 C58.3935278,19.5039666 58.1357801,19.7592524 58.1357801,20.07463 C58.1357801,20.3901111 58.3935278,20.645397 58.7065665,20.645397 C59.0248017,20.645397 59.2789118,20.3901111 59.2789118,20.07463 C59.2789118,19.7592524 59.0248017,19.5039666 58.7065665,19.5039666 Z" id="Shape" fill="#FFFFFF"></path>
                <path d="M74.940512,30.6126327 C70.9480215,29.6618378 67.6398095,27.714972 66.372273,26.821575 C66.3684275,26.8187776 66.3639585,26.8157731 66.3600092,26.8129757 L66.5581007,30.0353384 L66.5929174,30.602272 C68.3939292,31.6657906 70.6483898,32.4951589 73.4734289,33.1403153 C74.0206231,33.264332 75.0485997,33.4767249 75.7050248,33.5938 L74.940512,30.6126327 Z" id="Shape" fill="#FFFFFF"></path>
                <path d="M69.9102754,11.0279362 C66.5600754,12.1797273 63.7343088,13.196105 62.9337321,13.4851665 C62.9139853,13.4923153 62.8942385,13.4994642 62.8768821,13.5056806 C62.9265609,13.6447202 63.004197,13.8621898 63.099813,14.1316697 C63.5720733,15.4630105 64.4957037,18.0960607 64.7987651,19.1807149 C64.9838653,19.8447276 65.2989826,21.1690232 65.5803225,22.3828745 C65.8531401,23.5599455 66.0941549,24.633203 66.1537071,24.8984351 C66.1557857,24.9000928 66.1579683,24.9015433 66.1600469,24.903201 C68.0405655,26.3814555 71.4442897,26.9901424 74.0725883,27.2379687 L69.9102754,11.027729 L69.9102754,11.0279362 Z" id="Shape" fill="#FFFFFF"></path>
                <path d="M111.420121,14.9276768 C116.243536,14.9276768 118.407265,17.1927175 119.058078,18.0577264 C120.457086,13.4069438 119.838492,10.0288608 119.804715,9.85521662 C118.144217,4.18007863 114.182905,1.41876386 107.695771,1.41876386 C105.979982,1.41876386 104.315951,1.60297584 102.978781,1.75196168 L102.961009,1.75196168 L106.271611,15.6683582 C108.113364,15.1722913 109.843495,14.9275732 111.420536,14.9275732 L111.420121,14.9276768 Z" id="Shape" fill="#FFFFFF"></path>
                <path d="M81.9973936,33.814067 L81.2660346,30.9960795 C80.7932547,31.0208414 80.2938686,31.0314093 79.7800362,31.0314093 C78.1602792,31.0314093 76.5585022,30.9108116 75.3351362,30.6911662 L75.9581996,33.1236347 L76.0963232,33.6616621 C77.4509535,33.8458741 78.859004,33.881411 79.8138136,33.881411 C80.5671019,33.881411 81.3168566,33.8601718 81.9973936,33.814067 Z" id="Shape" fill="#FFFFFF"></path>
                <path d="M78.9938019,27.3024118 C79.2462491,27.295263 79.8934244,27.2493654 80.282748,27.2174546 L75.5855048,9.1215805 C73.8522556,9.69928916 71.7454803,10.3975955 70.2521028,10.9080637 L74.4550526,27.2706047 C75.2527193,27.3202321 76.0928935,27.344994 76.9614408,27.344994 C77.6175541,27.3448904 78.3021443,27.3306963 78.9938019,27.3023082 L78.9938019,27.3024118 Z" id="Shape" fill="#FFFFFF"></path>
                <path d="M84.6372285,13.8615681 L82.695183,6.81064226 C80.8427256,7.39539615 78.3492249,8.20684059 75.9427139,9.00419458 L80.1428576,25.1906048 L80.6616787,27.1883413 C83.721185,26.8799054 86.1640716,25.8766857 87.7179367,25.0579888 L84.6372285,13.8612573 L84.6372285,13.8615681 Z" id="Shape" fill="#FFFFFF"></path>
                <polygon id="Shape" fill="#25BCBD" points="80.3864707 27.5826824 80.4314707 27.5759324 80.3864707 27.5804324"></polygon>
                <path d="M103.656512,16.4973121 L103.667217,16.4902669 C104.254008,16.2773559 105.313684,15.947888 105.91804,15.7669914 L102.593303,1.79050322 C102.495504,1.80107106 102.363928,1.81526512 102.248461,1.82593657 L101.999444,1.85059487 C99.7504914,2.08111886 96.1821413,2.88220267 91.1023298,4.30368093 L95.44226,20.5740123 C99.6505102,18.344405 103.617122,16.5151324 103.6562,16.4975193 L103.656512,16.4973121 Z" id="Shape" fill="#FFFFFF"></path>
                <path d="M89.5427486,31.6828856 L89.4704129,31.4199329 L88.8583662,29.198096 C86.4607932,30.090975 83.7379178,30.7607897 81.643822,30.9666554 L82.1213827,32.8100184 L82.3742456,33.781431 C84.5877576,33.5262487 87.2421428,32.7499268 89.5427486,31.6828856 Z" id="Shape" fill="#FFFFFF"></path>
                <path d="M98.5639168,23.3643368 C97.909986,23.8887918 97.250443,24.3954266 96.5947454,24.8703578 L96.6936872,25.2435477 L96.8393978,25.7889312 C97.6321797,24.8177258 98.204629,23.9598658 98.5639168,23.3643368 Z" id="Shape" fill="#FFFFFF"></path>
                <path d="M95.1134238,20.7482781 L90.7483425,4.40645837 C88.1169259,5.15428855 85.2614352,6.00520699 83.0410638,6.69636453 L86.4561164,19.1021814 L88.0444863,24.870047 L88.4990784,24.6008779 C90.1116642,23.6474928 93.4185251,21.6837392 95.1076037,20.74776 L95.1134238,20.7482781 Z" id="Shape" fill="#FFFFFF"></path>
                <path d="M82.5897975,6.45882557 L82.5897975,6.45927557 C82.5963225,6.45725057 82.6030725,6.45522557 82.6093725,6.45320057 L82.5897975,6.45882557 Z" id="Shape" fill="#25BCBD"></path>
                <path d="M96.2670525,25.0935258 C93.9005548,26.7134101 91.2267346,28.2163229 89.1998818,29.0636151 L89.8736633,31.5164939 C93.0361648,29.8401442 95.6938757,27.0684688 96.5441312,26.128967 L96.4813572,25.8931591 L96.2670525,25.0935258 Z" id="Shape" fill="#FFFFFF"></path>
                <polygon id="Shape" fill="#FFFFFF" points="96.4853066 25.8933663 96.6203066 26.2216863 96.6203066 26.2202463"></polygon>
            </g>
        </g>
    </g>
</svg>